<?xml version="1.0" encoding="UTF-8" standalone="no"?>
<svg
   xmlns:ns1="&amp;#38;#38;#38;ns_sfw;"
   xmlns:dc="http://purl.org/dc/elements/1.1/"
   xmlns:cc="http://creativecommons.org/ns#"
   xmlns:rdf="http://www.w3.org/1999/02/22-rdf-syntax-ns#"
   xmlns:svg="http://www.w3.org/2000/svg"
   xmlns="http://www.w3.org/2000/svg"
   xml:space="preserve"
   enable-background="new 23.577 0 290.5 85.789"
   viewBox="23.577 0 290 59.999999"
   height="60"
   width="290"
   y="0px"
   x="0px"
   id="Ebene_1"
   version="1.1"><defs
     id="defs7420" /><metadata
     id="metadata7351"><ns1:sfw><ns1:slices /><ns1:sliceSourceBounds
         bottomLeftOrigin="true"
         height="85.789"
         width="285.603"
         y="517.325"
         x="816.781" /></ns1:sfw><rdf:RDF><cc:Work
         rdf:about=""><dc:format>image/svg+xml</dc:format><dc:type
           rdf:resource="http://purl.org/dc/dcmitype/StillImage" /><dc:title></dc:title></cc:Work></rdf:RDF></metadata><g
     transform="translate(-0.3417615,-11.943833)"
     aria-label="FAVORITES"
     style="font-style:normal;font-variant:normal;font-weight:bold;font-stretch:normal;font-size:40px;line-height:3.25;font-family:Erbaum;-inkscape-font-specification:'Erbaum Bold';letter-spacing:0px;word-spacing:0px;fill:#ffffff;fill-opacity:1;stroke:#000000;stroke-width:5;stroke-linecap:butt;stroke-linejoin:round;stroke-miterlimit:4;stroke-dasharray:none;stroke-opacity:0"
     id="text7967"><path
       d="m 57.042257,31.633166 v -7.752 H 31.404923 V 60.0065 h 9.12 V 46.529167 H 54.914257 V 38.777166 H 40.524923 v -7.144 z"
       style="font-style:normal;font-variant:normal;font-weight:bold;font-stretch:normal;font-size:50.66666794px;line-height:2.25;font-family:Erbaum;-inkscape-font-specification:'Erbaum Bold';text-align:center;letter-spacing:-2.21000123px;word-spacing:0px;text-anchor:middle;fill:#ffffff;fill-opacity:1;stroke:#000000;stroke-width:5;stroke-linecap:butt;stroke-linejoin:round;stroke-miterlimit:4;stroke-dasharray:none;stroke-opacity:0"
       id="path8484" /><path
       d="m 83.448631,60.0065 h 9.373333 l -11.4,-36.125334 H 68.09663 l -11.4,36.125334 h 9.322667 l 2.330667,-7.752 h 12.768 z m -12.717334,-15.554667 4.053333,-13.376 4.002667,13.376 z"
       style="font-style:normal;font-variant:normal;font-weight:bold;font-stretch:normal;font-size:50.66666794px;line-height:2.25;font-family:Erbaum;-inkscape-font-specification:'Erbaum Bold';text-align:center;letter-spacing:-2.21000123px;word-spacing:0px;text-anchor:middle;fill:#ffffff;fill-opacity:1;stroke:#000000;stroke-width:5;stroke-linecap:butt;stroke-linejoin:round;stroke-miterlimit:4;stroke-dasharray:none;stroke-opacity:0"
       id="path8486" /><path
       d="M 115.6405,23.881166 107.68584,51.139833 99.731171,23.881166 H 90.408504 L 101.40317,60.0065 h 12.616 l 10.944,-36.125334 z"
       style="font-style:normal;font-variant:normal;font-weight:bold;font-stretch:normal;font-size:50.66666794px;line-height:2.25;font-family:Erbaum;-inkscape-font-specification:'Erbaum Bold';text-align:center;letter-spacing:-2.21000123px;word-spacing:0px;text-anchor:middle;fill:#ffffff;fill-opacity:1;stroke:#000000;stroke-width:5;stroke-linecap:butt;stroke-linejoin:round;stroke-miterlimit:4;stroke-dasharray:none;stroke-opacity:0"
       id="path8488" /><path
       d="m 147.9535,23.374499 h -11.4 c -6.08,0 -9.17066,3.04 -9.17066,8.968001 v 19.202667 c 0,5.928 3.09066,8.968 9.17066,8.968 h 11.4 c 6.08,0 9.17067,-3.04 9.17067,-8.968 V 32.3425 c 0,-5.928001 -3.09067,-8.968001 -9.17067,-8.968001 z m 0.0507,10.437334 v 16.264 c 0,1.976 -0.70933,2.685334 -2.78667,2.685334 h -5.928 c -2.07733,0 -2.78666,-0.709334 -2.78666,-2.685334 v -16.264 c 0,-2.026667 0.70933,-2.685333 2.78666,-2.685333 h 5.928 c 2.07734,0 2.78667,0.658666 2.78667,2.685333 z"
       style="font-style:normal;font-variant:normal;font-weight:bold;font-stretch:normal;font-size:50.66666794px;line-height:2.25;font-family:Erbaum;-inkscape-font-specification:'Erbaum Bold';text-align:center;letter-spacing:-2.21000123px;word-spacing:0px;text-anchor:middle;fill:#ffffff;fill-opacity:1;stroke:#000000;stroke-width:5;stroke-linecap:butt;stroke-linejoin:round;stroke-miterlimit:4;stroke-dasharray:none;stroke-opacity:0"
       id="path8490" /><path
       d="m 185.27538,60.0065 h 10.64 l -9.12,-13.376 c 3.496,-1.114667 5.21866,-3.901334 5.21866,-8.36 v -5.421334 c 0,-5.928 -3.09066,-8.968 -9.22133,-8.968 h -19.608 V 60.0065 h 9.12 V 47.187833 h 4.15466 z M 172.30471,31.633166 h 7.752 c 2.128,0 2.83733,0.658667 2.83733,2.685334 v 2.482666 c 0,1.976 -0.70933,2.634667 -2.83733,2.634667 h -7.752 z"
       style="font-style:normal;font-variant:normal;font-weight:bold;font-stretch:normal;font-size:50.66666794px;line-height:2.25;font-family:Erbaum;-inkscape-font-specification:'Erbaum Bold';text-align:center;letter-spacing:-2.21000123px;word-spacing:0px;text-anchor:middle;fill:#ffffff;fill-opacity:1;stroke:#000000;stroke-width:5;stroke-linecap:butt;stroke-linejoin:round;stroke-miterlimit:4;stroke-dasharray:none;stroke-opacity:0"
       id="path8492" /><path
       d="m 200.06326,60.0065 h 9.12 V 23.881166 h -9.12 z"
       style="font-style:normal;font-variant:normal;font-weight:bold;font-stretch:normal;font-size:50.66666794px;line-height:2.25;font-family:Erbaum;-inkscape-font-specification:'Erbaum Bold';text-align:center;letter-spacing:-2.21000123px;word-spacing:0px;text-anchor:middle;fill:#ffffff;fill-opacity:1;stroke:#000000;stroke-width:5;stroke-linecap:butt;stroke-linejoin:round;stroke-miterlimit:4;stroke-dasharray:none;stroke-opacity:0"
       id="path8494" /><path
       d="m 242.97271,23.881166 h -29.69067 v 7.752 h 10.28534 V 60.0065 h 9.12 V 31.633166 h 10.28533 z"
       style="font-style:normal;font-variant:normal;font-weight:bold;font-stretch:normal;font-size:50.66666794px;line-height:2.25;font-family:Erbaum;-inkscape-font-specification:'Erbaum Bold';text-align:center;letter-spacing:-2.21000123px;word-spacing:0px;text-anchor:middle;fill:#ffffff;fill-opacity:1;stroke:#000000;stroke-width:5;stroke-linecap:butt;stroke-linejoin:round;stroke-miterlimit:4;stroke-dasharray:none;stroke-opacity:0"
       id="path8496" /><path
       d="m 272.63996,31.633166 v -7.752 H 247.00262 V 60.0065 h 25.63734 v -7.752 h -16.51734 v -6.84 h 14.38934 v -7.752 h -14.38934 v -6.029334 z"
       style="font-style:normal;font-variant:normal;font-weight:bold;font-stretch:normal;font-size:50.66666794px;line-height:2.25;font-family:Erbaum;-inkscape-font-specification:'Erbaum Bold';text-align:center;letter-spacing:-2.21000123px;word-spacing:0px;text-anchor:middle;fill:#ffffff;fill-opacity:1;stroke:#000000;stroke-width:5;stroke-linecap:butt;stroke-linejoin:round;stroke-miterlimit:4;stroke-dasharray:none;stroke-opacity:0"
       id="path8498" /><path
       d="m 285.7606,60.513167 h 11.50133 c 6.08,0 9.17067,-3.04 9.17067,-8.968 v -4.813334 c 0,-5.269333 -2.28,-7.498667 -8.61334,-8.410667 l -8.30933,-1.216 c -3.192,-0.456 -3.69867,-0.76 -3.69867,-2.482666 v -0.810667 c 0,-1.976 0.76,-2.685333 2.93867,-2.685333 h 5.624 c 2.07733,0 2.78667,0.658666 2.78667,2.685333 v 0.304 l 9.06933,-1.064 c 0.0507,-0.202667 0.0507,-0.253333 0.0507,-0.76 0,-5.877334 -3.09067,-8.917334 -9.17067,-8.917334 H 285.9126 c -6.08,0 -9.22134,3.04 -9.22134,8.968001 v 4.712 c 0,5.168 2.432,7.397333 8.71467,8.309333 l 8.25867,1.216 c 3.04,0.456 3.648,0.861334 3.648,2.533334 v 0.962666 c 0,1.976 -0.70934,2.685334 -2.78667,2.685334 h -6.02933 c -2.128,0 -2.83734,-0.709334 -2.83734,-2.685334 v -0.354666 l -9.06933,1.114666 c -0.0507,0.152 -0.0507,0.202667 -0.0507,0.709334 0,5.928 3.14134,8.968 9.22134,8.968 z"
       style="font-style:normal;font-variant:normal;font-weight:bold;font-stretch:normal;font-size:50.66666794px;line-height:2.25;font-family:Erbaum;-inkscape-font-specification:'Erbaum Bold';text-align:center;letter-spacing:-2.21000123px;word-spacing:0px;text-anchor:middle;fill:#ffffff;fill-opacity:1;stroke:#000000;stroke-width:5;stroke-linecap:butt;stroke-linejoin:round;stroke-miterlimit:4;stroke-dasharray:none;stroke-opacity:0"
       id="path8500" /></g></svg>