<svg xmlns="http://www.w3.org/2000/svg" viewBox="0 0 285.75 95.25" height="360" width="1080">
  <g fill="#fff">
    <circle r="8.82" cy="45.5" cx="189.97"/>
    <circle r="8.82" cy="37.18" cx="215.16"/>
    <path d="M74.13 24.35c-.3 0-.53.24-.53.53v11.3H62.3c-.3 0-.53.24-.53.53v9.1c0 .3.24.53.53.53h11.3v11.3c0 .29.23.52.53.52h9.1c.29 0 .52-.23.52-.53v-11.3h11.3c.3 0 .53-.23.53-.52v-9.1c0-.3-.24-.53-.53-.53h-11.3v-11.3c0-.29-.23-.53-.53-.53z"/>
    <circle r="4.1" cy="68.74" cx="97.72"/>
    <path d="M75.86 7.49c-.66 0-5.62.1-9 .36-2.77.55-5.4 1.3-5.5 1.33l-5.33 1.58c-2.83.76-5.08 5.8-3.65 8.06 1.27 2.03 3.73 1.94 6.56 1.18l6.53-1.9c2.07-.43 7.6-1.42 9.82-1.35h14.16c2.93 0 5.3-2.07 5.3-4.63 0-2.57-2.37-4.63-5.3-4.63zM209.9 7.83c.65 0 5.61.1 9 .36 2.76.55 5.4 1.3 5.49 1.33l5.33 1.58c2.83.76 5.08 5.8 3.65 8.06-1.27 2.03-3.73 1.94-6.56 1.18l-6.53-1.91c-2.07-.42-7.6-1.4-9.82-1.34H196.3c-2.93 0-5.3-2.07-5.3-4.63 0-2.57 2.37-4.63 5.3-4.63z"/>
    <circle r="4.1" cy="83.67" cx="97.72"/>
  </g>
</svg>
