<?xml version="1.0" encoding="UTF-8" standalone="no"?>
<svg
   xmlns:dc="http://purl.org/dc/elements/1.1/"
   xmlns:cc="http://creativecommons.org/ns#"
   xmlns:rdf="http://www.w3.org/1999/02/22-rdf-syntax-ns#"
   xmlns:svg="http://www.w3.org/2000/svg"
   xmlns="http://www.w3.org/2000/svg"
   xmlns:sodipodi="http://sodipodi.sourceforge.net/DTD/sodipodi-0.dtd"
   xmlns:inkscape="http://www.inkscape.org/namespaces/inkscape"
   viewBox="0 0 285.75 95.25"
   height="360"
   width="1080"
   version="1.1"
   id="svg3268"
   sodipodi:docname="buttons.svg"
   inkscape:version="1.0 (4035a4fb49, 2020-05-01)">
  <g
     style="font-size:68.7917px;line-height:1.25;font-family:FontAwesome;-inkscape-font-specification:FontAwesome;stroke-width:0.264583;fill:#ffffff"
     id="text855"
     aria-label="">
    <path
       id="path857"
       style="font-size:68.7917px;stroke-width:0.264583;fill:#ffffff"
       d="m 128.5178,47.240365 q -2.84072,-6.218893 -2.84072,-14.242033 h -9.82739 v 3.68527 q 0,2.994282 3.60849,6.218893 3.64688,3.224611 9.05962,4.33787 z m 41.38251,-10.556763 v -3.68527 h -9.82738 q 0,8.02314 -2.84073,14.242033 5.41274,-1.113259 9.02123,-4.33787 3.64688,-3.224611 3.64688,-6.218893 z m 4.9137,-4.913693 v 4.913693 q 0,2.725564 -1.61231,5.489517 -1.57392,2.763952 -4.29948,4.990469 -2.68718,2.226517 -6.64116,3.762046 -3.9156,1.497141 -8.25347,1.689082 -1.61231,2.072965 -3.64688,3.646882 -1.45876,1.3052 -2.03458,2.80234 -0.53744,1.458753 -0.53744,3.416553 0,2.072964 1.15165,3.493328 1.19004,1.420365 3.76205,1.420365 2.87911,0 5.10563,1.765858 2.26491,1.72747 2.26491,4.376258 v 2.456846 q 0,0.537436 -0.3455,0.88293 -0.34549,0.345494 -0.88293,0.345494 h -31.939 q -0.53744,0 -0.88293,-0.345494 -0.34549,-0.345494 -0.34549,-0.88293 V 73.5363 q 0,-2.648788 2.22651,-4.376258 2.26491,-1.765858 5.14403,-1.765858 2.57201,0 3.72365,-1.420365 1.19004,-1.420364 1.19004,-3.493328 0,-1.9578 -0.57582,-3.416553 -0.53744,-1.49714 -1.99619,-2.80234 -2.03458,-1.573917 -3.64688,-3.646882 -4.33787,-0.191941 -8.29186,-1.689082 -3.9156,-1.535529 -6.64116,-3.762046 -2.68718,-2.226517 -4.29949,-4.990469 -1.57391,-2.763953 -1.57391,-5.489517 v -4.913693 q 0,-1.535529 1.07487,-2.610399 1.07487,-1.074871 2.6104,-1.074871 h 11.05581 V 24.39937 q 0,-2.533623 1.80424,-4.33787 1.80425,-1.804247 4.33787,-1.804247 h 22.11162 q 2.53362,0 4.33787,1.804247 1.80425,1.804247 1.80425,4.33787 v 3.685269 h 11.05581 q 1.53553,0 2.6104,1.074871 1.07487,1.07487 1.07487,2.610399 z" />
  </g>
  <metadata
     id="metadata3272">
    <rdf:RDF>
      <cc:Work
         rdf:about="">
        <dc:format>image/svg+xml</dc:format>
        <dc:type
           rdf:resource="http://purl.org/dc/dcmitype/StillImage" />
        <dc:title />
      </cc:Work>
    </rdf:RDF>
  </metadata>
  <sodipodi:namedview
     inkscape:document-rotation="0"
     pagecolor="#ffffff"
     bordercolor="#666666"
     borderopacity="1"
     objecttolerance="10"
     gridtolerance="10"
     guidetolerance="10"
     inkscape:pageopacity="0"
     inkscape:pageshadow="2"
     inkscape:window-width="1920"
     inkscape:window-height="1017"
     id="namedview3270"
     showgrid="false"
     inkscape:zoom="0.98796296"
     inkscape:cx="540"
     inkscape:cy="180"
     inkscape:window-x="-8"
     inkscape:window-y="-8"
     inkscape:window-maximized="1"
     inkscape:current-layer="svg3268" />
  <defs
     id="defs3262">
    <clipPath
       id="a">
      <path
         d="M0 452h610V0H0z"
         id="path3259" />
    </clipPath>
  </defs>
  <text
     xml:space="preserve"
     style="font-style:normal;font-weight:normal;font-size:10.5833px;line-height:1.25;font-family:sans-serif;fill:#000000;fill-opacity:1;stroke:none;stroke-width:0.264583"
     x="17.675257"
     y="24.638239"
     id="text4437"><tspan
       sodipodi:role="line"
       id="tspan4435"
       x="17.675257"
       y="24.638239"
       style="stroke-width:0.264583" /></text>
</svg>
