<?xml version="1.0" encoding="UTF-8" standalone="no"?>
<svg
   xmlns:dc="http://purl.org/dc/elements/1.1/"
   xmlns:cc="http://creativecommons.org/ns#"
   xmlns:rdf="http://www.w3.org/1999/02/22-rdf-syntax-ns#"
   xmlns:svg="http://www.w3.org/2000/svg"
   xmlns="http://www.w3.org/2000/svg"
   xmlns:sodipodi="http://sodipodi.sourceforge.net/DTD/sodipodi-0.dtd"
   xmlns:inkscape="http://www.inkscape.org/namespaces/inkscape"
   inkscape:version="1.0 (4035a4fb49, 2020-05-01)"
   sodipodi:docname="system.svg"
   id="svg879"
   version="1.1"
   width="340"
   height="60"
   viewBox="23.58 0 340 60">
  <metadata
     id="metadata885">
    <rdf:RDF>
      <cc:Work
         rdf:about="">
        <dc:format>image/svg+xml</dc:format>
        <dc:type
           rdf:resource="http://purl.org/dc/dcmitype/StillImage" />
        <dc:title></dc:title>
      </cc:Work>
    </rdf:RDF>
  </metadata>
  <defs
     id="defs883" />
  <sodipodi:namedview
     inkscape:current-layer="svg879"
     inkscape:window-maximized="1"
     inkscape:window-y="-8"
     inkscape:window-x="-8"
     inkscape:cy="49.90947"
     inkscape:cx="225.46889"
     inkscape:zoom="2.5577759"
     inkscape:pagecheckerboard="true"
     showgrid="false"
     id="namedview881"
     inkscape:window-height="1017"
     inkscape:window-width="1920"
     inkscape:pageshadow="2"
     inkscape:pageopacity="0"
     guidetolerance="10"
     gridtolerance="10"
     objecttolerance="10"
     borderopacity="1"
     bordercolor="#666666"
     pagecolor="#ffffff"
     inkscape:document-rotation="0" />
  <g
     inkscape:label="backdrop"
     id="layer1"
     inkscape:groupmode="layer">
    <g
       style="font-style:normal;font-weight:normal;font-size:40px;line-height:1.25;font-family:sans-serif;fill:#ffffff;fill-opacity:1;stroke:none"
       id="text849"
       aria-label="ACHIEVEMENTS">
      <path
         id="path2626"
         style="font-style:normal;font-variant:normal;font-weight:bold;font-stretch:normal;font-family:Erbaum;-inkscape-font-specification:'Erbaum Bold';fill:#ffffff;fill-opacity:1"
         d="m 48.919688,58.746422 h 7.4 l -9,-28.52 h -10.52 l -9,28.52 h 7.36 l 1.84,-6.12 h 10.08 z m -10.04,-12.28 3.2,-10.56 3.16,10.56 z" />
      <path
         id="path2628"
         style="font-style:normal;font-variant:normal;font-weight:bold;font-stretch:normal;font-family:Erbaum;-inkscape-font-specification:'Erbaum Bold';fill:#ffffff;fill-opacity:1"
         d="m 67.224688,59.146422 h 9 c 4.8,0 7.24,-2.4 7.24,-7.08 0,-0.32 0,-0.4 -0.04,-0.56 l -7.16,-0.88 v 0.28 c 0,1.56 -0.56,2.12 -2.2,2.12 h -4.68 c -1.64,0 -2.2,-0.56 -2.2,-2.12 v -12.84 c 0,-1.6 0.56,-2.12 2.2,-2.12 h 4.68 c 1.64,0 2.2,0.52 2.2,2.12 v 0.24 l 7.16,-0.84 c 0.04,-0.16 0.04,-0.28 0.04,-0.6 0,-4.64 -2.44,-7.04 -7.24,-7.04 h -9 c -4.8,0 -7.24,2.4 -7.24,7.08 v 15.16 c 0,4.68 2.44,7.08 7.24,7.08 z" />
      <path
         id="path2630"
         style="font-style:normal;font-variant:normal;font-weight:bold;font-stretch:normal;font-family:Erbaum;-inkscape-font-specification:'Erbaum Bold';fill:#ffffff;fill-opacity:1"
         d="m 106.24719,30.226422 v 11 h -9.600002 v -11 h -7.2 v 28.52 h 7.2 v -11.36 h 9.600002 v 11.36 h 7.2 v -28.52 z" />
      <path
         id="path2632"
         style="font-style:normal;font-variant:normal;font-weight:bold;font-stretch:normal;font-family:Erbaum;-inkscape-font-specification:'Erbaum Bold';fill:#ffffff;fill-opacity:1"
         d="m 120.38469,58.746422 h 7.2 v -28.52 h -7.2 z" />
      <path
         id="path2634"
         style="font-style:normal;font-variant:normal;font-weight:bold;font-stretch:normal;font-family:Erbaum;-inkscape-font-specification:'Erbaum Bold';fill:#ffffff;fill-opacity:1"
         d="m 154.76531,36.346422 v -6.12 h -20.24 v 28.52 h 20.24 v -6.12 h -13.04 v -5.4 h 11.36 v -6.12 h -11.36 v -4.76 z" />
      <path
         id="path2636"
         style="font-style:normal;font-variant:normal;font-weight:bold;font-stretch:normal;font-family:Erbaum;-inkscape-font-specification:'Erbaum Bold';fill:#ffffff;fill-opacity:1"
         d="m 178.18844,30.226422 -6.28,21.52 -6.28,-21.52 h -7.36 l 8.68,28.52 h 9.96 l 8.64,-28.52 z" />
      <path
         id="path2638"
         style="font-style:normal;font-variant:normal;font-weight:bold;font-stretch:normal;font-family:Erbaum;-inkscape-font-specification:'Erbaum Bold';fill:#ffffff;fill-opacity:1"
         d="m 210.78094,36.346422 v -6.12 h -20.24 v 28.52 h 20.24 v -6.12 h -13.04 v -5.4 h 11.36 v -6.12 h -11.36 v -4.76 z" />
      <path
         id="path2640"
         style="font-style:normal;font-variant:normal;font-weight:bold;font-stretch:normal;font-family:Erbaum;-inkscape-font-specification:'Erbaum Bold';fill:#ffffff;fill-opacity:1"
         d="m 238.60406,30.226422 -7.72,12.24 -7.76,-12.24 h -6.96 v 28.52 h 7.2 v -16.64 l 6.24,9.88 h 2.52 l 6.24,-9.84 v 16.6 h 7.2 v -28.52 z" />
      <path
         id="path2642"
         style="font-style:normal;font-variant:normal;font-weight:bold;font-stretch:normal;font-family:Erbaum;-inkscape-font-specification:'Erbaum Bold';fill:#ffffff;fill-opacity:1"
         d="m 272.73406,36.346422 v -6.12 h -20.24 v 28.52 h 20.24 v -6.12 h -13.04 v -5.4 h 11.36 v -6.12 h -11.36 v -4.76 z" />
      <path
         id="path2644"
         style="font-style:normal;font-variant:normal;font-weight:bold;font-stretch:normal;font-family:Erbaum;-inkscape-font-specification:'Erbaum Bold';fill:#ffffff;fill-opacity:1"
         d="m 296.02031,30.226422 v 16.6 l -10.24,-16.6 h -6.96 v 28.52 h 7.2 v -16.6 l 10.2,16.6 h 7 v -28.52 z" />
      <path
         id="path2646"
         style="font-style:normal;font-variant:normal;font-weight:bold;font-stretch:normal;font-family:Erbaum;-inkscape-font-specification:'Erbaum Bold';fill:#ffffff;fill-opacity:1"
         d="m 331.55219,30.226422 h -23.44 v 6.12 h 8.12 v 22.4 h 7.2 v -22.4 h 8.12 z" />
      <path
         id="path2648"
         style="font-style:normal;font-variant:normal;font-weight:bold;font-stretch:normal;font-family:Erbaum;-inkscape-font-specification:'Erbaum Bold';fill:#ffffff;fill-opacity:1"
         d="m 343.04031,59.146422 h 9.08 c 4.8,0 7.24,-2.4 7.24,-7.08 v -3.8 c 0,-4.16 -1.8,-5.92 -6.8,-6.64 l -6.56,-0.96 c -2.52,-0.36 -2.92,-0.6 -2.92,-1.96 v -0.64 c 0,-1.56 0.6,-2.12 2.32,-2.12 h 4.44 c 1.64,0 2.2,0.52 2.2,2.12 v 0.24 l 7.16,-0.84 c 0.04,-0.16 0.04,-0.2 0.04,-0.6 0,-4.64 -2.44,-7.04 -7.24,-7.04 h -8.84 c -4.8,0 -7.28,2.4 -7.28,7.08 v 3.72 c 0,4.08 1.92,5.84 6.88,6.56 l 6.52,0.96 c 2.4,0.36 2.88,0.68 2.88,2 v 0.76 c 0,1.56 -0.56,2.12 -2.2,2.12 h -4.76 c -1.68,0 -2.24,-0.56 -2.24,-2.12 v -0.28 l -7.16,0.88 c -0.04,0.12 -0.04,0.16 -0.04,0.56 0,4.68 2.48,7.08 7.28,7.08 z" />
    </g>
  </g>
  <g
     style="font-style:normal;font-weight:normal;font-size:29.3333px;line-height:1.25;font-family:sans-serif;letter-spacing:7.5px;fill:#ffffff;fill-opacity:1;stroke:none"
     id="text845"
     aria-label="RETRO">
    <path
       id="path2615"
       style="font-style:normal;font-variant:normal;font-weight:normal;font-stretch:normal;font-size:29.3333px;font-family:Erbaum;-inkscape-font-specification:Erbaum;fill:#ffffff;fill-opacity:1"
       d="m 143.00879,24.811726 h 3.31466 l -6.74666,-8.359991 c 3.608,-0.117333 5.22133,-1.701331 5.22133,-5.25066 V 9.4117433 c 0,-3.6959957 -1.73067,-5.3093272 -5.632,-5.3093272 h -9.94398 V 24.811726 h 2.78666 v -8.359991 h 4.10666 z M 132.0088,6.5077466 h 6.42399 c 2.66933,0 3.57866,0.8213324 3.57866,3.2853296 v 1.0266658 c 0,2.434664 -0.90933,3.226663 -3.57866,3.226663 h -6.42399 z" />
    <path
       id="path2617"
       style="font-style:normal;font-variant:normal;font-weight:normal;font-stretch:normal;font-size:29.3333px;font-family:Erbaum;-inkscape-font-specification:Erbaum;fill:#ffffff;fill-opacity:1"
       d="M 173.0968,6.5077466 V 4.1024161 H 158.66482 V 24.811726 H 173.0968 V 22.406395 H 161.45148 V 15.33707 H 171.8648 V 12.931739 H 161.45148 V 6.5077466 Z" />
    <path
       id="path2619"
       style="font-style:normal;font-variant:normal;font-weight:normal;font-stretch:normal;font-size:29.3333px;font-family:Erbaum;-inkscape-font-specification:Erbaum;fill:#ffffff;fill-opacity:1"
       d="m 200.59845,4.1024161 h -16.66132 v 2.4053305 h 6.92266 V 24.811726 h 2.78666 V 6.5077466 h 6.952 z" />
    <path
       id="path2621"
       style="font-style:normal;font-variant:normal;font-weight:normal;font-stretch:normal;font-size:29.3333px;font-family:Erbaum;-inkscape-font-specification:Erbaum;fill:#ffffff;fill-opacity:1"
       d="m 226.75351,24.811726 h 3.31466 l -6.74666,-8.359991 c 3.608,-0.117333 5.22133,-1.701331 5.22133,-5.25066 V 9.4117433 c 0,-3.6959957 -1.73067,-5.3093272 -5.63199,-5.3093272 h -9.94399 V 24.811726 h 2.78666 v -8.359991 h 4.10666 z M 215.75352,6.5077466 h 6.42399 c 2.66933,0 3.57867,0.8213324 3.57867,3.2853296 v 1.0266658 c 0,2.434664 -0.90934,3.226663 -3.57867,3.226663 h -6.42399 z" />
    <path
       id="path2623"
       style="font-style:normal;font-variant:normal;font-weight:normal;font-stretch:normal;font-size:29.3333px;font-family:Erbaum;-inkscape-font-specification:Erbaum;fill:#ffffff;fill-opacity:1"
       d="m 252.30586,3.8090831 h -5.01599 c -3.93066,0 -5.63199,1.6133315 -5.63199,5.3093272 V 19.795731 c 0,3.695996 1.70133,5.309328 5.63199,5.309328 h 5.01599 c 3.93067,0 5.632,-1.613332 5.632,-5.309328 V 9.1184103 c 0,-3.6959957 -1.70133,-5.3093272 -5.632,-5.3093272 z m 2.84533,5.6906601 v 9.9146548 c 0,2.434664 -0.88,3.28533 -3.54933,3.28533 h -3.60799 c -2.66933,0 -3.54933,-0.850666 -3.54933,-3.28533 V 9.4997432 c 0,-2.4639972 0.88,-3.2853296 3.54933,-3.2853296 h 3.60799 c 2.66933,0 3.54933,0.8213324 3.54933,3.2853296 z" />
  </g>
</svg>
