<?xml version="1.0" encoding="UTF-8" standalone="no"?>
<svg
   xmlns:dc="http://purl.org/dc/elements/1.1/"
   xmlns:cc="http://creativecommons.org/ns#"
   xmlns:rdf="http://www.w3.org/1999/02/22-rdf-syntax-ns#"
   xmlns:svg="http://www.w3.org/2000/svg"
   xmlns="http://www.w3.org/2000/svg"
   id="svg6416"
   version="1.1"
   viewBox="0 0 144.93871 32.470406"
   height="32.470406mm"
   width="144.93871mm">
  <defs
     id="defs6410">
    <clipPath
       id="clipPath5757"
       clipPathUnits="userSpaceOnUse">
      <path
         id="path5755"
         d="M 0,312 H 631.333 V 0 H 0 Z" />
    </clipPath>
    <clipPath
       id="clipPath5757-4"
       clipPathUnits="userSpaceOnUse">
      <path
         id="path5755-8"
         d="M 0,312 H 631.333 V 0 H 0 Z" />
    </clipPath>
  </defs>
  <metadata
     id="metadata6413">
    <rdf:RDF>
      <cc:Work
         rdf:about="">
        <dc:format>image/svg+xml</dc:format>
        <dc:type
           rdf:resource="http://purl.org/dc/dcmitype/StillImage" />
        <dc:title></dc:title>
      </cc:Work>
    </rdf:RDF>
  </metadata>
  <g
     transform="translate(-31.852073,-95.556467)"
     id="layer1">
    <g
       transform="matrix(0.35277777,0,0,-0.35277777,75.482603,106.89302)"
       id="g5747">
      <path
         id="path5749"
         style="fill:#ea2923;fill-opacity:1;fill-rule:nonzero;stroke:none"
         d="M 0,0 V -3.969 H 8.939 V -9.64 H 0 v -8.539 H -6.672 V 5.671 H 10.34 V 0 Z" />
    </g>
    <g
       id="g5751"
       transform="matrix(0.35277777,0,0,-0.35277777,-6.8300099,166.65611)">
      <g
         clip-path="url(#clipPath5757-4)"
         id="g5753">
        <g
           transform="translate(270.5586,165.0703)"
           id="g5759">
          <path
             id="path5761"
             style="fill:#ea2923;fill-opacity:1;fill-rule:nonzero;stroke:none"
             d="m 0,0 h 4.603 c 1.001,0 1.335,0.335 1.335,1.302 v 1.734 c 0,0.968 -0.334,1.301 -1.335,1.301 H 0 Z M 2.303,-5.669 H 0 v -8.173 h -6.67 v 23.85 H 6.638 c 3.902,0 5.97,-2.034 5.97,-5.871 V 0.2 c 0,-2.668 -1.001,-4.47 -2.935,-5.303 l 5.704,-8.739 H 7.605 Z" />
        </g>
        <g
           transform="translate(312.2939,169.4072)"
           id="g5763">
          <path
             id="path5765"
             style="fill:#ea2923;fill-opacity:1;fill-rule:nonzero;stroke:none"
             d="M 0,0 V -3.168 H 8.939 V -8.839 H 0 v -3.669 h 10.341 v -5.671 H -6.672 V 5.671 H 10.341 V 0 Z" />
        </g>
        <g
           transform="translate(354.4307,169.4072)"
           id="g5767">
          <path
             id="path5769"
             style="fill:#ea2923;fill-opacity:1;fill-rule:nonzero;stroke:none"
             d="M 0,0 V -3.168 H 8.939 V -8.839 H 0 v -3.669 h 10.339 v -5.671 H -6.672 V 5.671 H 10.339 V 0 Z" />
        </g>
        <g
           transform="translate(400.6006,168.1064)"
           id="g5771">
          <path
             id="path5773"
             style="fill:#ea2923;fill-opacity:1;fill-rule:nonzero;stroke:none"
             d="m 0,0 c 0,0.968 -0.333,1.301 -1.334,1.301 h -4.503 v -4.47 h 4.503 c 1.001,0 1.334,0.333 1.334,1.302 z m 6.672,1.101 v -4.07 C 6.672,-6.805 4.604,-8.84 0.7,-8.84 h -6.537 v -8.038 h -6.67 V 6.972 H 0.7 c 3.904,0 5.972,-2.035 5.972,-5.871" />
        </g>
        <g
           transform="translate(442.9375,156.8994)"
           id="g5775">
          <path
             id="path5777"
             style="fill:#ea2923;fill-opacity:1;fill-rule:nonzero;stroke:none"
             d="m 0,0 v -5.671 h -16.678 v 23.85 h 6.67 V 0 Z" />
        </g>
        <g
           transform="translate(473.8291,161.6016)"
           id="g5779">
          <path
             id="path5781"
             style="fill:#ea2923;fill-opacity:1;fill-rule:nonzero;stroke:none"
             d="M 0,0 -2.335,8.174 -4.702,0 Z m 1.636,-5.669 h -7.94 l -1.367,-4.704 h -6.839 l 7.273,23.85 h 9.772 l 7.273,-23.85 H 2.969 Z" />
        </g>
        <g
           transform="translate(512.1279,159.3018)"
           id="g5783">
          <path
             id="path5785"
             style="fill:#ea2923;fill-opacity:1;fill-rule:nonzero;stroke:none"
             d="M 0,0 V -8.073 H -6.704 V 0 l -8.372,15.776 h 7.405 l 4.337,-8.471 4.303,8.471 h 7.403 z" />
        </g>
        <g
           transform="translate(336.7207,137.8252)"
           id="g5787">
          <path
             id="path5789"
             style="fill:#ea2923;fill-opacity:1;fill-rule:nonzero;stroke:none"
             d="M 0,0 H -5.245 V -13.808 H -7.346 V 0 h -5.222 V 1.813 H 0 Z" />
        </g>
        <g
           transform="translate(353.5703,137.8252)"
           id="g5791">
          <path
             id="path5793"
             style="fill:#ea2923;fill-opacity:1;fill-rule:nonzero;stroke:none"
             d="M 0,0 V -4.847 H 7.854 V -6.661 H 0 v -5.333 h 8.783 v -1.814 H -2.103 V 1.813 H 8.783 V 0 Z" />
        </g>
        <g
           transform="translate(377.167,127.8008)"
           id="g5795">
          <path
             id="path5797"
             style="fill:#ea2923;fill-opacity:1;fill-rule:nonzero;stroke:none"
             d="m 0,0 v 8.054 c 0,2.789 1.283,4.005 4.249,4.005 h 3.784 c 2.965,0 4.248,-1.216 4.248,-3.96 V 7.923 L 10.18,7.656 v 0.155 c 0,1.815 -0.663,2.434 -2.677,2.434 H 4.781 C 2.767,10.245 2.104,9.626 2.104,7.768 V 0.287 c 0,-1.836 0.663,-2.478 2.677,-2.478 h 2.722 c 2.014,0 2.677,0.642 2.677,2.435 v 0.153 l 2.101,-0.263 v -0.179 c 0,-2.744 -1.283,-3.96 -4.248,-3.96 H 4.249 C 1.283,-4.005 0,-2.789 0,0" />
        </g>
        <g
           transform="translate(417.251,139.6387)"
           id="g5799">
          <path
             id="path5801"
             style="fill:#ea2923;fill-opacity:1;fill-rule:nonzero;stroke:none"
             d="m 0,0 v -15.621 h -2.102 v 7.058 h -7.877 v -7.058 h -2.102 V 0 h 2.102 v -6.727 h 7.877 V 0 Z" />
        </g>
        <g
           transform="translate(110.0146,137.0342)"
           id="g5803">
          <path
             id="path5805"
             style="fill:#ea2923;fill-opacity:1;fill-rule:nonzero;stroke:none"
             d="M 0,0 37.647,-27.534 V 0.219 Z" />
        </g>
        <g
           transform="translate(185.2607,173.5713)"
           id="g5807">
          <path
             id="path5809"
             style="fill:#ea2923;fill-opacity:1;fill-rule:nonzero;stroke:none"
             d="M 0,0 V 27.942 L -75.246,27.971 -38.023,0 Z" />
        </g>
        <g
           transform="translate(162.959,159.2373)"
           id="g5811">
          <path
             id="path5813"
             style="fill:#ea2923;fill-opacity:1;fill-rule:nonzero;stroke:none"
             d="M 0,0 H -53.309 V -5.556 H 7.596 Z" />
        </g>
        <g
           transform="translate(178.1387,148.1348)"
           id="g5815">
          <path
             id="path5817"
             style="fill:#ea2923;fill-opacity:1;fill-rule:nonzero;stroke:none"
             d="M 0,0 H -68.488 V -5.66 L 7.34,-5.369 Z" />
        </g>
        <g
           transform="translate(155.375,164.7842)"
           id="g5819">
          <path
             id="path5821"
             style="fill:#ea2923;fill-opacity:1;fill-rule:nonzero;stroke:none"
             d="M 0,0 -7.701,5.633 H -45.725 V 0 Z" />
        </g>
      </g>
    </g>
  </g>
</svg>
