<svg xmlns="http://www.w3.org/2000/svg" width="566.93" height="72.71">
  <path d="M122.88 3.13c2.8-3.58 8.6-4.2 12.05-1.19a9.36 9.36 0 0 1 2.9 4.58c6.36 21.92 12.76 43.82 19.12 65.74h-11.28c-1.77-6.04-3.5-12.1-5.25-18.14-7.27-.02-14.53 0-21.8-.01-1.78 6.04-3.54 12.1-5.29 18.15h-11.21c6.05-20.9 12.1-41.82 18.19-62.71.72-2.19 1-4.63 2.57-6.42m6.63 13.43c-2.66 9.08-5.27 18.18-7.92 27.26 5.28.02 10.56.01 15.84.01l-7.92-27.27zM202.06 3.6a8.61 8.61 0 0 1 9.08-3.34c3.05.7 5.39 3.33 6.2 6.3l19.1 65.69c-3.76.02-7.52 0-11.29.01-1.75-6.05-3.48-12.1-5.24-18.15h-21.77c-1.73 6.06-3.52 12.1-5.25 18.15h-11.2c6.04-21.02 12.16-42.02 18.26-63.03.63-1.9.88-3.99 2.11-5.63m-.91 40.23h15.77c-2.61-9.1-5.27-18.2-7.88-27.3-2.63 9.1-5.28 18.2-7.9 27.3zM148.53.15h40.8v11H174.3v61.1h-10.76v-61.1h-15.02v-11zM248.4.6a9.21 9.21 0 0 1 3.22-.45h12.87a19.94 19.94 0 0 1 17.23 11.11c2.16 4.22 2.39 9.13 1.84 13.76-.37 4.85-2.4 9.7-6.13 12.9-1.97 1.76-4.42 2.82-6.53 4.38-1.15.88-1.21 2.6-.61 3.82 5.69 8.78 11.6 17.43 17.41 26.14-4.25 0-8.5-.01-12.74 0-5.57-8.35-11.07-16.75-16.6-25.11a9.3 9.3 0 0 1-1.1-8.25 7.8 7.8 0 0 1 4.6-4.4c3.88-1.48 7.7-3.8 9.84-7.45 1.63-2.75 1.55-6.14.82-9.15a8.9 8.9 0 0 0-8.69-6.83c-2.77.02-5.55-.02-8.33.01-1.25-.03-2.43 1.06-2.42 2.33v58.85h-10.84V8.9A9.04 9.04 0 0 1 248.4.6zM293.38.15h11.4v72.11h-11.4V.16zM32.15 0h5.48v12.88c.03 3.59-.08 7.17-.22 10.75a130.6 130.6 0 0 1-1.43 15.46 39.33 39.33 0 0 1-3.32 10.15c-2.47 5.2-6.34 9.6-10.7 13.3a40.06 40.06 0 0 1-13.44 7.62A46 46 0 0 1 0 72.26v-10.8a31.7 31.7 0 0 0 9.97-3.41 35.96 35.96 0 0 0 9.83-7.69c2.9-3.2 5.2-6.9 6.95-10.84 2.06-4.53 3.17-9.42 3.92-14.32.94-6.22 1.33-12.51 1.48-18.8.02-2.13 0-4.27 0-6.4zM39.84.01c3.36-.02 6.72 0 10.08 0v72.25c-3.35 0-6.7-.02-10.06 0-.04-7.67 0-15.35-.02-23.03V0zM52.17 0h5.44c-.05 7.35.2 14.7 1.07 22 .72 5.67 1.73 11.38 3.98 16.65a40.41 40.41 0 0 0 9.25 13.69 35.41 35.41 0 0 0 13.54 8.1c1.4.44 2.85.8 4.32 1v10.8c-2.88-.38-5.7-1.12-8.46-2.06a43.08 43.08 0 0 1-9.34-4.5c-2.13-1.37-4.06-3-5.9-4.7a40.27 40.27 0 0 1-7.86-9.65 42.3 42.3 0 0 1-3.7-9A60.14 60.14 0 0 1 53 32.77c-.63-6.95-.87-13.94-.83-20.91V0z"/>
  <path d="M32.15 0c0 2.14.02 4.27 0 6.4-.15 6.29-.54 12.58-1.48 18.8-.75 4.9-1.86 9.79-3.92 14.32a40.94 40.94 0 0 1-6.95 10.84 35.93 35.93 0 0 1-9.83 7.7A31.63 31.63 0 0 1 0 61.45v10.8c2.9-.41 5.75-1.15 8.52-2.1a40.07 40.07 0 0 0 13.44-7.62c4.36-3.7 8.23-8.1 10.7-13.3a39.35 39.35 0 0 0 3.32-10.14c.86-5.12 1.18-10.3 1.43-15.47.14-3.58.25-7.16.23-10.74V0h-5.49M39.84.01v49.22c.02 7.68-.02 15.36.02 23.04 3.36-.03 6.71 0 10.06-.01V0C46.56 0 43.2 0 39.84.01M52.17 0v11.85c-.05 6.97.19 13.96.82 20.9.33 3.22.69 6.46 1.53 9.58a42.3 42.3 0 0 0 3.7 9 40.25 40.25 0 0 0 7.84 9.64 43.9 43.9 0 0 0 5.91 4.7c2.9 1.9 6.07 3.37 9.35 4.5 2.75.94 5.57 1.68 8.45 2.07v-10.8c-1.47-.2-2.9-.56-4.32-1.01a35.41 35.41 0 0 1-13.54-8.1 40.37 40.37 0 0 1-9.24-13.68C60.4 33.37 59.4 27.66 58.68 22c-.87-7.3-1.12-14.66-1.06-22h-5.45M437.87 34.49c5.29-3.11 8.58-8.38 8.58-14.23 0-13.82-14.6-20.1-28.15-20.1-13.56 0-28.14 6.29-28.14 20.1 0 5.85 3.29 11.12 8.57 14.23-7.5 3.48-11.71 9.4-11.71 16.78 0 13.91 15.73 21.2 31.28 21.2s31.28-7.29 31.28-21.2c0-7.38-4.2-13.3-11.7-16.78zm-19.57-8.76c-3.45 0-6.27-2.23-6.27-4.97s2.82-4.98 6.27-4.98c3.46 0 6.27 2.23 6.27 4.98s-2.8 4.97-6.27 4.97zm0 17.73c3.85 0 6.98 2.56 6.98 5.72 0 3.07-3.13 5.56-6.98 5.56-3.85 0-6.98-2.49-6.98-5.56 0-3.16 3.13-5.72 6.98-5.72z"/>
  <path d="M498.23 11.92C492.46 4.22 483.98.15 473.7.15c-10.27 0-18.75 4.07-24.52 11.77-4.86 6.48-7.53 15.18-7.53 24.51 0 18.06 9.9 36.28 32.06 36.28 22.14 0 32.06-18.22 32.06-36.28 0-9.33-2.68-18.03-7.54-24.5zM473.7 51.23c-7.72 0-8.56-10.04-8.56-14.88 0-4.8.85-14.72 8.56-14.72 7.73 0 8.57 9.92 8.57 14.72 0 4.84-.84 14.88-8.57 14.88z"/>
  <path d="M559.4 11.92C553.62 4.22 545.14.15 534.87.15s-18.76 4.07-24.53 11.77c-4.85 6.48-7.53 15.18-7.53 24.51 0 18.06 9.91 36.28 32.06 36.28 22.15 0 32.06-18.22 32.06-36.28 0-9.33-2.68-18.03-7.53-24.5zm-24.53 39.31c-7.72 0-8.57-10.04-8.57-14.88 0-4.8.85-14.72 8.57-14.72 7.72 0 8.57 9.92 8.57 14.72 0 4.84-.85 14.88-8.57 14.88zM336.52 1.17v22.01h30.14l-22.49 49.2h25.47l30.24-71.21z"/>
  <path d="M40.12 36.08V.03h9.83v72.09h-9.83zM.33 66.8v-5.28l2.46-.57c3.53-.81 9.5-3.85 12.74-6.47A40.38 40.38 0 0 0 25.8 41.56c4.04-8.11 5.77-17.01 6.22-32.05L32.3.03h5.01v12.52c0 27.66-2.25 36.41-11.89 46.4a43.09 43.09 0 0 1-11.75 8.85 61.67 61.67 0 0 1-11.82 4.01l-1.52.29zM85.12 71.17c-8-2.1-13.95-5.5-19.97-11.44C54.8 49.5 52.31 39.99 52.3 10.44V.03h5.14V4.4c0 5.72.75 15.2 1.69 21.37 2.25 14.8 9.02 25.6 20.1 32.1 2.15 1.26 8.31 3.48 9.66 3.48.78 0 .85.48.85 5.38 0 4-.15 5.38-.58 5.36-.32-.02-2.14-.44-4.04-.93zM102.52 71.52c.12-.33 4.49-15.34 9.7-33.36 5.31-18.4 9.9-33.4 10.44-34.22 3.35-5.05 11.34-4.64 14.1.7.35.69 4.9 15.88 10.11 33.78 5.21 17.9 9.58 32.8 9.7 33.13.18.48-.95.58-5.27.47l-5.5-.13-2.6-9.01-2.6-9.01h-22.15l-2 6.9-2.68 9.13-.65 2.22h-5.42c-4.23 0-5.37-.13-5.18-.6zm34.82-28.54c-1.06-4.24-7.62-26.56-7.8-26.56-.23 0-8.01 26.59-7.98 27.26.01.2 3.62.35 8.03.35h8.01zM163.71 41.46V10.8h-14.98V.5H189v10.3h-14.98v61.32h-10.3zM182.09 71.54c.12-.32 4.48-15.33 9.69-33.36C197.32 19 201.67 4.8 202.25 3.92c2.17-3.23 7.12-4.56 10.48-2.8 3.27 1.71 3.4 2.08 13.68 37.4l9.7 33.37-4.92.13c-2.7.08-5.16.04-5.46-.07-.3-.12-1.68-4.23-3.07-9.15l-2.54-8.93h-11.08c-10.16 0-11.11.06-11.33.82l-1.7 5.96c-.8 2.84-1.88 6.58-2.39 8.31l-.92 3.16h-5.42c-4.13 0-5.36-.13-5.2-.58zm35-27.77c0-.67-7.65-26.7-7.94-27.01-.29-.32-7.99 25.5-7.99 26.78 0 .33 2.64.5 7.96.5 4.38 0 7.96-.13 7.96-.27zM242.37 39.94c.01-30.12.07-32.3.86-34.06 1.08-2.38 3.8-4.78 5.83-5.16.86-.16 5.66-.23 10.66-.14l9.1.15 3.14 1.5c8.1 3.83 12.06 11.06 11.47 20.97-.48 8.03-3.05 12.61-9.44 16.83-4 2.63-4.75 3.69-4 5.67.23.6 4.22 6.8 8.87 13.76l8.45 12.66h-12.19l-8.64-13.1c-4.75-7.22-8.88-13.94-9.18-14.94a7.83 7.83 0 0 1 .97-6.48c.68-1.1 2-2.04 4.8-3.38a34.47 34.47 0 0 0 5.63-3.3c6.65-5.55 5.75-16.32-1.63-19.4-2.35-.98-11.95-1.02-13.27-.06-.88.64-.9 1.59-1.03 30.66l-.13 30h-10.28zM293.39 36.31V.5h11.24v71.62h-11.24zM469.18 72.26a35.3 35.3 0 0 1-10.12-3.2c-3.38-1.7-8.63-6.27-10.28-8.93l-1-1.6-1.43 2.16c-2.8 4.22-9.66 8.4-16.96 10.32-5 1.31-17.82 1.2-22.88-.2-13.37-3.7-20.57-12.16-18.96-22.26.83-5.18 3.86-9.46 8.88-12.55l2.37-1.45-2.35-2.05a16.99 16.99 0 0 1-5.2-7.51l-.81-2.13-7.14 16.79-10.48 24.63-3.33 7.84h-12.3c-6.77 0-12.3-.17-12.3-.38 0-.2 4.86-11 10.8-24a7270.7 7270.7 0 0 0 11.06-24.19c.19-.46-2.95-.58-14.8-.58h-15.02V1.43h31.13c17.56 0 31.13.18 31.13.41 0 .23-.31 1.17-.7 2.1-.39.92-.7 1.78-.7 1.92 0 .13 1.31-.48 2.92-1.37C405.98 1.61 410.1.73 418.4.74c5.51 0 7.98.21 10.3.85 4.53 1.25 9.47 3.86 12.1 6.37 2.22 2.13 4.75 6.24 4.75 7.7 0 1.49.9 1.13 2.03-.8C452.98 5.64 462.29.5 473.63.5c14.31 0 24.94 7.84 29.7 21.93l1 2.96.86-2.73c2.66-8.5 8.48-15.63 15.56-19.1 8.58-4.2 20.5-4.07 28.86.3 4.32 2.26 9.96 8.1 12.36 12.79 6.21 12.13 6.24 27.69.08 39.66-6.97 13.53-22.72 19.46-38.19 14.37-8.15-2.68-14.95-9.83-18.27-19.21l-1.26-3.57-1.47 3.89c-2.74 7.28-6.66 12.38-12.33 16.05-5.67 3.66-14.13 5.42-21.35 4.42zm-47.35-18.1c5.43-2.27 4.44-9.15-1.52-10.58-2.91-.7-5.57-.04-7.46 1.85-1.76 1.76-2.1 3.54-1.1 5.62 1.62 3.36 6.14 4.75 10.08 3.1zm55.77-3.76c5.12-3.35 6.64-17.71 2.64-24.82-3.38-6-11.1-5.28-13.81 1.28-1.22 2.95-1.76 8.92-1.22 13.42.66 5.49 2.3 8.76 5.14 10.22 2.4 1.24 5.28 1.2 7.25-.1zm60.47.22c3.66-1.66 5.39-6.25 5.41-14.34.03-9.53-2.98-14.72-8.55-14.72-2.98 0-4.99 1.2-6.53 3.9-3.36 5.9-2.91 18.87.8 23.3 2.33 2.76 5.45 3.42 8.87 1.86zm-96.12-16.76l.3-2.91-1.99 1.5c-1.09.84-2 1.73-2.03 1.99-.05.35 3.12 2.58 3.38 2.38.03-.02.18-1.35.34-2.96zm-18.93-9.68c1.76-1.69 2.1-3.13 1.24-5.2-.52-1.26-1.23-1.9-2.87-2.63-3.01-1.34-5.88-.9-8 1.23-2.37 2.36-1.95 5.28 1.05 7.31 2.13 1.45 6.73 1.07 8.58-.7z" fill="#fff"/>
</svg>
