<?xml version="1.0" encoding="UTF-8"?>
<!-- Created with Inkscape (http://www.inkscape.org/) -->
<svg width="1080" height="360" version="1.1" viewBox="0 0 285.75 95.25" xmlns="http://www.w3.org/2000/svg" xmlns:cc="http://creativecommons.org/ns#" xmlns:dc="http://purl.org/dc/elements/1.1/" xmlns:osb="http://www.openswatchbook.org/uri/2009/osb" xmlns:rdf="http://www.w3.org/1999/02/22-rdf-syntax-ns#">
 <defs>
  <clipPath id="clipPath7183">
   <path d="m0 452h610v-452h-610z"/>
  </clipPath>
 </defs>
 <metadata>
  <rdf:RDF>
   <cc:Work rdf:about="">
    <dc:format>image/svg+xml</dc:format>
    <dc:type rdf:resource="http://purl.org/dc/dcmitype/StillImage"/>
    <dc:title/>
    <cc:license rdf:resource="http://creativecommons.org/licenses/by-nc-sa/4.0/"/>
   </cc:Work>
   <cc:License rdf:about="http://creativecommons.org/licenses/by-nc-sa/4.0/">
    <cc:permits rdf:resource="http://creativecommons.org/ns#Reproduction"/>
    <cc:permits rdf:resource="http://creativecommons.org/ns#Distribution"/>
    <cc:requires rdf:resource="http://creativecommons.org/ns#Notice"/>
    <cc:requires rdf:resource="http://creativecommons.org/ns#Attribution"/>
    <cc:prohibits rdf:resource="http://creativecommons.org/ns#CommercialUse"/>
    <cc:permits rdf:resource="http://creativecommons.org/ns#DerivativeWorks"/>
    <cc:requires rdf:resource="http://creativecommons.org/ns#ShareAlike"/>
   </cc:License>
  </rdf:RDF>
 </metadata>
 <g display="none">
  <rect x="-3.5908" y="-3.7798" width="292.93" height="102.81" rx="5.2917" ry="5.2917" stroke="#fff" stroke-width="1.323"/>
 </g>
 <g display="none">
  <g transform="matrix(.2672 0 0 -.2672 61.687 109.51)" fill="#fff">
   <g transform="translate(125.8 179.11)">
    <path d="m0 0v-5.039h11.349v-7.199h-11.349v-10.84h-8.47v30.277h21.597v-7.199z" fill="#fff"/>
   </g>
   <g clip-path="url(#clipPath7183)" fill="#fff">
    <g transform="translate(173.07 173.6)">
     <path d="m0 0h5.843c1.27 0 1.695 0.425 1.695 1.652v2.202c0 1.229-0.425 1.652-1.695 1.652h-5.843zm2.923-7.197h-2.923v-10.375h-8.468v30.277h16.894c4.954 0 7.58-2.583 7.58-7.453v-4.998c0-3.387-1.271-5.674-3.727-6.733l7.242-11.093h-9.866z" fill="#fff"/>
    </g>
    <g transform="translate(226.05 179.11)">
     <path d="m0 0v-4.022h11.349v-7.2h-11.349v-4.658h13.128v-7.198h-21.597v30.277h21.597v-7.199z" fill="#fff"/>
    </g>
    <g transform="translate(279.54 179.11)">
     <path d="m0 0v-4.022h11.349v-7.2h-11.349v-4.658h13.126v-7.198h-21.596v30.277h21.596v-7.199z" fill="#fff"/>
    </g>
    <g transform="translate(338.15 177.45)">
     <path d="m0 0c0 1.229-0.423 1.652-1.694 1.652h-5.716v-5.674h5.716c1.271 0 1.694 0.422 1.694 1.652zm8.47 1.398v-5.166c0-4.87-2.625-7.453-7.581-7.453h-8.299v-10.205h-8.468v30.278h16.767c4.956 0 7.581-2.583 7.581-7.454" fill="#fff"/>
    </g>
    <g transform="translate(391.9 163.23)">
     <path d="m0 0v-7.198h-21.173v30.277h8.468v-23.079z" fill="#fff"/>
    </g>
    <g transform="translate(431.12 169.2)">
     <path d="m0 0-2.964 10.376-3.006-10.376zm2.077-7.197h-10.08l-1.735-5.972h-8.682l9.232 30.277h12.407l9.231-30.277h-8.681z" fill="#fff"/>
    </g>
    <g transform="translate(479.74 166.28)">
     <path d="m0 0v-10.248h-8.511v10.248l-10.628 20.029h9.401l5.506-10.755 5.461 10.755h9.399z" fill="#fff"/>
    </g>
    <g transform="translate(257.06 139.01)">
     <path d="m0 0h-6.658v-17.529h-2.667v17.529h-6.63v2.303h15.955z" fill="#fff"/>
    </g>
    <g transform="translate(278.45 139.01)">
     <path d="m0 0v-6.152h9.972v-2.304h-9.972v-6.771h11.151v-2.302h-13.82v19.832h13.82v-2.303z" fill="#fff"/>
    </g>
    <g transform="translate(308.4 126.29)">
     <path d="m0 0v10.225c0 3.54 1.629 5.084 5.394 5.084h4.803c3.764 0 5.394-1.544 5.394-5.028v-0.223l-2.669-0.338v0.195c0 2.305-0.842 3.091-3.399 3.091h-3.455c-2.556 0-3.398-0.786-3.398-3.146v-9.496c0-2.331 0.842-3.146 3.398-3.146h3.455c2.557 0 3.399 0.815 3.399 3.092v0.195l2.669-0.336v-0.226c0-3.483-1.63-5.027-5.394-5.027h-4.803c-3.765 0-5.394 1.544-5.394 5.084" fill="#fff"/>
    </g>
    <g transform="translate(359.29 141.32)">
     <path d="m0 0v-19.832h-2.668v8.961h-10v-8.961h-2.669v19.832h2.669v-8.54h10v8.54z" fill="#fff"/>
    </g>
    <g transform="translate(253.61 260.01)">
     <path d="m0 0 47.872-35.013v35.291z" fill="#fff"/>
    </g>
    <g transform="translate(349.3 306.47)">
     <path d="m0 0v35.533l-95.684 0.035 47.333-35.568z" fill="#fff"/>
    </g>
    <g transform="translate(320.94 288.25)">
     <path d="m0 0h-67.787v-7.065h77.447z" fill="#fff"/>
    </g>
    <g transform="translate(340.24 274.13)">
     <path d="m0 0h-87.09v-7.198l96.425 0.37z" fill="#fff"/>
    </g>
    <g transform="translate(311.29 295.3)">
     <path d="m0 0-9.793 7.162h-48.352v-7.162z" fill="#fff"/>
    </g>
   </g>
  </g>
 </g>
 <g display="none" fill="#fff">
  <path d="m58.3 27.947c-0.29316 0-0.52917 0.23601-0.52917 0.52917v11.298h-11.297c-0.29316 0-0.52917 0.23601-0.52917 0.52916v9.0976c0 0.29316 0.23601 0.52917 0.52917 0.52917h11.297v11.298c0 0.29316 0.23601 0.52917 0.52917 0.52917h9.0982c0.29316 0 0.52917-0.23601 0.52917-0.52917v-11.298h11.298c0.29315 0 0.52914-0.23601 0.52914-0.52917v-9.0976c0-0.29316-0.23599-0.52916-0.52914-0.52916h-11.298v-11.298c0-0.29316-0.23601-0.52917-0.52917-0.52917z" display="inline"/>
  <path d="m62.731 26.143a18.709 18.709 0 0 0-7.2762 1.5227 18.709 18.709 0 0 0-9.7914 24.58 18.709 18.709 0 0 0 24.58 9.7914 18.709 18.709 0 0 0 9.7915-24.58 18.709 18.709 0 0 0-17.304-11.314zm0.014 2.2452a16.464 16.464 0 0 1 15.228 9.9564 16.464 16.464 0 0 1-8.6165 21.63 16.464 16.464 0 0 1-21.63-8.6165 16.464 16.464 0 0 1 8.6165-21.63 16.464 16.464 0 0 1 6.4027-1.3399z" display="inline"/>
  <rect x="96.384" y="51.328" width="14.818" height="5.2594" rx="2.6458" ry="2.6458" display="inline"/>
  <rect x="96.384" y="32.563" width="14.818" height="5.2594" rx="2.6458" ry="2.6458" display="inline"/>
  <rect x="172.46" y="43.514" width="14.818" height="5.2594" rx="2.6458" ry="2.6458" display="inline"/>
  <rect x="172.46" y="24.749" width="14.818" height="5.2594" rx="2.6458" ry="2.6458" display="inline"/>
  <rect x="172.46" y="61.724" width="14.818" height="5.2594" rx="2.6458" ry="2.6458" display="inline"/>
  <circle cx="208.6" cy="21.452" r="9.1979" display="inline"/>
  <circle cx="232.41" cy="17.672" r="9.1979" display="inline"/>
  <circle cx="208.22" cy="73.798" r="9.1979" display="inline"/>
  <circle cx="232.03" cy="77.578" r="9.1979" display="inline"/>
 </g>
 <g display="none">
  <g fill="#fff" aria-label="Ì">
   <path d="m176.78 77.175h-67.803v-50.893l5.444-8.2073h16.868l4.9904 8.2073h40.5zm-2.3096-3.7943v-1.0311h-63.101v-3.5056h63.101v-1.0311h-63.101v-38.479h63.101v-1.0311h-64.132v45.078z" fill="#fff" stroke-width=".31674"/>
  </g>
 </g>
 <g display="none">
  <g fill="#fff" aria-label="¾">
   <path d="m142.88 77.087q12.223 0 20.823-8.5999 8.6397-8.6397 8.6397-20.863t-8.6397-20.823q-8.5999-8.6397-20.823-8.6397-12.223 0-20.863 8.6397-8.5998 8.5999-8.5998 20.823 0 12.183 8.5998 20.823 8.6397 8.6397 20.863 8.6397zm0-1.9509q-11.387 0-19.469-8.0425-8.0425-8.0823-8.0425-19.469t8.0425-19.429q8.0823-8.0823 19.469-8.0823t19.429 8.0823q8.0823 8.0425 8.0823 19.429t-8.0823 19.469q-8.0424 8.0425-19.429 8.0425zm0-53.072-3.424 6.8878h1.9509v17.797l-8.56 4.9768-0.99536-1.712-4.2203 6.4101 7.6443-0.47777-0.95554-1.6722 7.0869-4.1009v1.8713h2.9462v-3.5833l3.0657-1.7518-1.4731-2.5481-1.5926 0.95554v-16.165h1.9509zm22.415 26.914h2.7074v-2.7074h-2.7074zm-44.791 0v-2.7074h-2.7074v2.7074zm23.729 20.982h-2.7074v2.7074h2.7074zm18.713-32.369 2.349-1.3537-1.3537-2.349-2.349 1.3537zm-38.739 22.376-1.3537-2.349-2.349 1.3537 1.3537 2.349zm8.6397-32.449-1.3537-2.3092-2.349 1.3537 1.3537 2.349zm22.376 38.779-2.349 1.3537 1.3537 2.349 2.349-1.3537zm0.0398-37.425 1.3537-2.3092-2.349-1.3537-1.3537 2.3092zm-22.415 38.779-2.3092-1.3537-1.3537 2.349 2.3092 1.3537zm-8.7193-32.409-2.3092-1.3537-1.3537 2.349 2.3092 1.3537zm38.779 22.376-1.3537 2.349 2.349 1.3537 1.3537-2.349z" fill="#fff" stroke-width=".30577"/>
  </g>
 </g>
 <g display="none">
  <g fill="#fff" aria-label="ª">
   <path d="m181.49 63.422q0 6.2654-2.1773 10.131-1.9552 3.5104-4.5324 3.5104h-58.21q-7.4651 0-9.909-2.6661-2.3995-2.7105-2.3995-10.62v-45.591h70.519v5.7321h6.7097zm-8.0428 12.309v-56.211h-67.853v44.257q0 7.4207 2.044 9.6869t8.9315 2.2662zm-9.1537-43.502h-23.595v-2.2218h23.595zm-14.219-6.3098h-9.3758v-2.2218h9.3758zm14.219 12.62h-23.595v-2.2218h23.595zm0 24.573h-23.595v-2.2218h23.595zm-9.7758-13.331h-13.819v-2.2218h13.819zm-19.774-17.552h-24.928v-2.2218h24.928zm-14.219-6.3098h-10.709v-2.2218h10.709zm14.219 12.62h-24.928v-2.2218h24.928zm35.237 16.663q0 6.8875-3.8659 11.598-4.1769 5.0212-10.887 5.0212-7.243 0-13.73-4.2658-7.1096-4.6657-7.9539-11.464h-23.728v-2.2218h23.684q0.31104-6.1765 6.3987-9.9979 5.3322-3.3771 11.953-3.3771 9.9535 0 16.93 5.1989l-1.2886 1.2442q-6.6653-4.9767-16.485-4.9767-6.4876 0-10.842 2.5772-5.2434 3.1105-5.2434 9.1981 0 5.821 6.2209 11.242 6.2654 5.3767 14.975 5.3767 12.397 0 12.397-14.308 0-8.6649-8.6204-9.9979l1.3775-1.4219q8.7093 1.3775 8.7093 10.576zm-40.569-5.4211h-19.596v-2.2218h19.596zm1.333 10.398v2.2218h-20.929v-2.2218zm9.9535-6.3098v2.2218h23.595v-2.2218z" fill="#fff"/>
  </g>
 </g>
 <g fill="#fff" stroke="#fff" stroke-width=".79375">
  <path d="m110.72 78.594c-1.0477-0.14926-2.0657-0.4124-3.0681-0.71831l-0.11924-0.03619-9e-3 -0.12397c-0.059-0.73311-0.0863-1.4742-0.0863-2.2123 0-1.076 0.0588-2.1473 0.16673-3.1796-0.60134-0.26089-1.1766-0.57625-1.7493-0.8982-0.53575-0.35114-1.1003-0.68439-1.6136-1.1091-1.547 0.9646-3.1997 1.7563-4.9694 2.3881l-0.10711 0.03845-0.0812-0.07915c-0.7586-0.7364-1.4323-1.5554-2.0597-2.393l-0.0752-0.10074 0.0666-0.10546c0.98352-1.568 2.0215-2.9797 3.24-4.3111-0.32894-0.56042-0.6297-1.1371-0.87662-1.745-0.30035-0.60565-0.46071-1.2458-0.67061-1.8466-1.7676-0.13754-3.6339-0.45475-5.4268-0.98577l-0.11061-0.03269-0.0177-0.11389c-0.16118-1.0287-0.25554-2.0645-0.25554-3.1086 0-0.01768 0-0.03454 4.1e-4 -0.04995l7.8e-4 -0.12047 0.11101-0.04646c1.6578-0.69446 3.438-1.2177 5.153-1.5795 0.0462-0.66589 0.21402-1.2985 0.30509-1.922l2e-3 -0.01398 4e-3 -0.01337c0.18852-0.60318 0.31063-1.2477 0.55795-1.8704-1.3721-1.1595-2.6831-2.5028-3.8099-3.9801l-0.0677-0.08861 0.0477-0.10012c0.45805-0.9646 1.052-1.8408 1.6282-2.7139l0.0709-0.10752 0.12499 0.03125c1.7945 0.4457 3.5071 1.037 5.109 1.752 0.449-0.45167 0.86983-0.95946 1.3932-1.3661 0.48826-0.44468 1.0131-0.83775 1.5554-1.2035-0.44776-1.7789-0.66836-3.5607-0.74792-5.4718l-5e-3 -0.12129 0.11018-0.0516c0.94364-0.44077 1.8967-0.89758 2.9168-1.2064l0.11348-0.03433 0.0779 0.09025c1.1784 1.3768 2.2162 2.8568 3.1021 4.4065 0.6447-0.16015 1.2962-0.21689 1.9405-0.30324 0.4971-0.03187 1.0008-0.06003 1.5061-0.06003 0.1511 0 0.30241 0.0026 0.45393 0.0084 0.68007-1.6469 1.5626-3.3296 2.6156-4.8495l0.0642-0.09292 0.11142 0.01645c1.0477 0.14925 2.0653 0.4124 3.0682 0.71831l0.11882 0.03619 0.01 0.12397c0.0582 0.73208 0.0857 1.4726 0.0857 2.2106 0 1.0771-0.0586 2.1488-0.16591 3.1814 0.60174 0.26089 1.1772 0.57625 1.7491 0.89799 0.53575 0.35134 1.1005 0.68459 1.6136 1.1093 1.5472-0.96522 3.1999-1.7561 4.9696-2.3887l0.1067-0.03824 0.0816 0.07915c0.7586 0.73702 1.4317 1.5561 2.0598 2.3934l0.0752 0.10012-0.0666 0.10629c-0.98393 1.5678-2.0215 2.9791-3.2398 4.3103 0.3275 0.55878 0.62786 1.1348 0.87394 1.7405 0.30262 0.6073 0.46277 1.2495 0.67308 1.8517 1.7678 0.13754 3.6335 0.45475 5.4266 0.98578l0.11061 0.03248 0.0176 0.1141c0.15953 1.0261 0.25513 2.0604 0.25513 3.1035v0.05386 0.12088l-0.11225 0.04708c-1.658 0.69487-3.438 1.2181-5.1526 1.5799-0.0467 0.66568-0.21422 1.2981-0.30509 1.9214l-2e-3 0.01378-5e-3 0.01357c-0.18811 0.6038-0.31023 1.2485-0.55754 1.8712 1.3716 1.1595 2.6829 2.5028 3.8095 3.9797l0.0676 0.0882-0.0477 0.10074c-0.45804 0.9646-1.0516 1.8406-1.6282 2.7133l-0.0709 0.10752-0.125-0.03104c-1.7941-0.4453-3.5068-1.0366-5.1083-1.7518-0.44899 0.45105-0.86962 0.95946-1.3932 1.3663-0.48846 0.44447-1.0135 0.83755-1.5556 1.2035 0.44776 1.7785 0.66835 3.5607 0.74792 5.4722l5e-3 0.12088-0.10978 0.0516c-0.94363 0.44098-1.8967 0.89758-2.9168 1.2064l-0.11389 0.03393-0.0776-0.09005c-1.1784-1.3764-2.2166-2.8566-3.1025-4.4063-0.6445 0.16036-1.2954 0.21668-1.9282 0.3018l-6e-3 6.17e-4 -6e-3 8.54e-4c-0.49689 0.03084-0.99996 0.05982-1.5053 0.05982-0.1511 0-0.30241-0.0025-0.45393-0.0082-0.68048 1.6469-1.5626 3.3296-2.6156 4.8491l-0.0641 0.09293zm-0.0602-0.37766c1.0322-1.5057 1.8988-3.1761 2.5626-4.8049l0.0485-0.12006 0.12952 7e-3c0.18708 0.0095 0.37539 0.01295 0.56474 0.01295 0.48764 0 0.97898-0.02755 1.4703-0.05818 0.68953-0.09148 1.3714-0.15028 2.0172-0.32708l0.13712-0.03803 0.0697 0.12397c0.87044 1.5394 1.8922 3.0108 3.0538 4.3793 0.90497-0.28514 1.7721-0.69261 2.6442-1.1007-0.0853-1.8912-0.31146-3.6471-0.76334-5.4007l-0.0322-0.12582 0.10793-0.07154c0.57029-0.37889 1.1169-0.78369 1.6305-1.2502 0.52465-0.40664 0.95863-0.94199 1.46-1.4352l0.089-0.08737 0.1141 0.0516c1.5766 0.71235 3.2661 1.3032 5.0362 1.7503 0.5341-0.80671 1.0666-1.606 1.4835-2.4613-1.1212-1.4545-2.4257-2.7793-3.7881-3.919l-0.10403-0.08737 0.0539-0.12417c0.26088-0.60565 0.38649-1.2781 0.59187-1.9461 0.103-0.69158 0.28124-1.3534 0.30776-2.0129l6e-3 -0.14226 0.13939-0.02899c1.6981-0.35011 3.4659-0.8616 5.111-1.5409-4e-3 -0.95926-0.0896-1.9142-0.23272-2.865-1.7709-0.51458-3.6154-0.82048-5.3579-0.94856l-0.1178-0.0086-0.0401-0.11102c-0.23951-0.66157-0.39904-1.3312-0.69713-1.9249l-3e-3 -6e-3 -3e-3 -7e-3c-0.25451-0.6297-0.57296-1.2308-0.92328-1.8192l-0.0697-0.11739 0.0925-0.09971c1.2131-1.3114 2.2446-2.7008 3.2242-4.2504-0.57667-0.76292-1.1885-1.5028-1.8657-2.1708-1.7485 0.6332-3.3784 1.4231-4.9038 2.3858l-0.1145 0.07216-0.10239-0.08861c-0.50615-0.43872-1.0956-0.78615-1.6675-1.1607-0.59864-0.33631-1.202-0.66566-1.8258-0.92634l-0.12602-0.05242 0.015-0.13548c0.11534-1.061 0.17804-2.1664 0.17804-3.2764 0-0.68727-0.0241-1.3764-0.0748-2.0579-0.91751-0.2763-1.8412-0.5119-2.7826-0.65376-1.0322 1.5063-1.8988 3.1767-2.5626 4.8053l-0.0489 0.11986-0.1289-0.0068c-0.18749-0.0095-0.37601-0.01337-0.56474-0.01337-0.49196 0-0.98741 0.02755-1.4699 0.05839-0.68974 0.0921-1.3715 0.15049-2.018 0.3277l-0.13713 0.03701-0.0697-0.12356c-0.87002-1.5394-1.892-3.0108-3.0535-4.3791-0.9056 0.28494-1.7726 0.69261-2.6442 1.1007 0.0853 1.8912 0.31105 3.6466 0.76334 5.4005l0.0327 0.1252-0.10793 0.07195c-0.57112 0.3793-1.1174 0.78389-1.6305 1.2506-0.52507 0.40685-0.95906 0.94199-1.4609 1.4352l-0.089 0.08737-0.11349-0.05119c-1.577-0.71217-3.2657-1.303-5.0362-1.751-0.53411 0.80671-1.0666 1.606-1.4839 2.4615 1.1213 1.4545 2.4261 2.7791 3.7881 3.919l0.10402 0.08676-0.0535 0.12479c-0.26088 0.60565-0.38649 1.2781-0.59187 1.9461-0.10341 0.69117-0.28165 1.3532-0.30776 2.0129l-6e-3 0.14226-0.13939 0.02878c-1.6981 0.35032-3.4664 0.86181-5.1114 1.5409 4e-3 0.95946 0.0888 1.9136 0.23293 2.8652 1.7707 0.51499 3.6154 0.82008 5.3579 0.94815l0.11739 0.0086 0.0405 0.11143c0.23909 0.66095 0.39903 1.3312 0.69672 1.9245l3e-3 6e-3 3e-3 0.0072c0.25492 0.62929 0.57274 1.2304 0.92388 1.8194l0.0697 0.11657-0.0925 0.10012c-1.2131 1.312-2.2452 2.7014-3.2244 4.2513 0.57625 0.76272 1.1887 1.5026 1.8655 2.1706 1.7487-0.63258 3.3786-1.4233 4.9036-2.3858l0.11452-0.07175 0.10238 0.08819c0.50614 0.43872 1.096 0.78615 1.6675 1.1607 0.59908 0.33592 1.2025 0.66527 1.8262 0.92636l0.1252 0.05242-0.0146 0.13548c-0.11533 1.0606-0.17845 2.1654-0.17845 3.2747 0 0.68747 0.0241 1.3766 0.0754 2.0597 0.91753 0.27589 1.8414 0.51149 2.7828 0.65293zm-1.7082-11.977c-1.7479-1.0725-3.2359-2.6798-4.0235-4.6152-0.54439-1.2321-0.80157-2.5538-0.80157-3.8829 0-0.73928 0.0795-1.4806 0.23498-2.2156 0.49464-2.0291 1.5538-3.8868 3.1421-5.2451 1.5507-1.4085 3.5868-2.2148 5.6293-2.4269 0.287-0.02632 0.57543-0.03906 0.86489-0.03906 1.7826 4.11e-4 3.5852 0.48847 5.1137 1.3986 1.7479 1.0731 3.2355 2.6804 4.0224 4.6156 0.54501 1.2319 0.80219 2.5536 0.80219 3.8825 0 0.73907-0.0796 1.48-0.23436 2.2162-0.49505 2.0291-1.554 3.8862-3.1428 5.2444-1.5505 1.4095-3.5868 2.2154-5.6268 2.4271l-0.0189-0.18153 0.0165 0.18153c-0.28721 0.0259-0.57585 0.03865-0.86531 0.03865-1.783-4.1e-4 -3.5856-0.48826-5.1129-1.3984zm4.2165-18.023c-1.9709 0.20435-3.9365 0.98516-5.4233 2.3375-1.5281 1.3065-2.5509 3.0944-3.0278 5.052-0.14925 0.70556-0.22593 1.4218-0.22593 2.135 0 1.2824 0.24834 2.5531 0.77299 3.74 0.75429 1.857 2.1891 3.4115 3.8763 4.4458 1.4652 0.87394 3.2077 1.3462 4.9241 1.3458 0.27795 0 0.55487-0.01193 0.83015-0.0368v-2.06e-4c1.9709-0.20373 3.9365-0.98495 5.4233-2.3371 1.5289-1.3069 2.5509-3.0944 3.028-5.0522 0.14884-0.70659 0.22532-1.4226 0.22532-2.1354 0-1.282-0.24815-2.5525-0.77279-3.7404-0.75429-1.856-2.1886-3.4104-3.8759-4.4453-1.4667-0.87414-3.2088-1.346-4.925-1.346-0.27857 0-0.5559 0.01254-0.82953 0.03741z"/>
  <path d="m160.22 79.223-0.12602-0.0044-0.0401-0.11903c-0.5563-1.6202-1.0205-3.2898-1.392-4.9256-0.63629-0.06946-1.2798-0.13175-1.9142-0.25037-0.64676-0.09416-1.2777-0.24197-1.9052-0.38341-0.9685 1.4124-2.0486 2.8142-3.2143 4.1257l-0.0783 0.08799-0.11205-0.03474c-0.89306-0.27795-1.7649-0.61182-2.622-0.97077l-0.11718-0.04934 5e-3 -0.12684c0.0754-1.7228 0.23683-3.4141 0.49401-5.0954-0.58488-0.28227-1.1426-0.60544-1.7006-0.92389-0.5522-0.33325-1.0995-0.67699-1.6299-1.0497-1.4259 0.9831-2.9176 1.8725-4.4873 2.6921l-0.10608 0.05551-0.0931-0.07525c-0.72428-0.5855-1.4169-1.2049-2.0914-1.8439l-0.0936-0.0884 0.052-0.11718c0.70002-1.589 1.4533-3.1051 2.2976-4.579-0.43666-0.47593-0.85359-0.9683-1.2532-1.4765-0.39016-0.50821-0.78632-1.0199-1.144-1.5647-1.6842 0.40397-3.3971 0.69775-5.1571 0.89162l-0.11965 0.01336-0.0588-0.10485c-0.45722-0.80938-0.89553-1.6332-1.2812-2.4841l-0.0518-0.1141 0.0878-0.08922c1.2014-1.2195 2.49-2.3753 3.7955-3.4378-0.22593-0.5999-0.45249-1.2047-0.62909-1.8258-0.19838-0.62025-0.3534-1.2504-0.50203-1.8764-1.6985-0.23806-3.4279-0.58242-5.1264-1.0386l-0.11431-0.03063-0.0185-0.11677c-0.14432-0.91978-0.23333-1.8424-0.30323-2.7659l-0.01-0.12787 0.11779-0.05243c1.5826-0.7033 3.1728-1.3168 4.7809-1.8381 5e-3 -0.64224 0.0165-1.2868 0.0691-1.9292 0.0345-0.65129 0.12151-1.2948 0.20785-1.9319-1.5053-0.83467-2.99-1.7769-4.4083-2.8181l-0.0952-0.0701 0.0246-0.11513c0.1949-0.91238 0.44098-1.8139 0.7253-2.7012l0.0386-0.11944 0.12561-0.0066c0.79849-0.04194 1.5955-0.06188 2.3901-0.06188 0.91258 0 1.8221 0.02672 2.7281 0.08018 0.22573-0.60832 0.49792-1.1936 0.76497-1.7767 0.27672-0.58468 0.57399-1.1591 0.8945-1.7222-1.1034-1.3244-2.1381-2.7347-3.091-4.2202l-0.0642-0.09991 0.0658-0.09909c0.51479-0.7767 1.0707-1.5223 1.6436-2.252l0.0796-0.10094 0.12171 0.04071c1.6478 0.55302 3.2192 1.1581 4.7698 1.8663 0.43296-0.47922 0.88833-0.935 1.3536-1.3848 0.47182-0.43316 0.94569-0.87414 1.4535-1.2814-0.56083-1.6424-1.0053-3.3138-1.3673-5.0528l-0.0246-0.11862 0.0995-0.06887c0.76415-0.52774 1.5439-1.0396 2.3533-1.5043l0.10876-0.06229 0.0972 0.07915c1.3256 1.0824 2.599 2.2618 3.7745 3.4587 0.57749-0.27733 1.1583-0.56063 1.7602-0.79376 0.60009-0.26048 1.2158-0.46565 1.8221-0.67493 0.082-1.7094 0.26294-3.4729 0.56535-5.2004l0.0204-0.11554 0.11389-0.0296c0.90395-0.23293 1.82-0.40171 2.7322-0.55364l0.12643-0.02138 0.0629 0.11266c0.84372 1.517 1.5958 3.02 2.2637 4.5919 0.64327-0.06353 1.287-0.0958 1.9317-0.11102 0.21936-0.0026 0.44035-0.0044 0.66156-0.0044 0.42453 0 0.85132 0.0072 1.2785 0.03351 0.6918-1.5853 1.4888-3.1372 2.3946-4.6517l0.0611-0.10218 0.11862 0.01521c0.92061 0.11821 1.8441 0.26376 2.7559 0.47161l0.1217 0.02775 0.0183 0.12376c0.24855 1.6975 0.39759 3.4092 0.45701 5.0989 0.62169 0.17454 1.2345 0.3756 1.8383 0.59702 0.61099 0.21874 1.2082 0.46791 1.7986 0.73023 1.2138-1.2123 2.5301-2.3864 3.9193-3.4643l0.0931-0.07236 0.10444 0.05571c0.82172 0.43995 1.6153 0.92451 2.3942 1.4315l0.10731 0.06969-0.0294 0.12458c-0.39718 1.6878-0.85748 3.3097-1.4206 4.9196 0.51993 0.3867 1.0109 0.80198 1.5063 1.2193 0.47202 0.43173 0.9539 0.86284 1.4062 1.3307 1.5863-0.71112 3.205-1.304 4.9073-1.8287l0.11595-0.03598 0.0775 0.09313c0.59496 0.71358 1.1733 1.442 1.7129 2.203l0.073 0.103-0.0705 0.10485c-0.96296 1.4253-2.0094 2.7937-3.0938 4.0773 0.32976 0.55055 0.6624 1.1038 0.9535 1.6788 0.31393 0.57255 0.5779 1.165 0.8392 1.7526 0.66053-0.03145 1.3268-0.04708 1.9968-0.04708 1.0732 0 2.1543 0.04112 3.2345 0.12767l0.11718 0.0095 0.0399 0.11081c0.31556 0.87846 0.57624 1.7767 0.80218 2.6781l0.0306 0.12253-0.10382 0.07195c-1.4171 0.97632-2.8656 1.8665-4.3633 2.6738 0.12767 0.63793 0.19962 1.2775 0.29131 1.9173 0.0528 0.63649 0.12459 1.2783 0.14227 1.9298 1.649 0.54233 3.2511 1.194 4.8553 1.9528l0.10896 0.0514-5e-3 0.12088c-0.0376 0.92698-0.0956 1.8574-0.21607 2.785l-0.016 0.12417-0.1217 0.02981c-1.6626 0.40521-3.3648 0.71111-5.0339 0.92903-0.12294 0.62888-0.24793 1.2637-0.42412 1.8844-0.15768 0.63361-0.35894 1.2495-0.55816 1.8609 1.3122 1.0937 2.614 2.3003 3.8095 3.5827l0.0806 0.08614-0.0456 0.10916c-0.3606 0.85996-0.77238 1.6969-1.2076 2.5163l-0.0596 0.11266-0.12643-0.01726c-1.7125-0.23622-3.3753-0.5485-5.0288-0.9611-0.33551 0.55405-0.70782 1.0805-1.0754 1.6101-0.38588 0.51355-0.77361 1.0304-1.1951 1.5244 0.8538 1.5145 1.5922 3.0718 2.2699 4.7161l0.0455 0.11143-0.0839 0.08573c-0.6517 0.66342-1.3268 1.3016-2.0308 1.9107l-0.0966 0.08367-0.11142-0.06208c-1.5125-0.83529-2.9625-1.7364-4.3473-2.7057-0.51519 0.38465-1.0405 0.76066-1.5846 1.1085-0.54192 0.35196-1.097 0.68665-1.666 0.99626 0.24464 1.7121 0.38197 3.4538 0.40726 5.2169l2e-3 0.11944-0.10855 0.04934c-0.84639 0.38321-1.7086 0.74421-2.5926 1.046l-0.1182 0.03988-0.0802-0.09539c-1.1042-1.3124-2.1294-2.6882-3.0683-4.0961-0.62107 0.18297-1.2522 0.32297-1.8796 0.45968-0.63289 0.1289-1.2694 0.24053-1.9126 0.32235-0.38897 1.6936-0.89182 3.3416-1.4973 5.0158l-0.0415 0.11451-0.1213 6e-3c-0.65129 0.03022-1.3034 0.05242-1.9572 0.05242-0.27609 1e-3 -0.55302-0.0025-0.83056-0.0111zm0.83138-0.35258c0.60503 0 1.2113-0.01953 1.8184-0.04688 0.59743-1.6652 1.0914-3.3009 1.4718-4.9827l0.0284-0.1252 0.12725-0.01542c0.67452-0.08141 1.3439-0.19757 2.0094-0.33305 0.66733-0.14535 1.3326-0.2944 1.9783-0.49114l0.12992-0.03927 0.0752 0.11348c0.92924 1.4015 1.9444 2.7721 3.0377 4.0798 0.79027-0.27528 1.5664-0.59866 2.333-0.94342-0.0302-1.7499-0.17166-3.4781-0.4198-5.1762l-0.0187-0.12684 0.11307-0.06023c0.59805-0.32133 1.1817-0.67123 1.7532-1.0421 0.57111-0.36491 1.1231-0.76333 1.6687-1.1729l0.10608-0.07977 0.10814 0.07647c1.3729 0.96645 2.8099 1.8651 4.3115 2.6989 0.63135-0.55076 1.2393-1.1254 1.8289-1.7211-0.67638-1.6315-1.4138-3.1744-2.2666-4.675l-0.0642-0.11245 0.0849-0.09724c0.44283-0.51026 0.85132-1.0546 1.2588-1.597 0.39123-0.56268 0.7843-1.1186 1.1274-1.6989l0.0693-0.11739 0.13198 0.0333c1.6422 0.41507 3.2934 0.73003 4.9949 0.96871 0.39102-0.74195 0.76045-1.4956 1.088-2.2655-1.1901-1.2678-2.4859-2.4623-3.7902-3.5441l-0.0956-0.07936 0.0386-0.11759c0.21196-0.65129 0.42598-1.2974 0.59086-1.9592 0.1842-0.64821 0.31228-1.3172 0.44385-1.9892l0.0251-0.12911 0.13095-0.01686c1.6576-0.21175 3.3502-0.5117 5.0025-0.9093 0.10258-0.83097 0.15665-1.6687 0.19263-2.5083-1.5953-0.74956-3.1872-1.3912-4.8259-1.9243l-0.12417-0.04071-2e-3 -0.13034c-9e-3 -0.67205-0.0857-1.3492-0.14186-2.0244-0.0985-0.68151-0.1733-1.3577-0.31392-2.0164l-0.0286-0.13425 0.12089-0.06455c1.4913-0.79869 2.9335-1.679 4.3444-2.6459-0.20702-0.81267-0.44283-1.6198-0.72181-2.4094-1.0314-0.07935-2.0634-0.11759-3.0881-0.11759-0.70618 0-1.4084 0.01768-2.1038 0.05284l-0.12499 6e-3 -0.0504-0.11389c-0.27876-0.62621-0.55261-1.2493-0.87928-1.8451-0.30508-0.60318-0.65848-1.1852-1.0106-1.7736l-0.067-0.11204 0.0845-0.0995c1.0801-1.2715 2.1226-2.6286 3.0829-4.041-0.48757-0.6807-1.0079-1.3377-1.5447-1.9841-1.6897 0.52547-3.2936 1.1186-4.8659 1.8297l-0.11862 0.05366-0.0892-0.09436c-0.4638-0.4897-0.97119-0.94384-1.4712-1.4011-0.52513-0.44202-1.0438-0.88073-1.5903-1.2796l-0.10998-0.08018 0.0456-0.12767c0.56494-1.5984 1.0263-3.2079 1.4245-4.8845-0.70515-0.45598-1.42-0.89141-2.1551-1.2896-1.375 1.0736-2.679 2.2429-3.8798 3.4493l-0.0888 0.08922-0.11492-0.0514c-0.62251-0.27836-1.2495-0.54212-1.8889-0.77114-0.63851-0.23437-1.2851-0.44427-1.9399-0.62436l-0.12993-0.03598-4e-3 -0.13425c-0.0545-1.6788-0.19818-3.3802-0.44015-5.0676-0.81782-0.18132-1.6488-0.31372-2.481-0.42289-0.89491 1.5063-1.6815 3.049-2.3636 4.625l-0.0514 0.11862-0.1287-0.0095c-0.45763-0.03248-0.91875-0.04112-1.3813-0.04112-0.21935 0-0.43851 0.0016-0.65519 0.0044-0.68069 0.01563-1.3591 0.05119-2.0338 0.12294l-0.13508 0.01439-0.0525-0.12479c-0.65909-1.5641-1.4013-3.0589-2.2367-4.5685-0.82666 0.13918-1.6504 0.29316-2.4602 0.4971-0.2948 1.714-0.46893 3.4655-0.54602 5.1612l-5e-3 0.12397-0.11636 0.0403c-0.64821 0.22429-1.2956 0.43687-1.92 0.70782-0.62933 0.24341-1.2397 0.54521-1.8583 0.84187l-0.118 0.05633-0.0911-0.09354c-1.1636-1.1903-2.4261-2.3652-3.7387-3.4446-0.72387 0.42042-1.4266 0.8799-2.1194 1.3564 0.36368 1.7265 0.80979 3.3841 1.3721 5.0121l0.0426 0.12294-0.10239 0.08018c-0.53081 0.41651-1.0292 0.88031-1.5306 1.3406-0.49052 0.4751-0.97076 0.95596-1.4212 1.4621l-0.09 0.10135-0.12253-0.05674c-1.538-0.70886-3.0969-1.3137-4.7338-1.8667-0.51622 0.66075-1.0156 1.3328-1.4808 2.0275 0.94959 1.4726 1.981 2.8693 3.08 4.1805l0.0818 0.09745-0.0637 0.1104c-0.33901 0.58982-0.65294 1.192-0.94302 1.8048-0.28535 0.62312-0.57234 1.2405-0.79931 1.8745l-0.0458 0.1289-0.13692-0.0086c-0.94342-0.05797-1.891-0.08758-2.8414-0.08758-0.74668 0-1.4952 0.01789-2.245 0.05469-0.25308 0.80034-0.47407 1.6118-0.65273 2.4308 1.4103 1.0287 2.8866 1.9596 4.3824 2.7832l0.10957 0.06023-0.0169 0.12417c-0.0917 0.67802-0.18626 1.3532-0.22223 2.0312-0.0555 0.67452-0.0641 1.3544-0.0693 2.039l-7.8e-4 0.13198-0.12562 0.0403c-1.5982 0.51334-3.1785 1.1178-4.7523 1.8122 0.0647 0.83549 0.14658 1.6667 0.27178 2.4911 1.6872 0.44797 3.4051 0.78471 5.0907 1.0162l0.12355 0.01706 0.029 0.1217c0.15707 0.66486 0.31784 1.327 0.52527 1.9761 0.18482 0.64903 0.42597 1.2851 0.66774 1.9255l0.0468 0.12294-0.10258 0.08305c-1.2991 1.0518-2.5825 2.1967-3.7788 3.4043 0.35032 0.76046 0.74298 1.5032 1.155 2.2361 1.747-0.19716 3.4466-0.49422 5.117-0.90025l0.12602-0.03104 0.0706 0.10978c0.36409 0.56741 0.78019 1.1054 1.1959 1.6473 0.42042 0.5339 0.86119 1.0516 1.3238 1.5505l0.0913 0.09827-0.0672 0.11698c-0.84289 1.4613-1.5953 2.9647-2.2943 4.5426 0.611 0.57502 1.235 1.1324 1.8834 1.6609 1.5571-0.81802 3.0354-1.7053 4.4474-2.6855l0.10567-0.07319 0.10444 0.07442c0.55137 0.39369 1.1266 0.75573 1.7074 1.1065 0.59475 0.33942 1.1829 0.68028 1.7945 0.96686l0.12376 0.05756-0.0211 0.13548c-0.26089 1.6702-0.42618 3.3506-0.50533 5.0625 0.77526 0.32236 1.5608 0.62148 2.3599 0.87455 1.1523-1.3048 2.2205-2.6993 3.1773-4.103l0.0697-0.10259 0.12088 0.02734c0.6702 0.15069 1.3316 0.30879 2.0057 0.40685 0.66156 0.12397 1.3406 0.18585 2.0234 0.2615l0.12911 0.01419 0.029 0.12685c0.3645 1.6241 0.82131 3.284 1.3686 4.8952 0.23026 6e-3 0.46154 0.0086 0.69323 0.0086zm-3.3648-10.635 0.0294-0.18009-0.0298 0.17968c-1.8165-0.30015-3.5909-0.84824-5.2691-1.6134l-0.18626-0.08491 5.1396-8.543 0.14041 0.04893c1.1418 0.40007 2.3681 0.62004 3.6462 0.62004 0.14226 0 0.28576-0.0051 0.4309-0.01089l0.14802-6e-3 2.4025 9.654-0.20168 0.02734c-0.93233 0.12541-1.8723 0.18749-2.8112 0.18749-1.1546 0-2.3066-0.09436-3.439-0.27918zm3.4386-0.08532c0.85461 0 1.7107-0.05242 2.5603-0.15851l-2.2318-8.9702c-0.0976 0.0035-0.19633 0.0058-0.29666 0.0058-1.2678 0-2.4872-0.2097-3.6265-0.59229l-4.7753 7.9386c1.5939 0.70865 3.2735 1.2179 4.9906 1.5022 1.113 0.18194 2.2454 0.27445 3.3794 0.27445zm4.6814-10.511 0.13363-0.06455c1.2557-0.60483 2.3776-1.4424 3.3142-2.4543l0.10074-0.10916 8.5521 5.1449-0.12458 0.16221c-1.4562 1.8936-3.2342 3.5371-5.2331 4.8318-1.3028 0.84392-2.6975 1.5351-4.1505 2.07l-0.1914 0.0699zm2.6568 9.1676c1.3601-0.5154 2.6654-1.1708 3.8878-1.9627 1.9064-1.2347 3.6098-2.7935 5.0171-4.5866l-7.9481-4.7813c-0.91238 0.9611-1.9896 1.7643-3.188 2.3613zm-19.995-2.54c-1.4356-1.0855-2.7347-2.3523-3.8459-3.7651-1.3344-1.6926-2.3957-3.5891-3.1508-5.6017l-0.072-0.19181 9.751-2.4257 0.0643 0.13363c0.60483 1.2553 1.4424 2.3772 2.4543 3.3138l0.10896 0.10033-5.0438 8.3849-0.10485 0.17372zm0.10998-0.14535 0.10999-0.14555zm-3.6691-3.8454c1.0495 1.3347 2.2707 2.5373 3.6183 3.5765l4.7862-7.9569c-0.96111-0.91238-1.7643-1.9896-2.3613-3.188l-9.066 2.2557c0.73681 1.9068 1.7542 3.7042 3.0229 5.3127zm26.61-8.857 0.0489-0.14021c0.40007-1.1414 0.62004-2.3677 0.62004-3.6462 0-0.14247-5e-3 -0.28576-0.0109-0.4309l-6e-3 -0.14802 9.77-2.4308 0.027 0.20209c0.0134 0.103 0.0325 0.21093 0.0455 0.32606 0.0861 0.7841 0.12911 1.5705 0.12911 2.3556 0 1.8042-0.22819 3.6016-0.68624 5.3439-0.31845 1.2146-0.75038 2.4002-1.2826 3.5399l-0.0861 0.18359zm8.409 4.633c0.48414-1.0637 0.87969-2.1666 1.1757-3.2941 0.44982-1.7117 0.67411-3.4779 0.67411-5.2512 0-0.77156-0.0423-1.545-0.12685-2.3143-5e-3 -0.03845-0.01-0.07751-0.0154-0.11759l-9.0889 2.261c4e-3 0.09765 5e-3 0.19654 5e-3 0.29686 0 1.268-0.2097 2.4872-0.59188 3.6267zm-24.331-8.4195c4.1e-4 -3.0712 2.49-5.5604 5.561-5.5608 3.071 4.11e-4 5.561 2.4896 5.561 5.5608 0 3.071-2.4898 5.5604-5.561 5.561v-0.36532c2.87-0.0049 5.1908-2.3264 5.1957-5.1957-5e-3 -2.8697-2.3258-5.1908-5.1957-5.1959-2.8695 0.0051-5.1908 2.326-5.1959 5.1959 5e-3 2.8693 2.3264 5.1908 5.1959 5.1957v0.36532c-3.071-6.17e-4 -5.5606-2.4898-5.561-5.561zm-15.26 2.8114c-0.13857-0.9831-0.21032-1.9769-0.21032-2.968 0-0.49792 0.0176-0.99503 0.0551-1.489 0.1766-2.4806 0.80322-4.9196 1.8375-7.1841l0.0849-0.18585 8.6927 5.2292-0.0487 0.14021c-0.40028 1.1418-0.62025 2.3677-0.62025 3.6462 0 0.14247 5e-3 0.28576 0.0109 0.43132l5e-3 0.14802-9.5827 2.384-0.19654 0.04852zm0.1807-0.02508 0.1805-0.02549zm0.0277-4.4057c-0.0364 0.48538-0.0541 0.97344-0.0541 1.4627 0 0.90601 0.0613 1.8155 0.17968 2.7168l9.0983-2.2629c-3e-3 -0.09765-5e-3 -0.19674-5e-3 -0.29727 0-1.2678 0.2099-2.4869 0.59208-3.6265l-8.0885-4.8658c-0.96645 2.1726-1.5534 4.5039-1.7218 6.8729zm30.555-3.1637c-0.60482-1.2557-1.4424-2.3776-2.4545-3.3142l-0.10875-0.10094 5.131-8.5295 0.10546-0.17495 0.16221 0.12458c0.35381 0.27158 0.7033 0.55179 1.0407 0.84742 1.9502 1.7082 3.5808 3.7766 4.7763 6.0666 0.4381 0.83611 0.81617 1.7012 1.1361 2.5881l0.0685 0.18996-9.7922 2.436zm0.26315-0.29193 9.1123-2.2666c-0.29912-0.80527-0.64718-1.592-1.0464-2.3535-1.1743-2.2493-2.7772-4.2827-4.6937-5.9611-0.27857-0.24444-0.56679-0.47881-0.86078-0.70782l-4.8734 8.1006c0.96152 0.91238 1.7643 1.9898 2.362 3.1884zm-27.114-7.5437 0.12212-0.16159c0.69529-0.92184 1.4629-1.7904 2.3019-2.585 1.8803-1.7857 4.0864-3.2133 6.4769-4.1927 0.23376-0.09519 0.46914-0.18523 0.70577-0.27199l0.19058-0.06969 2.4612 9.8935-0.13322 0.06414c-1.2553 0.60524-2.3776 1.4424-3.3138 2.4547l-0.10114 0.10855zm8.645 4.7755c0.91238-0.9611 1.9898-1.7643 3.1884-2.3617l-2.2918-9.2116c-0.16879 0.06353-0.33655 0.1287-0.50246 0.19654-2.3486 0.96172-4.5167 2.365-6.3636 4.1195l-0.12561-0.13219 0.1252 0.13219c-0.77464 0.73332-1.488 1.532-2.1393 2.3788zm11.91-2.5671c-1.142-0.40007-2.3683-0.62004-3.6462-0.62004-0.14247 0-0.28597 0.0055-0.43132 0.01089l-0.14822 0.0055-2.4631-9.9022 0.20126-0.02775c0.79583-0.10814 1.5984-0.17064 2.4033-0.184v4.11e-4c0.1398-0.0031 0.2796-0.0047 0.42001-0.0047 2.4477 0 4.8869 0.42638 7.1856 1.2656 0.57008 0.20826 1.1305 0.44283 1.6804 0.6996l0.18379 0.08532-5.2455 8.72zm-0.0204-0.39267 4.8838-8.1183c-0.48189-0.21936-0.97077-0.42145-1.4672-0.60236-2.2579-0.8248-4.6552-1.244-7.0606-1.244-0.13754 0-0.27528 0.0019-0.41344 0.0044l-4e-3 -0.18194 2e-3 0.18235c-0.72222 0.01152-1.4428 0.06394-2.158 0.15419l2.2933 9.2194c0.0978-0.0033 0.19653-0.0057 0.29686-0.0057 1.268 2.05e-4 2.487 0.2099 3.6263 0.59208z"/>
 </g>
 <g display="none">
  <g fill="#fff" aria-label="«">
   <path d="m111.9 40.664h23.658l7.3132-22.512 7.3132 22.512h23.658l-19.12 13.922 7.3133 22.512-19.164-13.922-19.164 13.922 7.3132-22.512z" fill="#fff" stroke-width=".33835"/>
  </g>
 </g>
 <g display="none" fill="#fff">
  <circle transform="rotate(-24.882)" cx="128.78" cy="130.65" r="8.8199" display="inline"/>
  <path d="m78.121 37.571c-0.29316 0-0.52917 0.23601-0.52917 0.52917v11.298h-11.297c-0.29316 0-0.52917 0.23601-0.52917 0.52917v9.0976c0 0.29316 0.23601 0.52917 0.52917 0.52917h11.297v11.298c0 0.29316 0.23601 0.52917 0.52917 0.52917h9.0982c0.29316 0 0.52917-0.23601 0.52917-0.52917v-11.298h11.298c0.29315 0 0.52915-0.23601 0.52915-0.52917v-9.0976c0-0.29316-0.236-0.52917-0.52915-0.52917h-11.298v-11.298c0-0.29316-0.23601-0.52917-0.52917-0.52917z" display="inline"/>
  <circle transform="rotate(-24.882)" cx="151.38" cy="130.72" r="8.8199" display="inline"/>
  <circle transform="rotate(-24.882)" cx="173.98" cy="131.05" r="8.8199" display="inline"/>
  <rect transform="rotate(-27.221)" x="135.74" y="102.34" width="18.976" height="4.5436" rx="2.6458" ry="2.6458"/>
  <path d="m82.552 35.767a18.709 18.709 0 0 0-7.2762 1.5227 18.709 18.709 0 0 0-9.7915 24.58 18.709 18.709 0 0 0 24.58 9.7914 18.709 18.709 0 0 0 9.7915-24.58 18.709 18.709 0 0 0-17.304-11.314zm0.014 2.2452a16.464 16.464 0 0 1 15.228 9.9564 16.464 16.464 0 0 1-8.6165 21.63 16.464 16.464 0 0 1-21.63-8.6165 16.464 16.464 0 0 1 8.6165-21.63 16.464 16.464 0 0 1 6.4027-1.3399z" display="inline"/>
 </g>
 <g display="none">
  <path d="m195.99 22.619c-0.87948 0-1.5875 0.70802-1.5875 1.5875v20.344c0 0.87948 0.70802 1.5875 1.5875 1.5875h19.543c0.87947 0 1.5875-0.70802 1.5875-1.5875v-20.344c0-0.87948-0.70803-1.5875-1.5875-1.5875zm-26.462 0.0052c-0.87947 0-1.5875 0.70802-1.5875 1.5875v20.345c0 0.87948 0.70803 1.5875 1.5875 1.5875h19.543c0.87947 0 1.5875-0.70802 1.5875-1.5875v-20.345c0-0.87948-0.70803-1.5875-1.5875-1.5875zm-105.85 0.2568c-0.87948 0-1.5875 0.70802-1.5875 1.5875v20.344c0 0.87948 0.70802 1.5875 1.5875 1.5875h19.543c0.87948 0 1.5875-0.70802 1.5875-1.5875v-20.344c0-0.87947-0.70802-1.5875-1.5875-1.5875zm26.462 0.27233c-0.87948 0-1.5875 0.70802-1.5875 1.5875v20.345c0 0.87948 0.70802 1.5875 1.5875 1.5875h19.543c0.87948 0 1.5875-0.70802 1.5875-1.5875v-20.345c0-0.87948-0.70802-1.5875-1.5875-1.5875zm26.462 0c-0.87948 0-1.5875 0.70802-1.5875 1.5875v20.345c0 0.87948 0.70802 1.5875 1.5875 1.5875h19.542c0.87947 0 1.5875-0.70802 1.5875-1.5875v-20.345c0-0.87948-0.70803-1.5875-1.5875-1.5875zm26.461 0c-0.87947 0-1.5875 0.70802-1.5875 1.5875v20.345c0 0.87948 0.70803 1.5875 1.5875 1.5875h19.543c0.87947 0 1.5875-0.70802 1.5875-1.5875v-20.345c0-0.87948-0.70803-1.5875-1.5875-1.5875zm-75.412 1.9198c0.86541 0 1.5572 0.29077 2.0753 0.8723 0.51814 0.57878 0.77721 1.356 0.77721 2.3316 0 0.71658-0.1447 1.3298-0.43408 1.8397-0.28663 0.50987-0.7028 0.88608-1.2485 1.1286l1.0997 1.203h-1.0087l-0.91364-0.98806c-0.09095 0.0055-0.16123 0.0096-0.21084 0.0124-0.04685 0.0028-0.09233 0.0041-0.13642 0.0041-0.86816 0-1.5627-0.28939-2.0836-0.86816-0.51814-0.58153-0.77721-1.3587-0.77721-2.3316 0-0.97565 0.25907-1.7529 0.77721-2.3316 0.5209-0.58153 1.2154-0.8723 2.0836-0.8723zm23.607 0.60152h0.84336l1.2981 5.2173 1.294-5.2173h0.93845l1.2981 5.2173 1.294-5.2173h0.8475l-1.5503 6.1722h-1.0501l-1.3022-5.3578-1.3146 5.3578h-1.0501zm26.468 0h3.9026v0.7028h-3.0675v1.8273h2.9394v0.7028h-2.9394v2.2366h3.1419v0.7028h-3.977zm26.468 0h1.8852c0.70555 0 1.232 0.14745 1.5792 0.44235 0.34726 0.2949 0.5209 0.74001 0.5209 1.3353 0 0.38861-0.091 0.71107-0.27286 0.96738-0.17914 0.25632-0.44097 0.43408-0.78548 0.5333 0.17915 0.06064 0.35278 0.19017 0.5209 0.38861 0.17088 0.19844 0.34175 0.47129 0.51263 0.81856l0.84749 1.6867h-0.8971l-0.78962-1.5834c-0.20394-0.41341-0.40238-0.68764-0.59531-0.82269-0.19017-0.13505-0.45062-0.20257-0.78134-0.20257h-0.90951v2.6086h-0.83509zm26.468 0h5.2214v0.7028h-2.1911v5.4694h-0.83923v-5.4694h-2.1911zm26.469 0h0.8971l1.7115 2.5383 1.6991-2.5383h0.8971l-2.1828 3.2329v2.9394h-0.83922v-2.9394zm-129.48 0.07648c-0.60634 0-1.0887 0.226-1.4469 0.678-0.35553 0.452-0.5333 1.068-0.5333 1.8479 0 0.77721 0.17777 1.3918 0.5333 1.8438 0.35829 0.452 0.8406 0.678 1.4469 0.678 0.60634 0 1.0859-0.226 1.4387-0.678 0.35553-0.452 0.5333-1.0666 0.5333-1.8438 0-0.77997-0.17776-1.396-0.5333-1.8479-0.35278-0.452-0.83234-0.678-1.4387-0.678zm77.379 0.60978v2.1911h1.0501c0.40238 0 0.70555-0.09233 0.9095-0.27699 0.20671-0.18741 0.31006-0.46164 0.31006-0.82269 0-0.36105-0.10335-0.63252-0.31006-0.81442-0.20395-0.18466-0.50712-0.27698-0.9095-0.27698zm57.5 22.215c-0.87948 0-1.5875 0.70802-1.5875 1.5875v20.345c0 0.87948 0.70802 1.5875 1.5875 1.5875h19.543c0.87947 0 1.5875-0.70802 1.5875-1.5875v-20.345c0-0.87948-0.70803-1.5875-1.5875-1.5875zm-26.462 0.0057c-0.87948 0-1.5875 0.70802-1.5875 1.5875v20.344c0 0.87948 0.70802 1.5875 1.5875 1.5875h19.543c0.87947 0 1.5875-0.70802 1.5875-1.5875v-20.345c0-0.87948-0.70803-1.5875-1.5875-1.5875zm-105.85 0.2563c-0.87948 0-1.5875 0.70802-1.5875 1.5875v20.345c0 0.87948 0.70802 1.5875 1.5875 1.5875h19.543c0.87948 0 1.5875-0.70802 1.5875-1.5875v-20.345c0-0.87948-0.70802-1.5875-1.5875-1.5875zm26.462 0.27285c-0.87948 0-1.5875 0.70802-1.5875 1.5875v20.344c0 0.87948 0.70802 1.5875 1.5875 1.5875h19.543c0.87947 0 1.5875-0.70802 1.5875-1.5875v-20.344c0-0.87948-0.70803-1.5875-1.5875-1.5875zm26.461 0c-0.87948 0-1.5875 0.70802-1.5875 1.5875v20.344c0 0.87948 0.70802 1.5875 1.5875 1.5875h19.543c0.87948 0 1.5875-0.70802 1.5875-1.5875v-20.344c0-0.87948-0.70802-1.5875-1.5875-1.5875zm26.462 0c-0.87948 0-1.5875 0.70802-1.5875 1.5875v20.344c0 0.87948 0.70802 1.5875 1.5875 1.5875h19.543c0.87948 0 1.5875-0.70802 1.5875-1.5875v-20.344c0-0.87948-0.70802-1.5875-1.5875-1.5875zm-77.234 1.2025h0.94671l2.3523 6.1722h-0.86816l-0.56224-1.5834h-2.7823l-0.56224 1.5834h-0.88057zm26.529 0.37827c0.28939 0 0.58429 0.02618 0.8847 0.07855 0.30042 0.05236 0.60772 0.13091 0.92191 0.23564v0.81442c-0.31695-0.15158-0.61598-0.26458-0.8971-0.339-0.28112-0.07441-0.55259-0.11162-0.81442-0.11162-0.45475 0-0.80615 0.08819-1.0542 0.26458-0.24529 0.17639-0.36794 0.42719-0.36794 0.75241 0 0.27285 0.0813 0.47956 0.24391 0.62012 0.16536 0.1378 0.4768 0.24942 0.93431 0.33486l0.50436 0.10335c0.62287 0.11851 1.0818 0.32797 1.3767 0.62838 0.29765 0.29766 0.44648 0.69729 0.44648 1.1989 0 0.59807-0.20119 1.0514-0.60358 1.3601-0.39963 0.30868-0.98668 0.46302-1.7611 0.46302-0.29214 0-0.60358-0.03307-0.93431-0.09922-0.32798-0.06615-0.66835-0.16399-1.0211-0.29352v-0.8599c0.339 0.19017 0.6711 0.33349 0.99632 0.42995 0.32522 0.09646 0.64492 0.1447 0.95912 0.1447 0.4768 0 0.84474-0.09371 1.1038-0.28112 0.25908-0.18742 0.3886-0.45475 0.3886-0.80202 0-0.30317-0.0937-0.54019-0.28112-0.71107-0.18466-0.17088-0.4892-0.29904-0.91364-0.38447l-0.5085-0.09922c-0.62287-0.12402-1.0735-0.31832-1.3519-0.58291-0.27836-0.26458-0.41755-0.63252-0.41755-1.1038 0-0.5457 0.19155-0.97565 0.57464-1.2898 0.38585-0.31419 0.9164-0.47129 1.5916-0.47129zm81.073 0c0.40239 0 0.78411 0.04961 1.1452 0.14883 0.3638 0.09922 0.69867 0.24529 1.0046 0.43822v0.88884c-0.30868-0.26183-0.63665-0.45889-0.98392-0.59118-0.34726-0.13229-0.71244-0.19844-1.0955-0.19844-0.75516 0-1.3229 0.21084-1.7032 0.63252-0.37759 0.42168-0.56638 1.0501-0.56638 1.8852 0 0.83233 0.18879 1.4593 0.56638 1.881 0.38033 0.42168 0.94809 0.63252 1.7032 0.63252 0.2949 0 0.55811-0.0248 0.78962-0.07441 0.23151-0.05237 0.43959-0.13229 0.62425-0.23978v-1.6578h-1.3643v-0.68626h2.1911v2.65c-0.32246 0.22875-0.67799 0.40239-1.0666 0.5209-0.38861 0.11576-0.8034 0.17363-1.2444 0.17363-0.96463 0-1.7198-0.28112-2.2655-0.84336-0.54295-0.565-0.81442-1.3505-0.81442-2.3564 0-1.0087 0.27147-1.7942 0.81442-2.3564 0.5457-0.565 1.3009-0.8475 2.2655-0.8475zm-56.519 0.11162h1.7157c1.1961 0 2.074 0.24942 2.6334 0.74827 0.55948 0.49609 0.83923 1.2733 0.83923 2.3316 0 1.0638-0.28112 1.8452-0.84336 2.344-0.56224 0.49885-1.4387 0.74827-2.6293 0.74827h-1.7157zm26.719 0h3.5471v0.7028h-2.712v1.819h2.4474v0.7028h-2.4474v2.9476h-0.83509zm53.439 0h0.83509v2.5301h3.0344v-2.5301h0.83509v6.1722h-0.83509v-2.9394h-3.0344v2.9394h-0.83509zm-130.77 0.3328-1.1327 3.0716h2.2696zm51.446 0.35347v4.7997h1.0087c0.85162 0 1.4745-0.19293 1.8686-0.57878 0.39687-0.38585 0.59531-0.99494 0.59531-1.8273 0-0.82682-0.19844-1.4318-0.59531-1.8149-0.39412-0.38585-1.017-0.57878-1.8686-0.57878z" fill="#fff"/>
 </g>
 <g display="none" fill="#fff">
  <circle cx="172.99" cy="39.328" r="8.8199" display="inline"/>
  <circle cx="196.29" cy="39.328" r="8.8199" display="inline"/>
  <circle cx="149.68" cy="39.328" r="8.8199" display="inline"/>
  <circle cx="172.87" cy="61.467" r="8.8199" display="inline"/>
  <circle cx="196.17" cy="61.467" r="8.8199" display="inline"/>
  <circle cx="149.56" cy="61.467" r="8.8199" display="inline"/>
  <circle cx="100.95" cy="33.783" r="8.8199" display="inline"/>
  <rect x="97.208" y="36.456" width="7.4835" height="23.787" rx="3.9688" ry="1.3229"/>
  <path d="m100.95 52.967a20.312 6.1472 0 0 0-20.312 6.1474 20.312 6.1472 0 0 0 20.312 6.1469 20.312 6.1472 0 0 0 20.312-6.1469 20.312 6.1472 0 0 0-20.312-6.1474zm0 0.80305a17.221 5.2118 0 0 1 17.222 5.2121 17.221 5.2118 0 0 1-17.222 5.2116 17.221 5.2118 0 0 1-17.221-5.2116 17.221 5.2118 0 0 1 17.221-5.2121z"/>
 </g>
 <g display="none" fill="#fff">
  <rect transform="rotate(-26.428)" x="70.029" y="114.51" width="16.181" height="5.7429" rx="2.6458" ry="2.6458" display="inline"/>
  <rect transform="rotate(-26.428)" x="91.834" y="126.18" width="16.181" height="5.7429" rx="2.6458" ry="2.6458" display="inline"/>
  <circle cx="170.52" cy="39.651" r="8.8199" display="inline"/>
  <circle cx="194.19" cy="28.69" r="8.8199" display="inline"/>
  <path d="m95.092 18.884c-0.29316 0-0.52917 0.23601-0.52917 0.52917v11.298h-11.297c-0.29316 0-0.52917 0.23601-0.52917 0.52917v9.0976c0 0.29316 0.23601 0.52917 0.52917 0.52917h11.297v11.298c0 0.29316 0.23601 0.52917 0.52917 0.52917h9.0982c0.29316 0 0.52917-0.23601 0.52917-0.52917v-11.298h11.298c0.29315 0 0.52915-0.23601 0.52915-0.52917v-9.0976c0-0.29316-0.236-0.52917-0.52915-0.52917h-11.298v-11.298c0-0.29316-0.23601-0.52917-0.52917-0.52917z" display="inline"/>
 </g>
 <g display="none" fill="#fff">
  <circle cx="189.97" cy="45.5" r="8.8199" display="inline"/>
  <circle cx="215.16" cy="37.184" r="8.8199" display="inline"/>
  <path d="m74.125 24.355c-0.29316 0-0.52917 0.23601-0.52917 0.52917v11.298h-11.297c-0.29316 0-0.52917 0.23601-0.52917 0.52917v9.0976c0 0.29316 0.23601 0.52917 0.52917 0.52917h11.297v11.298c0 0.29316 0.23601 0.52917 0.52917 0.52917h9.0982c0.29316 0 0.52917-0.23601 0.52917-0.52917v-11.298h11.298c0.29315 0 0.52915-0.23601 0.52915-0.52917v-9.0976c0-0.29316-0.236-0.52917-0.52915-0.52917h-11.298v-11.298c0-0.29316-0.23601-0.52917-0.52917-0.52917z" display="inline"/>
  <circle cx="97.718" cy="68.736" r="4.0952" display="inline"/>
  <path d="m75.855 7.4884c-0.65236 0-5.6171 0.10728-8.9995 0.36137-2.7666 0.55486-5.3996 1.3064-5.4934 1.3315l-5.331 1.5803c-2.8293 0.7586-5.0812 5.7897-3.6525 8.0622 1.2737 2.0259 3.7326 1.9398 6.5619 1.1812l6.5342-1.9144c2.0648-0.4219 7.5858-1.4063 9.8169-1.3418h14.159c2.9316 0 5.2917-2.0651 5.2917-4.6302 0-2.5651-2.3601-4.6302-5.2917-4.6302z" display="inline"/>
  <path d="m209.89 7.8279c0.65236 0 5.6171 0.10728 8.9995 0.36137 2.7666 0.55486 5.3996 1.3064 5.4934 1.3315l5.331 1.5803c2.8293 0.7586 5.0812 5.7897 3.6525 8.0622-1.2737 2.0259-3.7326 1.9398-6.5619 1.1812l-6.5342-1.9144c-2.0648-0.4219-7.5858-1.4063-9.8169-1.3418h-14.159c-2.9316 0-5.2917-2.0651-5.2917-4.6302 0-2.5651 2.3601-4.6302 5.2917-4.6302z" display="inline"/>
  <circle cx="97.718" cy="83.666" r="4.0952" display="inline"/>
 </g>
 <g display="none" fill="#fff">
  <circle cx="193.86" cy="67.657" r="7.3499" display="inline"/>
  <path d="m69.939 27.292c-0.29316 0-0.52917 0.23601-0.52917 0.52917v11.298h-11.298c-0.29315 0-0.52916 0.23601-0.52916 0.52916v9.0976c0 0.29316 0.23601 0.52917 0.52916 0.52917h11.298v11.298c0 0.29316 0.23601 0.52917 0.52917 0.52917h9.0982c0.29316 0 0.52917-0.23601 0.52917-0.52917v-11.298h11.298c0.29315 0 0.52915-0.23601 0.52915-0.52917v-9.0976c0-0.29316-0.236-0.52916-0.52915-0.52916h-11.298v-11.298c0-0.29316-0.23601-0.52917-0.52917-0.52917z" display="inline"/>
  <circle cx="210.22" cy="50.714" r="6.027" display="inline"/>
  <circle cx="179.35" cy="51.078" r="7.3499" display="inline"/>
  <path d="m85.173 4.5339c-0.65236 0-5.6171 0.10728-8.9995 0.36137-2.7666 0.55486-5.3996 1.3064-5.4934 1.3315l-5.331 1.5803c-2.8293 0.7586-5.0812 5.7897-3.6525 8.0622 1.2737 2.0259 3.7326 1.9398 6.5619 1.1812l6.5342-1.9144c2.0648-0.4219 7.5858-1.4063 9.8169-1.3418h14.159c2.9316 0 5.2917-2.0651 5.2917-4.6302 0-2.5651-2.3601-4.6302-5.2917-4.6302z" display="inline"/>
  <path d="m199.68 4.8734c0.65236 0 5.6171 0.10728 8.9995 0.36137 2.7666 0.55486 5.3996 1.3064 5.4934 1.3315l5.331 1.5803c2.8293 0.7586 5.0812 5.7897 3.6525 8.0622-1.2737 2.0259-3.7326 1.9398-6.5619 1.1812l-6.5342-1.9144c-2.0648-0.4219-7.5858-1.4063-9.8169-1.3418h-14.159c-2.9316 0-5.2917-2.0651-5.2917-4.6302 0-2.5651 2.3601-4.6302 5.2917-4.6302z" display="inline"/>
  <circle cx="139.84" cy="47.134" r="7.3499" display="inline"/>
  <circle cx="210.06" cy="27.819" r="6.027" display="inline"/>
  <circle cx="197.57" cy="38.497" r="6.027" display="inline"/>
  <circle cx="222.14" cy="39.253" r="6.027" display="inline"/>
  <g transform="translate(-3.4171 22.301)">
   <path d="m142.88 40.064-10.024 4.1517-4.1517 10.024 4.1517 10.024 10.024 4.1517 10.024-4.1517 4.1517-10.024-4.1517-10.024zm0 3.9905a10.185 10.185 0 0 1 10.185 10.185 10.185 10.185 0 0 1-10.185 10.185 10.185 10.185 0 0 1-10.185-10.185 10.185 10.185 0 0 1 10.185-10.185z"/>
   <circle cx="142.88" cy="54.24" r="8.5783" display="inline"/>
  </g>
 </g>
 <g display="none" fill="#fff">
  <rect transform="rotate(-35.097)" x="54.242" y="118.18" width="16.181" height="5.7429" rx="2.6458" ry="2.6458"/>
  <circle cx="194.67" cy="71.7" r="7.3499"/>
  <path d="m76.8 40.028c-0.29316 0-0.52917 0.23601-0.52917 0.52917v11.298h-11.298c-0.29315 0-0.52916 0.23601-0.52916 0.52917v9.0976c0 0.29316 0.23601 0.52917 0.52916 0.52917h11.298v11.298c0 0.29316 0.23601 0.52917 0.52917 0.52917h9.0982c0.29316 0 0.52917-0.23601 0.52917-0.52917v-11.298h11.298c0.29315 0 0.52915-0.23601 0.52915-0.52917v-9.0976c0-0.29316-0.236-0.52917-0.52915-0.52917h-11.298v-11.298c0-0.29316-0.23601-0.52917-0.52917-0.52917z"/>
  <circle cx="213.96" cy="57.591" r="7.3499"/>
  <circle cx="176.76" cy="57.388" r="7.3499"/>
  <circle cx="196.03" cy="43.227" r="7.3499"/>
  <rect transform="rotate(-35.097)" x="71.823" y="130.71" width="16.181" height="5.7429" rx="2.6458" ry="2.6458"/>
  <path d="m85.62 16.201c-0.65236 0-5.6171 0.10728-8.9995 0.36137-2.7666 0.55486-5.3996 1.3064-5.4934 1.3315l-5.331 1.5803c-2.8293 0.7586-5.0812 5.7897-3.6525 8.0622 1.2737 2.0259 3.7326 1.9398 6.5619 1.1812l6.5342-1.9144c2.0648-0.4219 7.5858-1.4063 9.8169-1.3418h14.159c2.9316 0 5.2917-2.0651 5.2917-4.6302s-2.3601-4.6302-5.2917-4.6302z"/>
  <path d="m200.13 16.54c0.65236 0 5.6171 0.10728 8.9995 0.36137 2.7666 0.55486 5.3996 1.3064 5.4934 1.3315l5.331 1.5803c2.8293 0.7586 5.0812 5.7897 3.6525 8.0622-1.2737 2.0259-3.7326 1.9398-6.5619 1.1812l-6.5342-1.9144c-2.0648-0.4219-7.5858-1.4063-9.8169-1.3418h-14.159c-2.9316 0-5.2917-2.0651-5.2917-4.6302 0-2.5651 2.3601-4.6302 5.2917-4.6302z"/>
 </g>
 <g display="none" fill="#fff">
  <rect x="145.19" y="54.297" width="14.818" height="5.2594" rx="2.6458" ry="2.6458"/>
  <rect x="119.69" y="54.297" width="14.818" height="5.2594" rx="2.6458" ry="2.6458"/>
  <circle cx="185.07" cy="56.244" r="8.8199"/>
  <circle cx="209.12" cy="56.244" r="8.8199"/>
  <path d="m80.162 30.186c-0.29316 0-0.52917 0.23601-0.52917 0.52917v11.298h-11.298c-0.29316 0-0.52917 0.23601-0.52917 0.52917v9.0976c0 0.29316 0.23601 0.52917 0.52917 0.52917h11.298v11.298c0 0.29316 0.23601 0.52917 0.52917 0.52917h9.0982c0.29316 0 0.52917-0.23601 0.52917-0.52917v-11.298h11.298c0.29316 0 0.52916-0.23601 0.52916-0.52917v-9.0976c0-0.29316-0.236-0.52917-0.52916-0.52917h-11.298v-11.298c0-0.29316-0.23601-0.52917-0.52917-0.52917z"/>
 </g>
 <g display="none" fill="#fff">
  <circle cx="119.29" cy="20.194" r="8.8199" display="inline"/>
  <path d="m149.45 32.218a25.829 25.829 0 0 0-25.829 25.829 25.829 25.829 0 0 0 25.829 25.829 25.829 25.829 0 0 0 25.829-25.829 25.829 25.829 0 0 0-25.829-25.829zm0 10.206a15.623 15.623 0 0 1 15.623 15.623 15.623 15.623 0 0 1-15.623 15.623 15.623 15.623 0 0 1-15.624-15.623 15.623 15.623 0 0 1 15.624-15.623z" display="inline"/>
  <path d="m161.31 54.868-1.2272 9.3215-7.4591 5.7235-9.3215-1.2272-5.7235-7.4591 1.2272-9.3215 7.4591-5.7235 9.3215 1.2272z"/>
 </g>
 <g display="none" fill="#fff">
  <path d="m142.87 36.118a20.58 20.58 0 0 0-20.58 20.58 20.58 20.58 0 0 0 20.58 20.58 20.58 20.58 0 0 0 20.58-20.58 20.58 20.58 0 0 0-20.58-20.58zm0 6.9489a13.631 13.631 0 0 1 13.631 13.631 13.631 13.631 0 0 1-13.631 13.631 13.631 13.631 0 0 1-13.631-13.631 13.631 13.631 0 0 1 13.631-13.631z" display="inline"/>
  <path d="m176.85 48.174-2.5391-2.9287-1.1198-11.667c-0.61591-6.4171-1.1271-12.108-1.1359-12.647-0.0153-0.93426 0.0652-1.0247 1.7531-1.9686l1.7692-0.98939 2.1141 2.1141 1.7744 14.872c1.7532 14.695 1.7681 14.877 1.2496 15.282-1.2449 0.9721-1.2184 0.98629-3.8656-2.0672z"/>
  <path d="m108.9 48.174 2.5391-2.9287 1.1198-11.667c0.61591-6.4171 1.1271-12.108 1.1359-12.647 0.0153-0.93426-0.0652-1.0247-1.7531-1.9686l-1.7692-0.98939-2.1141 2.1141-1.7744 14.872c-1.7532 14.695-1.7681 14.877-1.2496 15.282 1.2449 0.9721 1.2184 0.98629 3.8656-2.0672z"/>
  <circle cx="142.88" cy="56.697" r="10.205"/>
 </g>
</svg>
