<svg xmlns="http://www.w3.org/2000/svg" version="1" width="1897.3" height="456.5" viewBox="0 0 1897.28 456.5">
  <path d="M1873.1 447.11s-36-44.44-56.77-70.27c-6.95-8.65-12.1-15.1-13.91-17.46-2.52-3.32-4.32-5.71-5.5-6.88-1.24-1.2-1.42-1.26-2.36-1.6-.65-.19-1.8-.4-3.8-.4h-85c-2.77 0-5.47-1.12-7.43-3.07a10.57 10.57 0 0 1-3.07-7.43v-12.5h-74c-2.77 0-5.47-1.12-7.43-3.07a10.57 10.57 0 0 1-3.07-7.43v-57c0-2.76 1.12-5.47 3.07-7.42a10.57 10.57 0 0 1 7.43-3.08h75v-2h-77c-2.77 0-5.47-1.12-7.43-3.07a10.58 10.58 0 0 1-3.07-7.43v-54c0-2.76 1.12-5.47 3.07-7.42a10.57 10.57 0 0 1 7.43-3.08h75v-2h-90V340c0 2.77-1.12 5.47-3.08 7.42a10.57 10.57 0 0 1-7.42 3.08h-64.5c-2.77 0-5.47-1.12-7.43-3.07a10.58 10.58 0 0 1-3.07-7.43V150.5h-4.5V340c0 2.77-1.12 5.47-3.07 7.42a10.57 10.57 0 0 1-7.43 3.08h-157.5c-2.76 0-5.47-1.12-7.42-3.07a10.57 10.57 0 0 1-3.08-7.43V204.5c0-2.76 1.12-5.47 3.08-7.42a10.56 10.56 0 0 1 7.42-3.08h82V94.5h-101.5V341c0 2.77-1.12 5.47-3.08 7.43a10.57 10.57 0 0 1-7.42 3.07h-122.5c-2.77 0-5.47-1.12-7.42-3.07a10.57 10.57 0 0 1-3.08-7.43v-36c0-2.76 1.12-5.47 3.08-7.42a10.57 10.57 0 0 1 7.42-3.08h47.5V169h-124v125.5h45.5c2.77 0 5.47 1.12 7.43 3.07a10.57 10.57 0 0 1 3.07 7.43v36c0 2.76-1.12 5.47-3.07 7.43a10.57 10.57 0 0 1-7.43 3.07h-111.5c-3.13-.02-6.66-.02-10.69-.92a27.94 27.94 0 0 1-12.1-6.08c-.66-.57-.86-.79-1.2-1.13l-1.02-1.07c-.75-.8-1.7-1.83-2.83-3.08a1409.1 1409.1 0 0 1-8.77-9.8 7255.06 7255.06 0 0 1-24.98-28.26c-17.86-20.3-35.3-40.24-35.3-40.25a10.5 10.5 0 0 1 7.9-17.41h69V170h-88v170c0 2.77-1.13 5.47-3.08 7.42a10.56 10.56 0 0 1-7.42 3.08h-64c-2.77 0-5.47-1.12-7.43-3.08a10.56 10.56 0 0 1-3.07-7.42V107.96c0-2.77 1.12-5.47 3.07-7.43a10.58 10.58 0 0 1 7.43-3.07h85.5v-4.5H758.83v4.5h84c2.77 0 5.47 1.12 7.43 3.07a10.57 10.57 0 0 1 3.07 7.43v232c0 2.77-1.12 5.47-3.07 7.42a10.55 10.55 0 0 1-7.43 3.08h-64.5c-2.77 0-5.47-1.12-7.42-3.07a10.57 10.57 0 0 1-3.08-7.43v-13.5h-76c-2.76 0-5.47-1.12-7.42-3.08a10.56 10.56 0 0 1-3.08-7.42v-57c0-2.77 1.12-5.47 3.08-7.42a10.57 10.57 0 0 1 7.42-3.08h76v-2.5h-76.5c-2.76 0-5.47-1.12-7.42-3.07a10.57 10.57 0 0 1-3.08-7.43v-53.5c0-2.77 1.12-5.47 3.08-7.43a10.57 10.57 0 0 1 7.42-3.07h77v-3h-91.5v171.5c0 2.76-1.12 5.46-3.08 7.42a10.56 10.56 0 0 1-7.42 3.08h-67c-1.11 0-2.32-.03-3.77-.25-1.43-.2-3.06-.69-4.37-1.28-2.67-1.25-4-2.32-6.18-3.74-1.15-.78-1.57-1.25-1.99-1.66-.39-.4-.66-.73-.93-1.05-.5-.63-.95-1.22-1.43-1.9-.95-1.33-2.04-2.96-3.31-4.94a712.74 712.74 0 0 1-9.66-15.54 3694.07 3694.07 0 0 1-26.85-45.2c-19.1-32.55-37.6-64.69-37.6-64.7a10.5 10.5 0 0 1 9.09-15.74h81.5v-100h-99.58l-1.44 245.56a10.52 10.52 0 0 1-10.43 10.44c-.03 0-82.44.5-86.07.5a27.34 27.34 0 0 1-14.66-4.18 23.6 23.6 0 0 1-5.55-4.75l-76.88-92.88a10.5 10.5 0 1 1 16.18-13.39l76.75 92.72a6.27 6.27 0 0 0 4.17 1.48l44.24-.25 31.31-.19 1.44-245.62a10.5 10.5 0 0 1 10.5-10.44h120.5c2.77 0 5.47 1.12 7.43 3.08a10.57 10.57 0 0 1 3.07 7.42v121c0 2.77-1.12 5.47-3.07 7.43a10.57 10.57 0 0 1-7.43 3.07h-73.8c3.1 5.37 6.85 11.83 10.97 18.92 11.49 19.76 25.9 44.4 37.51 63.8 7.72 12.92 14.29 23.62 17.66 28.64.47.7.89 1.3 1.19 1.7.61.42 1.1.73 1.42.94h56.55v-171.5c0-2.76 1.12-5.47 3.08-7.42a10.57 10.57 0 0 1 7.42-3.08h112.5c2.77 0 5.47 1.12 7.43 3.08a10.56 10.56 0 0 1 3.07 7.42v24c0 2.77-1.12 5.47-3.07 7.42a10.57 10.57 0 0 1-7.43 3.08h-77v32.5h76.5c2.77 0 5.47 1.12 7.43 3.08a10.56 10.56 0 0 1 3.07 7.42v23.5c0 2.77-1.12 5.47-3.07 7.42a10.56 10.56 0 0 1-7.43 3.08h-76v36h76c2.77 0 5.47 1.12 7.43 3.08a10.57 10.57 0 0 1 3.07 7.42v13.5h43.5v-211h-84c-2.76 0-5.47-1.12-7.42-3.07a10.57 10.57 0 0 1-3.08-7.43V82.44c0-2.76 1.12-5.47 3.08-7.42a10.57 10.57 0 0 1 7.42-3.08h216.5c2.77 0 5.47 1.12 7.43 3.08a10.56 10.56 0 0 1 3.07 7.42v25.5c0 2.77-1.11 5.47-3.07 7.43a10.57 10.57 0 0 1-7.43 3.07h-85.5v211h43v-170c0-2.76 1.13-5.47 3.08-7.42a10.57 10.57 0 0 1 7.43-3.08h109c2.76 0 5.47 1.12 7.42 3.08a10.57 10.57 0 0 1 3.08 7.42v94.5c0 2.77-1.13 5.47-3.08 7.43a10.56 10.56 0 0 1-7.42 3.07h-56.35l15.9 18.11c16.28 18.52 34.15 38.75 39.77 44.82.5.55.94 1 1.14 1.2a6.54 6.54 0 0 0 2.98 1.48c1.21.29 3.18.4 6.06.4h101v-15h-45.5c-2.77 0-5.48-1.13-7.43-3.08a10.57 10.57 0 0 1-3.08-7.43v-146.5c0-2.76 1.12-5.47 3.08-7.42a10.56 10.56 0 0 1 7.42-3.08h145c2.77 0 5.47 1.12 7.43 3.08a10.57 10.57 0 0 1 3.07 7.42v146.5c0 2.77-1.12 5.47-3.07 7.43a10.57 10.57 0 0 1-7.43 3.07h-47.5v15h101.5V83.94c0-2.76 1.12-5.47 3.07-7.42a10.57 10.57 0 0 1 7.43-3.08h122.5c2.77 0 5.47 1.12 7.43 3.08a10.57 10.57 0 0 1 3.07 7.42v120.5c0 2.77-1.12 5.47-3.07 7.43a10.57 10.57 0 0 1-7.43 3.07h-82v114.5h136.5v-189.5c0-2.76 1.12-5.47 3.07-7.42a10.56 10.56 0 0 1 7.43-3.08h25.5c2.76 0 5.47 1.12 7.42 3.08a10.56 10.56 0 0 1 3.08 7.42v189.5h43.5v-169.5c0-2.76 1.12-5.47 3.07-7.42a10.57 10.57 0 0 1 7.43-3.08h111c2.76 0 5.47 1.12 7.42 3.08a10.57 10.57 0 0 1 3.08 7.42v23c0 2.77-1.12 5.47-3.08 7.43a10.58 10.58 0 0 1-7.42 3.07h-75v33h77c2.77 0 5.47 1.12 7.43 3.08a10.58 10.58 0 0 1 3.07 7.42v23c0 2.77-1.12 5.47-3.08 7.43a10.57 10.57 0 0 1-7.42 3.07h-75v36h74c2.76 0 5.47 1.12 7.42 3.08a10.57 10.57 0 0 1 3.08 7.42v12.5h74.5c3.42 0 6.66.35 9.76 1.27 3.1.9 5.97 2.43 8.28 4.23 4.66 3.7 7.15 7.6 10.3 11.62 1.06 1.4 4.34 5.52 8.77 11.04 4.45 5.56 10.13 12.6 16.23 20.17 12.2 15.12 26.07 32.28 35.22 43.59l10.1 12.47a10.5 10.5 0 0 1-8.15 17.11c-3.2 0-6.2-1.32-8.3-3.89z" fill="#fee600"/>
  <path d="M1881.3 456.5c-4.64 0-9.29-2.03-12.44-5.93-.2-.24-36.05-44.5-56.78-70.29a1493.93 1493.93 0 0 1-14-17.57 96.57 96.57 0 0 0-4.94-6.26l-.34-.32a13.5 13.5 0 0 0-2-.13h-85a16.04 16.04 0 0 1-16-16v-7h-68.5a16.08 16.08 0 0 1-11.32-4.68l-.19-.2V340a16.05 16.05 0 0 1-4.68 11.31c-3.01 3-7.06 4.68-11.31 4.7h-64.5a16.05 16.05 0 0 1-12.76-6.35 16.06 16.06 0 0 1-12.75 6.34h-157.5a16.05 16.05 0 0 1-14.81-9.97A16.06 16.06 0 0 1 1316.3 357h-122.5a16.05 16.05 0 0 1-15.5-12.05 16.07 16.07 0 0 1-15.5 12.05h-111.53c-3.12-.02-7.17 0-11.84-1.04a33.41 33.41 0 0 1-14.55-7.31c-.76-.65-1.24-1.16-1.45-1.37l-.04-.04-.04-.04-1.1-1.14a254.4 254.4 0 0 1-2.88-3.14c-2.27-2.51-5.29-5.88-8.8-9.83-7.03-7.9-16.07-18.15-25-28.3-17.87-20.3-35.32-40.25-35.32-40.25a16.08 16.08 0 0 1-1.46-1.95V340c0 4.25-1.69 8.3-4.68 11.31-3.02 3-7.07 4.68-11.32 4.7h-64a16.05 16.05 0 0 1-13-6.69 16.03 16.03 0 0 1-13 6.68h-64.74c-4.24 0-8.3-1.68-11.3-4.68-3-3.02-4.69-7.07-4.7-11.32v-8h-70.5c-3.44 0-6.76-1.11-9.5-3.13V340a16.05 16.05 0 0 1-16 16h-67.02c-1.17 0-2.73-.03-4.54-.3-2.02-.3-3.99-.89-5.9-1.74-3.18-1.48-4.95-2.88-6.85-4.1l-.06-.04-.06-.05a17.4 17.4 0 0 1-2.73-2.28l-.05-.04-.05-.05a22.5 22.5 0 0 1-1.23-1.4 42.8 42.8 0 0 1-1.65-2.18 139.3 139.3 0 0 1-3.46-5.15 703.4 703.4 0 0 1-9.73-15.68 3711.08 3711.08 0 0 1-26.9-45.27 10803.14 10803.14 0 0 1-37.03-63.69l-.73 126.06a16.03 16.03 0 0 1-15.92 15.9h-.05l-.18.01h-.69l-2.62.02-9.4.06-28.73.17c-21.07.12-42.54.25-44.41.25H396a32.87 32.87 0 0 1-20.03-6.77l-.51.5-71-85.76-9.73-11.76a15.98 15.98 0 0 1-1.26-18.66v-.12l.04.05a15.96 15.96 0 0 1 25.87-1.68l76.3 92.17c.04 0 .15 0 .38.03 1.57 0 23.2-.12 44.22-.25l25.87-.15 1.41-240.2c.06-8.8 7.2-15.9 16-15.9h120.5c4.25.01 8.3 1.69 11.31 4.69 3 3 4.68 7.06 4.69 11.31v121c-.01 4.25-1.69 8.3-4.69 11.32-3.01 3-7.06 4.67-11.31 4.68H539.8l6.18 10.66a6410.03 6410.03 0 0 0 37.48 63.75c7.69 12.86 14.27 23.59 17.52 28.4l.13.2 37.02-.01h11.93V158.05a16.04 16.04 0 0 1 16-16h112.5c4.25 0 8.3 1.69 11.31 4.68 3 3.02 4.68 7.07 4.69 11.32v24a16.04 16.04 0 0 1-16 16h-71.5v21.5h71a16.04 16.04 0 0 1 16 16v23.5c-.01 4.25-1.7 8.3-4.68 11.3-3.02 3.01-7.08 4.69-11.32 4.7h-70.5v25h70.5c4.25 0 8.3 1.69 11.31 4.69 3 3 4.68 7.06 4.7 11.31v8h32.49v-200h-78.5a16.07 16.07 0 0 1-11.32-4.69c-3-3.01-4.67-7.06-4.68-11.31v-25.5a16.04 16.04 0 0 1 16-16h216.5c4.25 0 8.3 1.68 11.31 4.68 3 3.01 4.68 7.07 4.7 11.32v25.5a16.05 16.05 0 0 1-4.7 11.3c-3 3-7.06 4.68-11.3 4.7h-80.01v200h32v-164.5c.01-4.25 1.69-8.3 4.69-11.3 3.01-3 7.06-4.69 11.31-4.7h109c4.25.01 8.3 1.7 11.32 4.7 3 3 4.67 7.06 4.68 11.3v94.5a16.06 16.06 0 0 1-4.68 11.32c-3.02 3-7.07 4.67-11.32 4.68h-44.2l7.89 8.98c16.26 18.49 34.17 38.77 39.69 44.72l.77.83.14.1h.01l.05.02.46.13c.45.1 2.04.24 4.32.23h.5a234870.02 234870.02 0 0 1 95.38 0v-4h-40a16.05 16.05 0 0 1-16-16V158.54c0-4.26 1.68-8.3 4.68-11.32 3.02-3 7.06-4.68 11.32-4.69h145a16.04 16.04 0 0 1 16 16v146.5a16.07 16.07 0 0 1-4.7 11.32c-3 3-7.05 4.68-11.3 4.68h-42v4h90.5v-241c0-4.25 1.68-8.3 4.68-11.31 3.02-3 7.07-4.68 11.32-4.69h122.5a16.03 16.03 0 0 1 16 16v120.5a16.05 16.05 0 0 1-4.7 11.32c-3 3-7.05 4.67-11.3 4.68h-76.5v103.5h125.5v-184c0-4.25 1.68-8.3 4.68-11.31 3.01-3 7.06-4.68 11.31-4.69h25.5a16.04 16.04 0 0 1 16 16v184h32.5v-164c.01-4.25 1.69-8.3 4.69-11.31 3.01-3 7.06-4.68 11.31-4.69h111a16.04 16.04 0 0 1 16 16v23a16.06 16.06 0 0 1-4.69 11.32c-3.01 3-7.06 4.67-11.3 4.68h-69.51v22h71.5c4.25.01 8.3 1.69 11.32 4.7 3 3 4.67 7.05 4.68 11.3v23a16.06 16.06 0 0 1-4.69 11.32c-3 3-7.06 4.67-11.3 4.68h-69.51v25h68.5c4.25.01 8.3 1.69 11.31 4.69 3 3.01 4.68 7.06 4.69 11.31v7h69c3.8 0 7.58.39 11.3 1.49a30.66 30.66 0 0 1 10.16 5.2c5.42 4.32 8.28 8.82 11.25 12.6.97 1.26 4.28 5.43 8.7 10.94 4.44 5.54 10.11 12.6 16.2 20.15a36747.1 36747.1 0 0 0 35.23 43.58l10.1 12.48c0-.01 0-.02 0 0a15.98 15.98 0 0 1-2.36 22.5 15.97 15.97 0 0 1-10.05 3.56h-.3zM1746.6 345h44.19c2.38 0 4.05.24 5.39.64l.12.04.12.04c.4.14 1.28.42 2.23 1.04.9.6 1.44 1.13 2.12 1.77l.06.06c1.75 1.78 3.44 4.12 5.98 7.44 1.72 2.25 6.9 8.73 13.84 17.36 20.75 25.82 56.75 70.25 56.75 70.25l-4.27 3.47 4.27-3.47a4.97 4.97 0 0 0 7.03.75 4.99 4.99 0 0 0 .56-7.27l-.54-.66-2.04-2.52-7.34-9.06a32849.52 32849.52 0 0 1-51.46-63.78c-4.45-5.55-7.7-9.63-8.81-11.09-3.37-4.33-5.48-7.6-9.35-10.67a19.64 19.64 0 0 0-6.46-3.3 28.73 28.73 0 0 0-8.2-1.04h-80v-18a5.08 5.08 0 0 0-1.47-3.54 5.08 5.08 0 0 0-3.53-1.46h-79.5v-47h80.5a5.1 5.1 0 0 0 3.53-1.46 5.1 5.1 0 0 0 1.47-3.54v-23a5.1 5.1 0 0 0-1.46-3.54 5.1 5.1 0 0 0-3.54-1.46h-82.5v-44h80.5a5.09 5.09 0 0 0 3.54-1.46c.9-.9 1.47-2.26 1.46-3.54v-23a5.09 5.09 0 0 0-1.47-3.54 5.08 5.08 0 0 0-3.53-1.46h-111c-1.28 0-2.64.55-3.54 1.46a5.1 5.1 0 0 0-1.46 3.54v175h-54.5V140a5.08 5.08 0 0 0-1.47-3.54 5.08 5.08 0 0 0-3.53-1.46h-25.5a5.08 5.08 0 0 0-3.54 1.47c-.9.9-1.47 2.25-1.46 3.53v195h-147.5V209.5h87.5a5.08 5.08 0 0 0 3.54-1.48c.9-.89 1.47-2.25 1.46-3.53V84a5.1 5.1 0 0 0-1.46-3.53 5.1 5.1 0 0 0-3.54-1.47h-122.5a5.1 5.1 0 0 0-3.54 1.47 5.1 5.1 0 0 0-1.46 3.53v252h-112.5v-26h53c1.28.01 2.64-.55 3.54-1.46a5.09 5.09 0 0 0 1.47-3.53V158.5a5.08 5.08 0 0 0-1.47-3.54 5.07 5.07 0 0 0-3.53-1.47h-145c-1.28 0-2.64.56-3.54 1.47a5.07 5.07 0 0 0-1.46 3.54V305a5.08 5.08 0 0 0 1.46 3.53 5.1 5.1 0 0 0 3.54 1.47h51v26h-106.88c-2.86-.02-4.9-.09-6.96-.55l-.05-.01-.04-.01a12.36 12.36 0 0 1-5.02-2.5l-.28-.21-.26-.26-1.22-1.3c-5.75-6.2-23.57-26.39-39.87-44.93l-15.9-18.1-8-9.14h68.48a5.08 5.08 0 0 0 3.53-1.46 5.08 5.08 0 0 0 1.47-3.53v-94.5a5.09 5.09 0 0 0-1.47-3.54 5.08 5.08 0 0 0-3.53-1.46H932.88c-1.28-.01-2.64.55-3.54 1.46a5.08 5.08 0 0 0-1.47 3.54V335h-54V112.97h91a5.08 5.08 0 0 0 3.54-1.47c.91-.9 1.48-2.25 1.46-3.53v-25.5a5.06 5.06 0 0 0-1.46-3.54 5.07 5.07 0 0 0-3.53-1.47H748.37a5.1 5.1 0 0 0-3.54 1.47 5.08 5.08 0 0 0-1.47 3.53v25.5a5.08 5.08 0 0 0 1.47 3.54c.9.9 2.25 1.47 3.54 1.46h89.5v222h-54.5v-19c0-1.28-.56-2.63-1.47-3.53a5.1 5.1 0 0 0-3.54-1.47h-81.5v-47h81.5a5.1 5.1 0 0 0 3.54-1.46 5.08 5.08 0 0 0 1.46-3.54v-23.5c.01-1.28-.55-2.64-1.46-3.54a5.1 5.1 0 0 0-3.54-1.46h-82v-43.5h82.5c1.28.01 2.64-.55 3.54-1.47.9-.9 1.47-2.25 1.46-3.53v-24c.01-1.28-.55-2.64-1.46-3.53a5.08 5.08 0 0 0-3.53-1.47H666.36a5.1 5.1 0 0 0-3.54 1.47 5.08 5.08 0 0 0-1.47 3.53v177h-62l-.36-.01-1.44-.08-1.21-.78c-.37-.23-.87-.56-1.51-.99l-.83-.55-.58-.8a54.4 54.4 0 0 1-1.29-1.86c-3.52-5.24-10.07-15.93-17.82-28.88a6451.6 6451.6 0 0 1-37.54-63.87c-4.13-7.09-7.87-13.55-10.99-18.92l-4.77-8.26h83.34a5.08 5.08 0 0 0 3.54-1.46 5.08 5.08 0 0 0 1.46-3.54V83.98c.01-1.28-.55-2.64-1.46-3.54a5.08 5.08 0 0 0-3.54-1.46h-120.5a5 5 0 0 0-5 4.97L477.38 335l-5.43.03-31.32.19-44.32.25c-2.7.04-5.15-1-6.25-1.73l-.04-.03-.05-.03c-.74-.47-1.22-.88-1.55-1.19l-.25-.23-76.97-92.98a4.97 4.97 0 0 0-7.04-.66 4.97 4.97 0 0 0-.7 6.98l76.37 92.28.54.64c.4.48 1.7 1.99 4.27 3.62a21.85 21.85 0 0 0 11.65 3.33h.06c3.58 0 85.98-.5 86.03-.5 2.7 0 4.97-2.27 4.97-4.97l1.47-251.03h110.54v111h-87a4.98 4.98 0 0 0-4.37 7.42l.02.04.01.02.02.03.04.07.16.28.62 1.08 2.36 4.08a11806.13 11806.13 0 0 0 34.4 59.13 3686.5 3686.5 0 0 0 26.8 45.13c3.8 6.26 7.08 11.54 9.58 15.41 1.25 1.95 2.3 3.52 3.16 4.73.46.64.82 1.12 1.2 1.58.23.28.37.45.6.7.52.5.37.4 1.19 1 2.38 1.55 3.26 2.28 5.35 3.26.76.35 2.04.73 2.92.85 1.05.16 1.9.18 2.94.19h67c1.29 0 2.64-.56 3.54-1.47a5.08 5.08 0 0 0 1.46-3.53V162.96h102.51v14h-82.5a5.1 5.1 0 0 0-3.53 1.46 5.09 5.09 0 0 0-1.46 3.54v53.5c-.01 1.28.55 2.64 1.46 3.53a5.1 5.1 0 0 0 3.54 1.47h82v13.5h-81.5a5.07 5.07 0 0 0-3.54 1.46 5.07 5.07 0 0 0-1.46 3.54v57c-.01 1.28.55 2.64 1.47 3.53.89.91 2.25 1.47 3.53 1.46h81.5v19a5.08 5.08 0 0 0 1.46 3.54c.9.91 2.25 1.48 3.53 1.47h64.5c1.29 0 2.64-.56 3.54-1.47a5.08 5.08 0 0 0 1.46-3.53v-232a5.1 5.1 0 0 0-1.46-3.54 5.08 5.08 0 0 0-3.53-1.46h-89.5v-15.5h206.5v15.5h-91a5.1 5.1 0 0 0-3.53 1.46 5.08 5.08 0 0 0-1.46 3.54v232c-.01 1.27.55 2.63 1.46 3.53.9.91 2.26 1.48 3.54 1.47h64c1.28 0 2.63-.56 3.53-1.47a5.08 5.08 0 0 0 1.47-3.53v-175.5h99v84.5h-74.5a5.01 5.01 0 0 0-3.76 8.3l.04.05.15.17.59.67 2.22 2.53c1.91 2.2 4.65 5.32 7.95 9.08 6.59 7.52 15.41 17.58 24.34 27.72a7171.66 7171.66 0 0 0 24.96 28.25c3.5 3.94 6.5 7.29 8.74 9.76a272.8 272.8 0 0 0 3.7 4c.4.4.36.37.86.8a22.52 22.52 0 0 0 9.7 4.88c3.38.75 6.38.78 9.5.79h111.5a5.09 5.09 0 0 0 3.54-1.47 5.1 5.1 0 0 0 1.47-3.53v-36a5.08 5.08 0 0 0-1.47-3.54 5.09 5.09 0 0 0-3.53-1.46h-51V163.48h135v136.5h-53c-1.28-.01-2.64.55-3.54 1.46a5.09 5.09 0 0 0-1.47 3.54v36a5.09 5.09 0 0 0 1.47 3.53c.9.91 2.25 1.48 3.53 1.47h122.5a5.09 5.09 0 0 0 3.54-1.47 5.1 5.1 0 0 0 1.46-3.53v-252h112.5v110.5h-87.5c-1.28-.01-2.63.55-3.53 1.46a5.09 5.09 0 0 0-1.47 3.54v135.5a5.07 5.07 0 0 0 1.47 3.54c.9.9 2.25 1.47 3.53 1.46h157.5c1.28.01 2.64-.55 3.54-1.47a5.08 5.08 0 0 0 1.46-3.53v-195h15.5v195a5.09 5.09 0 0 0 1.47 3.54c.9.9 2.25 1.47 3.53 1.46h64.5c1.28.01 2.64-.55 3.53-1.47a5.08 5.08 0 0 0 1.47-3.53v-175h101v13h-80.5c-1.28 0-2.64.56-3.53 1.46a5.1 5.1 0 0 0-1.47 3.54v54a5.09 5.09 0 0 0 1.46 3.54c.9.9 2.26 1.47 3.54 1.46h82.5v13h-80.5c-1.28 0-2.64.55-3.53 1.46a5.07 5.07 0 0 0-1.47 3.54v57a5.07 5.07 0 0 0 1.46 3.53c.9.92 2.26 1.48 3.54 1.47h79.5v18a5.08 5.08 0 0 0 1.47 3.54c.89.9 2.25 1.47 3.53 1.46h40.8zm-623.8-56h40c4.25 0 8.3 1.69 11.32 4.68a16.06 16.06 0 0 1 4.18 7.37 16.04 16.04 0 0 1 15.5-12.05h42V174.5h-113V289zm-164.24-31.66l-.02-.02-.01-.02.02.04zm-9.78-11.92a16 16 0 0 1 13.5-7.41h63.5v-62.5h-77v69.9l-.02.01zm383.52-48.65a16.05 16.05 0 0 1 14-8.26h76.5V100h-90.5v96.77zm-833.18-.87a16 16 0 0 1 13.16-6.9h76v-89h-88.6l-.57 95.9zm356.66-97.22l.13-.17h-.26l.13.17z"/>
  <path d="M1507.4 102.43l-35.5-35.5a10.5 10.5 0 0 1 .1-14.96l35.5-34.5a10.5 10.5 0 0 1 14.8.16l34.5 35a10.5 10.5 0 0 1 0 14.74l-34.5 35c-1.97 2-4.63 3.12-7.44 3.13h-.03a10.4 10.4 0 0 1-7.5-3.08zm-13.2-42.82l20.49 20.5 19.8-20.1-19.9-20.21-20.4 19.81z" fill="#fee600"/>
  <path d="M1514.8 111a16 16 0 0 1-11.32-4.69l3.89-3.89-3.89 3.9-35.5-35.5a16 16 0 0 1-4.69-11.3v-.1l.01-.2a16 16 0 0 1 4.85-11.19l35.5-34.5a15.96 15.96 0 0 1 22.54.24l34.5 35a15.97 15.97 0 0 1 0 22.47l-34.5 35a15.99 15.99 0 0 1-11.35 4.77h.1zm0-11h.01a4.97 4.97 0 0 0 3.54-1.5l34.5-34.99a4.97 4.97 0 0 0 0-7.02l-34.5-35a4.97 4.97 0 0 0-7.04-.08l-35.5 34.5a5.03 5.03 0 0 0-1.51 3.55v.14a5.01 5.01 0 0 0 1.46 3.43l35.5 35.5c1 .96 2.2 1.47 3.6 1.47zm-24.5-36.5l-3.94-3.95 28.3-27.5L1542.2 60l-27.5 27.9-24.5-24.4zm24.4 8.8l12.12-12.3-12.28-12.45-12.47 12.12 12.7 12.62z"/>
  <g>
    <path d="M140.21 379.02c-21.68 0-42.78-4.11-59.42-11.58-18.15-8.15-30.56-19.99-35.88-34.23l-27.56-73.79c.4.1.81.18 1.26.25.54.09 1.08.16 1.61.23 2.03.28 3.78.52 5.42 1.4 2.2 1.17 2.86 2.95 3.86 6l2.81 8.48c.62 1.87 2.81 2.6 7.82 2.6a33.38 33.38 0 0 0 2.52-.07c1.02-.03 1.98-.07 2.94-.07 1.67 0 3.03.12 4.27.38 2.9.6 5.29 1.71 6.91 3.23.9.84 1.24 1.76 1.7 3.03.26.74.56 1.57 1 2.44 2.15 4.16 7.15 6.55 13.72 6.55 1.15 0 2.3-.08 3.43-.22 1.54-.2 3.02-.54 4.45-.86 1.86-.43 3.63-.82 5.43-.92a27.36 27.36 0 0 1 8.62.86c2.94.8 5.28 1.96 6.97 3.49.44.38.83.76 1.22 1.13a17.54 17.54 0 0 0 4.51 3.41 21.9 21.9 0 0 0 9.58 2.12c3.57 0 7.13-.78 10.3-2.25l.62-.29c2.81-1.31 5.25-2.45 8.15-2.96a30.52 30.52 0 0 1 8.98-.22c2.87.34 5.5 1.44 8.3 2.6 3.06 1.27 6.22 2.6 9.83 2.94.8.07 1.61.11 2.4.11 2.74 0 5.35-.44 7.74-1.32 3.02-1.1 4.9-2.88 6.9-4.76l.52-.49c4.17-3.9 10.5-4.49 13.9-4.49.58 0 1.17.02 1.75.05 2.04.12 4 .5 6.09.9 2.48.49 5.05.99 7.73.99 1.94 0 3.73-.26 5.48-.8 3.93-1.2 6.7-3.56 7.8-6.63l.04-.09.02-.09c.7-2.63 1.6-4.04 3.28-5.22a16.36 16.36 0 0 1 7.52-2.62c.64-.08 1.33-.11 2.12-.11.82 0 1.65.03 2.52.07.88.05 1.8.09 2.72.09.65 0 1.24-.02 1.8-.07l.36-.02c1.76-.12 5.02-.34 5.96-3.07l1.6-4.72c.24-.73.47-1.51.68-2.27.59-2.06 1.19-4.18 2.3-5.44 1.69-1.9 4.49-2.57 6.54-2.8l.45-.06c.92-.1 1.93-.21 2.94-.43l-28 73.58c-5.42 14.25-18.02 26.12-36.43 34.34-16.91 7.55-38.25 11.7-60.09 11.7" fill="#991a37"/>
    <path d="M268.2 255.41l-.05.04-.07.08.12-.12m0 0zm0 0zm.02-.03l-.08.1.01-.03.08-.07m0-.01v.01-.01m0 0a.41.41 0 0 0-.03.03.12.12 0 0 0 .04-.04m-255.19-1.3l29.85 79.9c11.79 31.56 54.48 47.21 97.31 47.21 43.2 0 86.53-15.9 98.53-47.42l30.32-79.64c-.18.47-.47.9-.82 1.27l.07-.08-.11.12-.12.12-.62.63.68-.69c-1.85 1.81-4.6 2.01-7.03 2.3-2.86.32-5.93 1.3-7.9 3.5-1.92 2.18-2.5 5.76-3.41 8.45l-1.6 4.71c-.52 1.51-2.99 1.54-4.45 1.65-.54.04-1.09.06-1.63.06-1.75 0-3.5-.16-5.25-.16-.79 0-1.58.03-2.37.12a18.7 18.7 0 0 0-8.5 3c-2.37 1.65-3.4 3.7-4.12 6.43-1 2.8-3.7 4.48-6.42 5.31-1.66.5-3.26.7-4.85.7-4.58 0-8.96-1.61-13.7-1.88a32 32 0 0 0-1.87-.06c-5.42 0-11.38 1.34-15.36 5.07-2.14 2-3.85 3.77-6.7 4.8a20.44 20.44 0 0 1-6.99 1.2c-.73 0-1.47-.04-2.2-.11-6.44-.62-11.62-4.75-18.08-5.54a33.38 33.38 0 0 0-9.61.25c-3.4.6-6.2 1.97-9.3 3.41a22.5 22.5 0 0 1-9.4 2.06c-3 0-5.98-.61-8.63-1.9-2.17-1.07-3.49-2.67-5.24-4.22-2.19-1.98-5.03-3.2-7.85-3.96a29.49 29.49 0 0 0-9.29-.93c-3.45.18-6.65 1.34-10.04 1.79-.98.12-2.05.2-3.15.2-4.55 0-9.69-1.27-11.8-5.39-1.14-2.2-1.22-4.24-3.16-6.06-2.17-2.02-5.08-3.16-7.94-3.75a22.9 22.9 0 0 0-4.7-.43c-1.43 0-2.85.08-4.31.13l-1.15.01c-1.96 0-5.46-.14-5.79-1.13l-2.6-7.87c-1.07-3.22-1.83-6.08-5.1-7.83-2.46-1.32-5.02-1.43-7.7-1.85-2.2-.35-5.06-1.21-5.92-3.5m0-.02v0m248.4 8.01l-10.64 27.93-16.08 42.24c-5.21 13.7-17.42 25.16-35.3 33.14-16.64 7.43-37.67 11.52-59.22 11.52-21.38 0-42.18-4.05-58.54-11.4-17.62-7.9-29.63-19.32-34.75-33.02l-26.27-70.33c1.56.22 2.85.45 3.97 1.06 1.42.76 1.89 1.85 2.85 4.78l.2.61 1.56 4.73 1.04 3.14c1.35 4.08 6.89 4.08 9.86 4.08a43.55 43.55 0 0 0 2.6-.07c1-.04 1.94-.07 2.86-.07 1.54 0 2.72.1 3.84.33 2.5.52 4.54 1.45 5.88 2.7.48.44.68.93 1.14 2.19.29.8.61 1.7 1.12 2.7 2.53 4.9 8.22 7.7 15.62 7.7 1.25 0 2.49-.08 3.7-.24 1.65-.2 3.17-.55 4.65-.89 1.78-.4 3.45-.78 5.07-.86a25.14 25.14 0 0 1 7.95.8c2.61.68 4.66 1.7 6.12 3.01.39.34.76.7 1.15 1.07a19.47 19.47 0 0 0 5.05 3.79 24.04 24.04 0 0 0 10.52 2.34c3.88 0 7.75-.85 11.2-2.45l.63-.3c2.67-1.24 4.99-2.32 7.61-2.79a28.3 28.3 0 0 1 8.35-.2c2.58.3 5.08 1.35 7.73 2.45 3.21 1.34 6.53 2.72 10.46 3.09a24.65 24.65 0 0 0 11.07-1.32c3.44-1.25 5.58-3.27 7.65-5.22l.51-.49c2.65-2.48 7.18-3.9 12.42-3.9.55 0 1.1.02 1.64.05 1.9.1 3.79.47 5.8.86a41.9 41.9 0 0 0 8.14 1.02c2.16 0 4.15-.29 6.1-.88 4.6-1.4 7.87-4.24 9.2-7.97l.07-.17.04-.17c.57-2.13 1.19-3.15 2.44-4.03a14.47 14.47 0 0 1 6.55-2.24c.54-.07 1.15-.1 1.86-.1.77 0 1.57.04 2.42.08.91.04 1.85.08 2.82.08.7 0 1.34-.02 1.96-.06l.34-.03c1.93-.13 6.45-.43 7.85-4.53l.74-2.19.86-2.52c.26-.78.5-1.6.71-2.38.5-1.73 1.06-3.7 1.85-4.6.94-1.05 2.72-1.79 5.03-2.07" fill="#010101"/>
    <path d="M130.46 168.53c-4.15 0-7.9 1.6-11.96 1.86-3.96.26-7.92-.42-11.88-.12-5.06.4-9.37 3.14-14.5 3.14-4.74 0-9.67-.09-14 2.17-7.08 3.67-17.55 1.36-23.4 7.4-4.73 4.9-13.64 2.43-19.04 7.54-1.4 1.32-1.61 3.53-3.39 4.14-2 .69-4.07 1.11-6.07 1.79-3.93 1.32-8.12 3.6-9.64 7.71-.98 2.65.34 3-2.33 4.1a22.24 22.24 0 0 0-5.23 2.88c-2.9 2.25-3.68 5.34-4.1 9.03-.03.27.04 4.99.05 4.98a14.6 14.6 0 0 0-3.52 4.07c-2.11 3.73-1.7 7.7-.14 11.56 1.7 4.2 3.14 5.79 3.31 10.1-.18 2.08.82 4.23 1.58 6.08 3.21 7.9 5.04 13.93 14.63 14.13 1.94.04 2.85 7.65 3.57 9.57 1.78 4.73 6.04 7.99 10.85 9.27 6.49 1.74 16.74-2.1 19.64 5.48 3.29 8.59 13.5 11.76 21.93 11.08 6.8-.56 16.81-4.87 22.38 1.45 6.43 7.3 17.35 9.15 26.45 6.76 8.34-2.2 14.46-7.26 23.48-3.8 9.95 3.84 19.15 7.23 29.42 1.64 7.23-3.93 9.9-9.4 19.3-7.81 8.29 1.4 16.2 3.16 23.87-1.66 5.6-3.5 5.74-11.6 12.43-12.39 5.9-.7 11.62.7 17.21-2.2 6.75-3.52 8.32-11.16 9.83-18 5.94-.88 11.09-2.49 13.26-8.84 1.36-3 2.76-6.24 3.2-9.54.2-1.3.14-2.65-.15-3.95.98-1.26 1.96-2.4 2.65-3.86 3.36-7.06 2.58-15.3-4.25-19.84 1.8-6.47-.22-11.05-6.12-14.47-2.98-1.72-4.62-1.44-5.51-4.7-.84-3-2.22-5.37-4.87-6.93-3.42-2-7.29-2.37-10.88-3.86-1.47-3.84-5.23-6.11-8.96-7.34-3.1-1.02-6.32-1.16-9.44-2-3.21-.85-5.03-3.85-8.32-5.05-3.57-1.3-7.36-1.41-11.09-1.8-4.02-.43-6.81-2.87-10.62-3.85-4.02-1.06-7.96-.79-12.03-1.03-4.1-.25-7.56-2.39-11.6-2.9-3.2-.41-6.4-.14-9.62-.01-4.38.17-8.34-1.21-12.64-1.75-4.05-.5-8.01.25-12.04.65-3.99.42-7.72-.87-11.7-.87" fill="#010101"/>
    <path d="M117.95 310.35c-5.36 0-11.02-1.77-14.71-6.05-2.89-3.35-7.26-4.75-11.44-5.2-5.99-.63-11.4 1.96-17.3 1.96-5.24 0-11.34-1.78-14.13-6.85-1.06-1.95-1.05-4.24-2.69-5.82-2.14-2.1-5.24-3.05-8.09-3.4-5.62-.7-11.14 1.08-16.34-2.22a9.31 9.31 0 0 1-4.2-5.92c-.36-1.32-2.55-8.92-2.86-10.53-.45-2.37-7.68-.75-10.1-2.14-2.2-1.26-3.31-4.6-4.02-6.17-.7-1.56-2.87-6.43-3.01-7.96.36-.73 8.29-2.37 8.29-2.37s-1.39-.38-3.81-1.22c-2.43-.83-5.26-3.26-5.97-4.62-.7-1.36-4.06-7.21-3.02-10.18 1.54-1.92 9.28-1.72 11-3.15-.4-.48-4.73-3.7-5.21-4.36-1.67-2.27-1.29-7.3.44-9.36 1.82-2.17 9.74-1.08 12.53-2.72 1.08-.64-3.88-.33-2.9-1.16 1.25-1.06.75-4.6.94-6.12.78-6.23 11.24-4.26 15.23-5.84 1.2-.47 2.33.57 3.32-.27.61-.51.55-2.32 1.08-3.16 1.4-2.2 6.75-5.06 9.06-5.77 2.6-.79 2.58.82 5.16-.01 1.24-.4 2.57-.88 3.62-1.7.86-.67 1.28-1.98 2.28-2.7a21.39 21.39 0 0 1 8-3.62c2.87-.6 5.86-.52 8.95-.52 2.1 0 3.29-2.37 5.3-3.1a21.02 21.02 0 0 1 7.69-2.19c2.55.14 6.11.92 8.57.21 2.2-.63 4.04-1.94 6.33-2.39 5.09-1 10.13.54 15.23-.34 2.23-.39 4.26-1.38 6.51-1.66 2.67-.34 5.47-.26 8.08.44 5.29 1.43 10.2-.65 15.45-.59 3.92.05 7.32 1.75 11.16 2.12 4.7.44 9.27-.83 13.95.27 2.13.5 3.89 1.78 5.98 2.34 2.61.7 5.29-.23 7.97-.3 2.33.2 3.9 1.11 7 2.49 2.72 1.13 4.38 2.21 6.83 3.05 2.83.96 3.38-.44 6.47-.1 3.28.35 8.26 2.57 10.52 4.53.9.8 1.24 1.99 2.25 2.6 1.05.64 2.22 1.07 3.38 1.43 2.02.62.47-1.24 2.54-.88 3.18.64 8.44 3.6 10.28 5.3.97.88 1.73 2.07 1.88 3.45.12 1.25 1.25 1.59 2.4 1.36.44-.08.9-.23 1.56-.06 2.48.8 8.54-.47 11.12 1.77 1.83 1.6 3.3 1.64 3.68 4.34.16 1.23.61 7.07 1.55 6.96 2.44 1.09 7.03.13 9.24 2.78.97 1.16 1.74 2.18 1.22 4.16-.53 1.99-2.31 8.1-1.83 8.47 2.3 1.76 5.95 1.2 6.97 3.74 1.1 2.74-.41 8.88-2.02 10.7-.48.53-3.03 3.81-3.1 4.44 1.2 1.65 1.14 2.03 1.08 3.2-.06 1.17-.9 4.37-2.94 8.9-1.9 6.14-9.12 4.88-13.72 6.47-.44 2.45-2.6 12.88-4.5 15.33-3.77 4.85-10.06 4.48-15.4 4.3-2.7-.08-5.47.32-7.98 1.4-1.16.51-2.27 1.18-3.2 2.07-1.22 1.2-1.43 2.46-1.9 4.05-1.72 5.59-7.48 8.13-12.63 8.61-4.31.4-8.08-.9-12.26-1.62a24.6 24.6 0 0 0-12.28.92 14.2 14.2 0 0 0-5.12 2.97c-1.36 1.3-2.44 2.75-4.01 3.82-3.43 2.35-7.6 3.35-11.67 3.35-4.15 0-8.34-1.05-11.97-3.2-3.58-2.08-7.81-2.88-11.87-2.88s-8.3.8-11.87 2.9a23.85 23.85 0 0 1-12 3.2" fill="#991a37"/>
    <path d="M117.42 296.94c-5.49 0-11.29-1.62-15.06-5.5-2.95-3.04-7.43-4.31-11.7-4.71-6.13-.58-11.66 1.78-17.71 1.78-5.36 0-11.6-1.63-14.45-6.23-1.09-1.76-1.08-3.85-2.76-5.28-2.19-1.91-5.36-2.77-8.28-3.1-5.74-.63-11.4 1-16.72-2-2.13-1.2-3.8-3.07-4.3-5.38a7.32 7.32 0 0 1 .12-3.36c.3-1.08.91-2.07.4-3.19-.91-2.03-3.83-2.88-5.95-3.22-2.71-.43-5.34-.47-7.83-1.73-2.25-1.14-4-3.14-4.1-5.6-.13-2.77 1.64-4.61 3.4-6.6 1.79-2.01.6-3.4-1.81-4-2.57-.62-5.19-2-5.99-4.53-.84-2.62.76-5.14 2.8-6.84 1.77-1.46 4.5-2.31 5.66-4.34.4-.7-1.94-1.73-2.44-2.33-1.7-2.07-1.18-4.73.58-6.6 1.86-1.96 4.43-2.93 6.95-3.93a14.13 14.13 0 0 0 3.32-1.78c1.28-.96.35-1.12.1-2.49-1.14-6 8.33-7.28 12.41-8.71 1.22-.43 2.47-.95 3.5-1.71.61-.47.56-2.11 1.1-2.87 1.42-2 4.12-3 6.49-3.65 2.65-.71 5.42-.84 8.06-1.6 1.26-.36 2.63-.8 3.7-1.55.88-.6 1.3-1.8 2.33-2.44 5.13-3.25 11.75-1.85 17.35-3.76 2-.68 3.36-2.15 5.42-2.8 2.8-.9 5.87-1.17 8.8-1.04 2.61.13 5.32-.13 7.84-.77 2.25-.57 4.13-1.77 6.48-2.17 5.2-.9 10.36.49 15.57-.31 2.28-.35 4.36-1.25 6.68-1.51 2.73-.3 5.6-.24 8.26.4 5.4 1.3 10.43-.59 15.8-.53 4.01.04 7.5 1.58 11.42 1.92 4.8.4 9.49-.75 14.27.24 2.19.46 3.98 1.62 6.13 2.13 2.67.64 5.38.75 8.12.7a26.4 26.4 0 0 1 7.35.82c2.6.69 4.33 2.47 6.83 3.23 5.58 1.7 12.58.33 17.38 4.03.94.72 1.28 1.8 2.32 2.35 1.07.58 2.27.98 3.45 1.3 2.07.57 4.2.73 6.3 1.18 2.4.52 4.94 1.3 6.82 2.83 1 .81 1.77 1.9 1.92 3.14.13 1.13 1.39 1.57 2.46 2.04 3.41 1.5 7.2 1.77 10.44 3.7 2.06 1.24 3.92 3.27 3.4 5.7-.22.99-1.04 1.34-.16 2.07 1.07.89 2.38 1.53 3.69 2.04 3.89 1.55 11.15 4.96 7.92 10.04a6.24 6.24 0 0 1-2.54 2.16c-.73.36.12 1.03.53 1.44 1.83 1.84 4.47 2.7 6.24 4.64 1.7 1.85 2.5 4.42 1.22 6.68-1.45 2.55-4.1 2.82-6.63 3.9-2.76 1.18-.9 3.11.47 4.54 1.89 1.96 3.14 4.64 2.22 7.28-1.94 5.57-8.69 4.65-13.4 6.1-2.2.69-4.85 2.31-3.78 4.82a7.27 7.27 0 0 1-1.12 7.8c-3.85 4.4-10.3 4.07-15.75 3.91-2.76-.07-5.6.28-8.17 1.27a11.2 11.2 0 0 0-3.27 1.88c-1.26 1.08-1.47 2.23-1.96 3.67-1.75 5.07-7.65 7.38-12.92 7.82-4.4.36-8.27-.82-12.54-1.48a28.26 28.26 0 0 0-12.57.84 15.1 15.1 0 0 0-5.23 2.7c-1.4 1.18-2.5 2.5-4.11 3.46-3.51 2.14-7.78 3.05-11.94 3.05-4.25 0-8.53-.96-12.25-2.9-3.66-1.9-8-2.62-12.14-2.62-4.15 0-8.5.72-12.14 2.64a26.68 26.68 0 0 1-12.3 2.92" fill="#cb2027"/>
    <path d="M174.3 209.84c0 8.77-15.61 15.89-34.86 15.89-19.26 0-34.87-7.12-34.87-15.9 0-8.77 15.61-15.88 34.87-15.88 19.25 0 34.86 7.12 34.86 15.88" fill="#010101"/>
    <path d="M177.62 267.31c-3.89 0-7.76-.7-11.2-2.03-4.2-1.62-7.29-4.04-8.92-7l-.44-.75c-.67-1.12-.78-1.55-.87-3.26l-.15-3.2-.24-5.02 3.8 3.31c1.07.94 2.32 1.78 3.7 2.5a31.13 31.13 0 0 0 14.2 3.24c4.88 0 9.57-1 13.57-2.9 1.58-.76 3-1.69 4.25-2.77l3.83-3.33-.28 5.07c-.06.95-.11 1.35-.16 1.7-.04.32-.08.6-.12 1.38-.27 5.15-4.64 8.31-7.23 9.73a28.51 28.51 0 0 1-13.74 3.33" fill="#ffcd05"/>
    <path d="M153.42 241.13l.47 10.05.1 1.92.06 1.27c.1 1.94.26 2.74 1.17 4.26l.4.7c1.88 3.4 5.34 6.15 10.02 7.95a33.65 33.65 0 0 0 11.98 2.18c5.4 0 10.5-1.25 14.78-3.6 5.13-2.82 8.1-6.91 8.33-11.51.03-.68.06-.9.1-1.17.07-.47.12-.93.18-1.89l.56-10.15-7.66 6.67a16.4 16.4 0 0 1-3.76 2.44 29.58 29.58 0 0 1-12.65 2.7c-4.82 0-9.4-1.04-13.22-3a16.39 16.39 0 0 1-3.28-2.2l-7.57-6.62zm4.76 9.85a20.64 20.64 0 0 0 4.14 2.78 33.3 33.3 0 0 0 15.18 3.48c5.2 0 10.2-1.07 14.5-3.11 1.83-.88 3.4-1.92 4.73-3.08-.1 1.73-.2 1.35-.29 3.08-.18 3.62-3.14 6.34-6.11 7.98a26.55 26.55 0 0 1-12.71 3.06c-3.61 0-7.22-.65-10.44-1.9-3.05-1.17-6.17-3.07-7.8-6.02-.92-1.65-.96-1.27-1.04-3.09l-.16-3.18" fill="#1d1d1b"/>
    <path d="M177.5 254.8c-5.08 0-9.91-.98-13.98-2.83-5.7-2.6-8.67-6.61-8.17-11.04.44-3.9 3.55-7.24 8.76-9.43a34.76 34.76 0 0 1 13.33-2.53c4.81 0 9.44.9 13.38 2.57.36.13.84.32 1.33.6 4.84 2.42 7.5 5.89 7.5 9.8 0 4.22-3.22 7.98-8.8 10.33a34.82 34.82 0 0 1-13.35 2.53" fill="#ffcd05"/>
    <path d="M177.44 226.83c-5.06 0-9.96.93-14.16 2.7-5.96 2.5-9.53 6.46-10.06 11.17-.6 5.32 2.92 10.27 9.41 13.22a36.14 36.14 0 0 0 14.87 3.03c5.06 0 9.96-.93 14.17-2.7 6.43-2.7 10.12-7.18 10.12-12.31.01-4.75-3.05-8.89-8.62-11.68a9.84 9.84 0 0 0-1.57-.72 36.67 36.67 0 0 0-14.16-2.7m0 4.28a32.25 32.25 0 0 1 13.69 2.92c2.61 1.28 6.38 3.84 6.37 7.9 0 3.31-2.73 6.36-7.49 8.36a32.66 32.66 0 0 1-12.5 2.36c-4.77 0-9.3-.91-13.1-2.64-4.79-2.18-7.31-5.4-6.92-8.84.34-3.1 3-5.83 7.45-7.7a32.68 32.68 0 0 1 12.5-2.35" fill="#1d1d1b"/>
    <path d="M220.67 245.34c-3.9 0-7.77-.7-11.21-2.03-4.2-1.62-7.28-4.03-8.91-6.99l-.44-.76c-.67-1.12-.78-1.55-.87-3.25l-.4-8.23 3.8 3.32c1.08.94 2.33 1.78 3.7 2.49a31.15 31.15 0 0 0 14.21 3.24c4.87 0 9.56-1 13.57-2.9 1.57-.75 3-1.68 4.24-2.76l3.82-3.33-.27 5.06c-.05.96-.1 1.36-.16 1.72-.04.32-.08.59-.12 1.36-.26 5.15-4.63 8.31-7.22 9.74a28.45 28.45 0 0 1-13.74 3.33" fill="#669a40"/>
    <path d="M196.44 219.15l.5 10.08.16 3.17c.1 1.95.26 2.74 1.17 4.27l.4.7c1.88 3.4 5.34 6.14 10.02 7.95a33.64 33.64 0 0 0 11.98 2.17c5.4 0 10.5-1.24 14.78-3.6 5.13-2.83 8.1-6.91 8.32-11.51.04-.67.07-.89.1-1.17.08-.48.13-.93.18-1.9l.55-10.12-7.65 6.66c-1.1.95-2.36 1.77-3.75 2.44a29.64 29.64 0 0 1-12.65 2.7c-4.83 0-9.4-1.04-13.22-3a16.4 16.4 0 0 1-3.29-2.21l-7.6-6.63zm4.79 9.86a20.73 20.73 0 0 0 4.14 2.78 33.3 33.3 0 0 0 15.18 3.48c5.2 0 10.2-1.07 14.49-3.11 1.84-.87 3.4-1.92 4.73-3.08-.1 1.73-.19 1.35-.28 3.08-.18 3.62-3.14 6.34-6.11 7.98a26.55 26.55 0 0 1-12.71 3.06c-3.62 0-7.22-.65-10.44-1.89-3.05-1.17-6.18-3.08-7.8-6.02-.92-1.66-.96-1.28-1.05-3.1l-.16-3.18" fill="#1d1d1b"/>
    <path d="M220.55 232.83a34 34 0 0 1-13.99-2.83c-5.68-2.58-8.66-6.6-8.16-11.03.44-3.9 3.55-7.25 8.76-9.43a34.75 34.75 0 0 1 13.33-2.53c4.8 0 9.43.88 13.38 2.56.35.13.83.32 1.32.6 4.85 2.42 7.51 5.9 7.5 9.8 0 4.22-3.21 7.98-8.8 10.33a34.76 34.76 0 0 1-13.34 2.54" fill="#669a40"/>
    <path d="M220.49 204.86c-5.06 0-9.96.93-14.16 2.7-5.96 2.5-9.53 6.46-10.06 11.17-.6 5.33 2.92 10.27 9.4 13.23a36.15 36.15 0 0 0 14.88 3.02c5.06 0 9.96-.93 14.17-2.7 6.43-2.7 10.11-7.18 10.12-12.3 0-4.75-3.06-8.9-8.63-11.7a10.1 10.1 0 0 0-1.56-.7c-4.2-1.76-9.1-2.72-14.16-2.72m0 4.3a32.23 32.23 0 0 1 13.68 2.91c2.61 1.29 6.39 3.84 6.38 7.9 0 3.31-2.74 6.36-7.49 8.36a32.7 32.7 0 0 1-12.51 2.36c-4.77 0-9.3-.9-13.1-2.64-4.78-2.17-7.3-5.4-6.92-8.84.35-3.09 3-5.82 7.46-7.7a32.6 32.6 0 0 1 12.5-2.36" fill="#1d1d1b"/>
    <path d="M139.62 215.9c-4.94 0-13.38-1.95-13.66-9.24-.56-14.36-6.6-86.35-7.96-102.53l43.55.17c-2.37 30.62-7.84 100.82-8.28 103.7-.36 2.25-2.16 4.4-4.92 5.93-2.31 1.28-5.41 1.98-8.73 1.98" fill="#fff"/>
    <path d="M114.88 101.24s7.6 89.55 8.22 105.52c.32 8.28 8.53 11.98 16.52 11.98 3.79 0 7.38-.82 10.1-2.32 3.55-1.95 5.87-4.86 6.38-7.99.52-3.2 8.54-107 8.54-107l-49.76-.2zm6.23 5.75l37.35.14c-3.15 40.7-7.57 96.98-8.01 100.42-.23 1.33-1.56 2.8-3.47 3.86-1.88 1.02-4.56 1.61-7.36 1.61-.43 0-10.55-.07-10.8-6.48-.54-13.6-5.97-78.77-7.7-99.53" fill="#010101"/>
    <path d="M196.84 57.01a57.03 57.03 0 1 1-114.06.03 57.03 57.03 0 0 1 114.06-.05" fill="#1d1d1b"/>
    <path d="M177.45 91.13c-20.31 20.31-53.04 20.51-73.1.45-20.08-20.07-19.88-52.8.43-73.11 20.31-20.31 53.05-20.51 73.11-.44 20.06 20.06 19.87 52.8-.45 73.11" fill="#cb2027"/>
    <path d="M170.92 21.35c8.24 9.1 9.39 19.97 5.28 22.19-4.14 2.3-11.77-2.3-18.85-8.4-6.95-6.18-11.45-13.72-8.5-18.96 2.86-5.2 13.82-4 22.08 5.16" fill="#fff"/>
  </g>
</svg>
