<?xml version="1.0" encoding="UTF-8"?>
<!-- Created with Inkscape (http://www.inkscape.org/) -->
<svg width="1080" height="360" version="1.1" viewBox="0 0 285.75 95.25" xmlns="http://www.w3.org/2000/svg" xmlns:cc="http://creativecommons.org/ns#" xmlns:dc="http://purl.org/dc/elements/1.1/" xmlns:osb="http://www.openswatchbook.org/uri/2009/osb" xmlns:rdf="http://www.w3.org/1999/02/22-rdf-syntax-ns#">
 <defs>
  <clipPath id="clipPath7183">
   <path d="m0 452h610v-452h-610z"/>
  </clipPath>
 </defs>
 <metadata>
  <rdf:RDF>
   <cc:Work rdf:about="">
    <dc:format>image/svg+xml</dc:format>
    <dc:type rdf:resource="http://purl.org/dc/dcmitype/StillImage"/>
    <dc:title/>
    <cc:license rdf:resource="http://creativecommons.org/licenses/by-nc-sa/4.0/"/>
   </cc:Work>
   <cc:License rdf:about="http://creativecommons.org/licenses/by-nc-sa/4.0/">
    <cc:permits rdf:resource="http://creativecommons.org/ns#Reproduction"/>
    <cc:permits rdf:resource="http://creativecommons.org/ns#Distribution"/>
    <cc:requires rdf:resource="http://creativecommons.org/ns#Notice"/>
    <cc:requires rdf:resource="http://creativecommons.org/ns#Attribution"/>
    <cc:prohibits rdf:resource="http://creativecommons.org/ns#CommercialUse"/>
    <cc:permits rdf:resource="http://creativecommons.org/ns#DerivativeWorks"/>
    <cc:requires rdf:resource="http://creativecommons.org/ns#ShareAlike"/>
   </cc:License>
  </rdf:RDF>
 </metadata>
 <g display="none">
  <rect x="-3.5908" y="-3.7798" width="292.93" height="102.81" rx="5.2917" ry="5.2917" stroke="#fff" stroke-width="1.323"/>
 </g>
 <g display="none">
  <g transform="matrix(.2672 0 0 -.2672 61.687 109.51)" fill="#fff">
   <g transform="translate(125.8 179.11)">
    <path d="m0 0v-5.039h11.349v-7.199h-11.349v-10.84h-8.47v30.277h21.597v-7.199z" fill="#fff"/>
   </g>
   <g clip-path="url(#clipPath7183)" fill="#fff">
    <g transform="translate(173.07 173.6)">
     <path d="m0 0h5.843c1.27 0 1.695 0.425 1.695 1.652v2.202c0 1.229-0.425 1.652-1.695 1.652h-5.843zm2.923-7.197h-2.923v-10.375h-8.468v30.277h16.894c4.954 0 7.58-2.583 7.58-7.453v-4.998c0-3.387-1.271-5.674-3.727-6.733l7.242-11.093h-9.866z" fill="#fff"/>
    </g>
    <g transform="translate(226.05 179.11)">
     <path d="m0 0v-4.022h11.349v-7.2h-11.349v-4.658h13.128v-7.198h-21.597v30.277h21.597v-7.199z" fill="#fff"/>
    </g>
    <g transform="translate(279.54 179.11)">
     <path d="m0 0v-4.022h11.349v-7.2h-11.349v-4.658h13.126v-7.198h-21.596v30.277h21.596v-7.199z" fill="#fff"/>
    </g>
    <g transform="translate(338.15 177.45)">
     <path d="m0 0c0 1.229-0.423 1.652-1.694 1.652h-5.716v-5.674h5.716c1.271 0 1.694 0.422 1.694 1.652zm8.47 1.398v-5.166c0-4.87-2.625-7.453-7.581-7.453h-8.299v-10.205h-8.468v30.278h16.767c4.956 0 7.581-2.583 7.581-7.454" fill="#fff"/>
    </g>
    <g transform="translate(391.9 163.23)">
     <path d="m0 0v-7.198h-21.173v30.277h8.468v-23.079z" fill="#fff"/>
    </g>
    <g transform="translate(431.12 169.2)">
     <path d="m0 0-2.964 10.376-3.006-10.376zm2.077-7.197h-10.08l-1.735-5.972h-8.682l9.232 30.277h12.407l9.231-30.277h-8.681z" fill="#fff"/>
    </g>
    <g transform="translate(479.74 166.28)">
     <path d="m0 0v-10.248h-8.511v10.248l-10.628 20.029h9.401l5.506-10.755 5.461 10.755h9.399z" fill="#fff"/>
    </g>
    <g transform="translate(257.06 139.01)">
     <path d="m0 0h-6.658v-17.529h-2.667v17.529h-6.63v2.303h15.955z" fill="#fff"/>
    </g>
    <g transform="translate(278.45 139.01)">
     <path d="m0 0v-6.152h9.972v-2.304h-9.972v-6.771h11.151v-2.302h-13.82v19.832h13.82v-2.303z" fill="#fff"/>
    </g>
    <g transform="translate(308.4 126.29)">
     <path d="m0 0v10.225c0 3.54 1.629 5.084 5.394 5.084h4.803c3.764 0 5.394-1.544 5.394-5.028v-0.223l-2.669-0.338v0.195c0 2.305-0.842 3.091-3.399 3.091h-3.455c-2.556 0-3.398-0.786-3.398-3.146v-9.496c0-2.331 0.842-3.146 3.398-3.146h3.455c2.557 0 3.399 0.815 3.399 3.092v0.195l2.669-0.336v-0.226c0-3.483-1.63-5.027-5.394-5.027h-4.803c-3.765 0-5.394 1.544-5.394 5.084" fill="#fff"/>
    </g>
    <g transform="translate(359.29 141.32)">
     <path d="m0 0v-19.832h-2.668v8.961h-10v-8.961h-2.669v19.832h2.669v-8.54h10v8.54z" fill="#fff"/>
    </g>
    <g transform="translate(253.61 260.01)">
     <path d="m0 0 47.872-35.013v35.291z" fill="#fff"/>
    </g>
    <g transform="translate(349.3 306.47)">
     <path d="m0 0v35.533l-95.684 0.035 47.333-35.568z" fill="#fff"/>
    </g>
    <g transform="translate(320.94 288.25)">
     <path d="m0 0h-67.787v-7.065h77.447z" fill="#fff"/>
    </g>
    <g transform="translate(340.24 274.13)">
     <path d="m0 0h-87.09v-7.198l96.425 0.37z" fill="#fff"/>
    </g>
    <g transform="translate(311.29 295.3)">
     <path d="m0 0-9.793 7.162h-48.352v-7.162z" fill="#fff"/>
    </g>
   </g>
  </g>
 </g>
 <g display="none" fill="#fff">
  <path d="m58.3 27.947c-0.29316 0-0.52917 0.23601-0.52917 0.52917v11.298h-11.297c-0.29316 0-0.52917 0.23601-0.52917 0.52916v9.0976c0 0.29316 0.23601 0.52917 0.52917 0.52917h11.297v11.298c0 0.29316 0.23601 0.52917 0.52917 0.52917h9.0982c0.29316 0 0.52917-0.23601 0.52917-0.52917v-11.298h11.298c0.29315 0 0.52914-0.23601 0.52914-0.52917v-9.0976c0-0.29316-0.23599-0.52916-0.52914-0.52916h-11.298v-11.298c0-0.29316-0.23601-0.52917-0.52917-0.52917z" display="inline"/>
  <path d="m62.731 26.143a18.709 18.709 0 0 0-7.2762 1.5227 18.709 18.709 0 0 0-9.7914 24.58 18.709 18.709 0 0 0 24.58 9.7914 18.709 18.709 0 0 0 9.7915-24.58 18.709 18.709 0 0 0-17.304-11.314zm0.014 2.2452a16.464 16.464 0 0 1 15.228 9.9564 16.464 16.464 0 0 1-8.6165 21.63 16.464 16.464 0 0 1-21.63-8.6165 16.464 16.464 0 0 1 8.6165-21.63 16.464 16.464 0 0 1 6.4027-1.3399z" display="inline"/>
  <rect x="96.384" y="51.328" width="14.818" height="5.2594" rx="2.6458" ry="2.6458" display="inline"/>
  <rect x="96.384" y="32.563" width="14.818" height="5.2594" rx="2.6458" ry="2.6458" display="inline"/>
  <rect x="172.46" y="43.514" width="14.818" height="5.2594" rx="2.6458" ry="2.6458" display="inline"/>
  <rect x="172.46" y="24.749" width="14.818" height="5.2594" rx="2.6458" ry="2.6458" display="inline"/>
  <rect x="172.46" y="61.724" width="14.818" height="5.2594" rx="2.6458" ry="2.6458" display="inline"/>
  <circle cx="208.6" cy="21.452" r="9.1979" display="inline"/>
  <circle cx="232.41" cy="17.672" r="9.1979" display="inline"/>
  <circle cx="208.22" cy="73.798" r="9.1979" display="inline"/>
  <circle cx="232.03" cy="77.578" r="9.1979" display="inline"/>
 </g>
 <g display="none">
  <g fill="#fff" aria-label="Ì">
   <path d="m176.78 77.175h-67.803v-50.893l5.444-8.2073h16.868l4.9904 8.2073h40.5zm-2.3096-3.7943v-1.0311h-63.101v-3.5056h63.101v-1.0311h-63.101v-38.479h63.101v-1.0311h-64.132v45.078z" fill="#fff" stroke-width=".31674"/>
  </g>
 </g>
 <g display="none">
  <g fill="#fff" aria-label="¾">
   <path d="m142.88 77.087q12.223 0 20.823-8.5999 8.6397-8.6397 8.6397-20.863t-8.6397-20.823q-8.5999-8.6397-20.823-8.6397-12.223 0-20.863 8.6397-8.5998 8.5999-8.5998 20.823 0 12.183 8.5998 20.823 8.6397 8.6397 20.863 8.6397zm0-1.9509q-11.387 0-19.469-8.0425-8.0425-8.0823-8.0425-19.469t8.0425-19.429q8.0823-8.0823 19.469-8.0823t19.429 8.0823q8.0823 8.0425 8.0823 19.429t-8.0823 19.469q-8.0424 8.0425-19.429 8.0425zm0-53.072-3.424 6.8878h1.9509v17.797l-8.56 4.9768-0.99536-1.712-4.2203 6.4101 7.6443-0.47777-0.95554-1.6722 7.0869-4.1009v1.8713h2.9462v-3.5833l3.0657-1.7518-1.4731-2.5481-1.5926 0.95554v-16.165h1.9509zm22.415 26.914h2.7074v-2.7074h-2.7074zm-44.791 0v-2.7074h-2.7074v2.7074zm23.729 20.982h-2.7074v2.7074h2.7074zm18.713-32.369 2.349-1.3537-1.3537-2.349-2.349 1.3537zm-38.739 22.376-1.3537-2.349-2.349 1.3537 1.3537 2.349zm8.6397-32.449-1.3537-2.3092-2.349 1.3537 1.3537 2.349zm22.376 38.779-2.349 1.3537 1.3537 2.349 2.349-1.3537zm0.0398-37.425 1.3537-2.3092-2.349-1.3537-1.3537 2.3092zm-22.415 38.779-2.3092-1.3537-1.3537 2.349 2.3092 1.3537zm-8.7193-32.409-2.3092-1.3537-1.3537 2.349 2.3092 1.3537zm38.779 22.376-1.3537 2.349 2.349 1.3537 1.3537-2.349z" fill="#fff" stroke-width=".30577"/>
  </g>
 </g>
 <g fill="#fff" aria-label="ª">
  <path d="m181.49 63.422q0 6.2654-2.1773 10.131-1.9552 3.5104-4.5324 3.5104h-58.21q-7.4651 0-9.909-2.6661-2.3995-2.7105-2.3995-10.62v-45.591h70.519v5.7321h6.7097zm-8.0428 12.309v-56.211h-67.853v44.257q0 7.4207 2.044 9.6869t8.9315 2.2662zm-9.1537-43.502h-23.595v-2.2218h23.595zm-14.219-6.3098h-9.3758v-2.2218h9.3758zm14.219 12.62h-23.595v-2.2218h23.595zm0 24.573h-23.595v-2.2218h23.595zm-9.7758-13.331h-13.819v-2.2218h13.819zm-19.774-17.552h-24.928v-2.2218h24.928zm-14.219-6.3098h-10.709v-2.2218h10.709zm14.219 12.62h-24.928v-2.2218h24.928zm35.237 16.663q0 6.8875-3.8659 11.598-4.1769 5.0212-10.887 5.0212-7.243 0-13.73-4.2658-7.1096-4.6657-7.9539-11.464h-23.728v-2.2218h23.684q0.31104-6.1765 6.3987-9.9979 5.3322-3.3771 11.953-3.3771 9.9535 0 16.93 5.1989l-1.2886 1.2442q-6.6653-4.9767-16.485-4.9767-6.4876 0-10.842 2.5772-5.2434 3.1105-5.2434 9.1981 0 5.821 6.2209 11.242 6.2654 5.3767 14.975 5.3767 12.397 0 12.397-14.308 0-8.6649-8.6204-9.9979l1.3775-1.4219q8.7093 1.3775 8.7093 10.576zm-40.569-5.4211h-19.596v-2.2218h19.596zm1.333 10.398v2.2218h-20.929v-2.2218zm9.9535-6.3098v2.2218h23.595v-2.2218z" fill="#fff" stroke-width=".34126"/>
 </g>
 <g display="none">
  <g fill="#fff" aria-label="«">
   <path d="m111.9 40.664h23.658l7.3132-22.512 7.3132 22.512h23.658l-19.12 13.922 7.3133 22.512-19.164-13.922-19.164 13.922 7.3132-22.512z" fill="#fff" stroke-width=".33835"/>
  </g>
 </g>
 <g display="none" fill="#fff">
  <circle transform="rotate(-24.882)" cx="128.78" cy="130.65" r="8.8199" display="inline"/>
  <path d="m78.121 37.571c-0.29316 0-0.52917 0.23601-0.52917 0.52917v11.298h-11.297c-0.29316 0-0.52917 0.23601-0.52917 0.52917v9.0976c0 0.29316 0.23601 0.52917 0.52917 0.52917h11.297v11.298c0 0.29316 0.23601 0.52917 0.52917 0.52917h9.0982c0.29316 0 0.52917-0.23601 0.52917-0.52917v-11.298h11.298c0.29315 0 0.52915-0.23601 0.52915-0.52917v-9.0976c0-0.29316-0.236-0.52917-0.52915-0.52917h-11.298v-11.298c0-0.29316-0.23601-0.52917-0.52917-0.52917z" display="inline"/>
  <circle transform="rotate(-24.882)" cx="151.38" cy="130.72" r="8.8199" display="inline"/>
  <circle transform="rotate(-24.882)" cx="173.98" cy="131.05" r="8.8199" display="inline"/>
  <rect transform="rotate(-27.221)" x="135.74" y="102.34" width="18.976" height="4.5436" rx="2.6458" ry="2.6458"/>
  <path d="m82.552 35.767a18.709 18.709 0 0 0-7.2762 1.5227 18.709 18.709 0 0 0-9.7915 24.58 18.709 18.709 0 0 0 24.58 9.7914 18.709 18.709 0 0 0 9.7915-24.58 18.709 18.709 0 0 0-17.304-11.314zm0.014 2.2452a16.464 16.464 0 0 1 15.228 9.9564 16.464 16.464 0 0 1-8.6165 21.63 16.464 16.464 0 0 1-21.63-8.6165 16.464 16.464 0 0 1 8.6165-21.63 16.464 16.464 0 0 1 6.4027-1.3399z" display="inline"/>
 </g>
 <g display="none">
  <path d="m195.99 22.619c-0.87948 0-1.5875 0.70802-1.5875 1.5875v20.344c0 0.87948 0.70802 1.5875 1.5875 1.5875h19.543c0.87947 0 1.5875-0.70802 1.5875-1.5875v-20.344c0-0.87948-0.70803-1.5875-1.5875-1.5875zm-26.462 0.0052c-0.87947 0-1.5875 0.70802-1.5875 1.5875v20.345c0 0.87948 0.70803 1.5875 1.5875 1.5875h19.543c0.87947 0 1.5875-0.70802 1.5875-1.5875v-20.345c0-0.87948-0.70803-1.5875-1.5875-1.5875zm-105.85 0.2568c-0.87948 0-1.5875 0.70802-1.5875 1.5875v20.344c0 0.87948 0.70802 1.5875 1.5875 1.5875h19.543c0.87948 0 1.5875-0.70802 1.5875-1.5875v-20.344c0-0.87947-0.70802-1.5875-1.5875-1.5875zm26.462 0.27233c-0.87948 0-1.5875 0.70802-1.5875 1.5875v20.345c0 0.87948 0.70802 1.5875 1.5875 1.5875h19.543c0.87948 0 1.5875-0.70802 1.5875-1.5875v-20.345c0-0.87948-0.70802-1.5875-1.5875-1.5875zm26.462 0c-0.87948 0-1.5875 0.70802-1.5875 1.5875v20.345c0 0.87948 0.70802 1.5875 1.5875 1.5875h19.542c0.87947 0 1.5875-0.70802 1.5875-1.5875v-20.345c0-0.87948-0.70803-1.5875-1.5875-1.5875zm26.461 0c-0.87947 0-1.5875 0.70802-1.5875 1.5875v20.345c0 0.87948 0.70803 1.5875 1.5875 1.5875h19.543c0.87947 0 1.5875-0.70802 1.5875-1.5875v-20.345c0-0.87948-0.70803-1.5875-1.5875-1.5875zm-75.412 1.9198c0.86541 0 1.5572 0.29077 2.0753 0.8723 0.51814 0.57878 0.77721 1.356 0.77721 2.3316 0 0.71658-0.1447 1.3298-0.43408 1.8397-0.28663 0.50987-0.7028 0.88608-1.2485 1.1286l1.0997 1.203h-1.0087l-0.91364-0.98806c-0.09095 0.0055-0.16123 0.0096-0.21084 0.0124-0.04685 0.0028-0.09233 0.0041-0.13642 0.0041-0.86816 0-1.5627-0.28939-2.0836-0.86816-0.51814-0.58153-0.77721-1.3587-0.77721-2.3316 0-0.97565 0.25907-1.7529 0.77721-2.3316 0.5209-0.58153 1.2154-0.8723 2.0836-0.8723zm23.607 0.60152h0.84336l1.2981 5.2173 1.294-5.2173h0.93845l1.2981 5.2173 1.294-5.2173h0.8475l-1.5503 6.1722h-1.0501l-1.3022-5.3578-1.3146 5.3578h-1.0501zm26.468 0h3.9026v0.7028h-3.0675v1.8273h2.9394v0.7028h-2.9394v2.2366h3.1419v0.7028h-3.977zm26.468 0h1.8852c0.70555 0 1.232 0.14745 1.5792 0.44235 0.34726 0.2949 0.5209 0.74001 0.5209 1.3353 0 0.38861-0.091 0.71107-0.27286 0.96738-0.17914 0.25632-0.44097 0.43408-0.78548 0.5333 0.17915 0.06064 0.35278 0.19017 0.5209 0.38861 0.17088 0.19844 0.34175 0.47129 0.51263 0.81856l0.84749 1.6867h-0.8971l-0.78962-1.5834c-0.20394-0.41341-0.40238-0.68764-0.59531-0.82269-0.19017-0.13505-0.45062-0.20257-0.78134-0.20257h-0.90951v2.6086h-0.83509zm26.468 0h5.2214v0.7028h-2.1911v5.4694h-0.83923v-5.4694h-2.1911zm26.469 0h0.8971l1.7115 2.5383 1.6991-2.5383h0.8971l-2.1828 3.2329v2.9394h-0.83922v-2.9394zm-129.48 0.07648c-0.60634 0-1.0887 0.226-1.4469 0.678-0.35553 0.452-0.5333 1.068-0.5333 1.8479 0 0.77721 0.17777 1.3918 0.5333 1.8438 0.35829 0.452 0.8406 0.678 1.4469 0.678 0.60634 0 1.0859-0.226 1.4387-0.678 0.35553-0.452 0.5333-1.0666 0.5333-1.8438 0-0.77997-0.17776-1.396-0.5333-1.8479-0.35278-0.452-0.83234-0.678-1.4387-0.678zm77.379 0.60978v2.1911h1.0501c0.40238 0 0.70555-0.09233 0.9095-0.27699 0.20671-0.18741 0.31006-0.46164 0.31006-0.82269 0-0.36105-0.10335-0.63252-0.31006-0.81442-0.20395-0.18466-0.50712-0.27698-0.9095-0.27698zm57.5 22.215c-0.87948 0-1.5875 0.70802-1.5875 1.5875v20.345c0 0.87948 0.70802 1.5875 1.5875 1.5875h19.543c0.87947 0 1.5875-0.70802 1.5875-1.5875v-20.345c0-0.87948-0.70803-1.5875-1.5875-1.5875zm-26.462 0.0057c-0.87948 0-1.5875 0.70802-1.5875 1.5875v20.344c0 0.87948 0.70802 1.5875 1.5875 1.5875h19.543c0.87947 0 1.5875-0.70802 1.5875-1.5875v-20.345c0-0.87948-0.70803-1.5875-1.5875-1.5875zm-105.85 0.2563c-0.87948 0-1.5875 0.70802-1.5875 1.5875v20.345c0 0.87948 0.70802 1.5875 1.5875 1.5875h19.543c0.87948 0 1.5875-0.70802 1.5875-1.5875v-20.345c0-0.87948-0.70802-1.5875-1.5875-1.5875zm26.462 0.27285c-0.87948 0-1.5875 0.70802-1.5875 1.5875v20.344c0 0.87948 0.70802 1.5875 1.5875 1.5875h19.543c0.87947 0 1.5875-0.70802 1.5875-1.5875v-20.344c0-0.87948-0.70803-1.5875-1.5875-1.5875zm26.461 0c-0.87948 0-1.5875 0.70802-1.5875 1.5875v20.344c0 0.87948 0.70802 1.5875 1.5875 1.5875h19.543c0.87948 0 1.5875-0.70802 1.5875-1.5875v-20.344c0-0.87948-0.70802-1.5875-1.5875-1.5875zm26.462 0c-0.87948 0-1.5875 0.70802-1.5875 1.5875v20.344c0 0.87948 0.70802 1.5875 1.5875 1.5875h19.543c0.87948 0 1.5875-0.70802 1.5875-1.5875v-20.344c0-0.87948-0.70802-1.5875-1.5875-1.5875zm-77.234 1.2025h0.94671l2.3523 6.1722h-0.86816l-0.56224-1.5834h-2.7823l-0.56224 1.5834h-0.88057zm26.529 0.37827c0.28939 0 0.58429 0.02618 0.8847 0.07855 0.30042 0.05236 0.60772 0.13091 0.92191 0.23564v0.81442c-0.31695-0.15158-0.61598-0.26458-0.8971-0.339-0.28112-0.07441-0.55259-0.11162-0.81442-0.11162-0.45475 0-0.80615 0.08819-1.0542 0.26458-0.24529 0.17639-0.36794 0.42719-0.36794 0.75241 0 0.27285 0.0813 0.47956 0.24391 0.62012 0.16536 0.1378 0.4768 0.24942 0.93431 0.33486l0.50436 0.10335c0.62287 0.11851 1.0818 0.32797 1.3767 0.62838 0.29765 0.29766 0.44648 0.69729 0.44648 1.1989 0 0.59807-0.20119 1.0514-0.60358 1.3601-0.39963 0.30868-0.98668 0.46302-1.7611 0.46302-0.29214 0-0.60358-0.03307-0.93431-0.09922-0.32798-0.06615-0.66835-0.16399-1.0211-0.29352v-0.8599c0.339 0.19017 0.6711 0.33349 0.99632 0.42995 0.32522 0.09646 0.64492 0.1447 0.95912 0.1447 0.4768 0 0.84474-0.09371 1.1038-0.28112 0.25908-0.18742 0.3886-0.45475 0.3886-0.80202 0-0.30317-0.0937-0.54019-0.28112-0.71107-0.18466-0.17088-0.4892-0.29904-0.91364-0.38447l-0.5085-0.09922c-0.62287-0.12402-1.0735-0.31832-1.3519-0.58291-0.27836-0.26458-0.41755-0.63252-0.41755-1.1038 0-0.5457 0.19155-0.97565 0.57464-1.2898 0.38585-0.31419 0.9164-0.47129 1.5916-0.47129zm81.073 0c0.40239 0 0.78411 0.04961 1.1452 0.14883 0.3638 0.09922 0.69867 0.24529 1.0046 0.43822v0.88884c-0.30868-0.26183-0.63665-0.45889-0.98392-0.59118-0.34726-0.13229-0.71244-0.19844-1.0955-0.19844-0.75516 0-1.3229 0.21084-1.7032 0.63252-0.37759 0.42168-0.56638 1.0501-0.56638 1.8852 0 0.83233 0.18879 1.4593 0.56638 1.881 0.38033 0.42168 0.94809 0.63252 1.7032 0.63252 0.2949 0 0.55811-0.0248 0.78962-0.07441 0.23151-0.05237 0.43959-0.13229 0.62425-0.23978v-1.6578h-1.3643v-0.68626h2.1911v2.65c-0.32246 0.22875-0.67799 0.40239-1.0666 0.5209-0.38861 0.11576-0.8034 0.17363-1.2444 0.17363-0.96463 0-1.7198-0.28112-2.2655-0.84336-0.54295-0.565-0.81442-1.3505-0.81442-2.3564 0-1.0087 0.27147-1.7942 0.81442-2.3564 0.5457-0.565 1.3009-0.8475 2.2655-0.8475zm-56.519 0.11162h1.7157c1.1961 0 2.074 0.24942 2.6334 0.74827 0.55948 0.49609 0.83923 1.2733 0.83923 2.3316 0 1.0638-0.28112 1.8452-0.84336 2.344-0.56224 0.49885-1.4387 0.74827-2.6293 0.74827h-1.7157zm26.719 0h3.5471v0.7028h-2.712v1.819h2.4474v0.7028h-2.4474v2.9476h-0.83509zm53.439 0h0.83509v2.5301h3.0344v-2.5301h0.83509v6.1722h-0.83509v-2.9394h-3.0344v2.9394h-0.83509zm-130.77 0.3328-1.1327 3.0716h2.2696zm51.446 0.35347v4.7997h1.0087c0.85162 0 1.4745-0.19293 1.8686-0.57878 0.39687-0.38585 0.59531-0.99494 0.59531-1.8273 0-0.82682-0.19844-1.4318-0.59531-1.8149-0.39412-0.38585-1.017-0.57878-1.8686-0.57878z" fill="#fff"/>
 </g>
 <g display="none" fill="#fff">
  <circle cx="172.99" cy="39.328" r="8.8199" display="inline"/>
  <circle cx="196.29" cy="39.328" r="8.8199" display="inline"/>
  <circle cx="149.68" cy="39.328" r="8.8199" display="inline"/>
  <circle cx="172.87" cy="61.467" r="8.8199" display="inline"/>
  <circle cx="196.17" cy="61.467" r="8.8199" display="inline"/>
  <circle cx="149.56" cy="61.467" r="8.8199" display="inline"/>
  <circle cx="100.95" cy="33.783" r="8.8199" display="inline"/>
  <rect x="97.208" y="36.456" width="7.4835" height="23.787" rx="3.9688" ry="1.3229"/>
  <path d="m100.95 52.967a20.312 6.1472 0 0 0-20.312 6.1474 20.312 6.1472 0 0 0 20.312 6.1469 20.312 6.1472 0 0 0 20.312-6.1469 20.312 6.1472 0 0 0-20.312-6.1474zm0 0.80305a17.221 5.2118 0 0 1 17.222 5.2121 17.221 5.2118 0 0 1-17.222 5.2116 17.221 5.2118 0 0 1-17.221-5.2116 17.221 5.2118 0 0 1 17.221-5.2121z"/>
 </g>
 <g display="none" fill="#fff">
  <rect transform="rotate(-26.428)" x="70.029" y="114.51" width="16.181" height="5.7429" rx="2.6458" ry="2.6458" display="inline"/>
  <rect transform="rotate(-26.428)" x="91.834" y="126.18" width="16.181" height="5.7429" rx="2.6458" ry="2.6458" display="inline"/>
  <circle cx="170.52" cy="39.651" r="8.8199" display="inline"/>
  <circle cx="194.19" cy="28.69" r="8.8199" display="inline"/>
  <path d="m95.092 18.884c-0.29316 0-0.52917 0.23601-0.52917 0.52917v11.298h-11.297c-0.29316 0-0.52917 0.23601-0.52917 0.52917v9.0976c0 0.29316 0.23601 0.52917 0.52917 0.52917h11.297v11.298c0 0.29316 0.23601 0.52917 0.52917 0.52917h9.0982c0.29316 0 0.52917-0.23601 0.52917-0.52917v-11.298h11.298c0.29315 0 0.52915-0.23601 0.52915-0.52917v-9.0976c0-0.29316-0.236-0.52917-0.52915-0.52917h-11.298v-11.298c0-0.29316-0.23601-0.52917-0.52917-0.52917z" display="inline"/>
 </g>
 <g display="none" fill="#fff">
  <circle cx="189.97" cy="45.5" r="8.8199" display="inline"/>
  <circle cx="215.16" cy="37.184" r="8.8199" display="inline"/>
  <path d="m74.125 24.355c-0.29316 0-0.52917 0.23601-0.52917 0.52917v11.298h-11.297c-0.29316 0-0.52917 0.23601-0.52917 0.52917v9.0976c0 0.29316 0.23601 0.52917 0.52917 0.52917h11.297v11.298c0 0.29316 0.23601 0.52917 0.52917 0.52917h9.0982c0.29316 0 0.52917-0.23601 0.52917-0.52917v-11.298h11.298c0.29315 0 0.52915-0.23601 0.52915-0.52917v-9.0976c0-0.29316-0.236-0.52917-0.52915-0.52917h-11.298v-11.298c0-0.29316-0.23601-0.52917-0.52917-0.52917z" display="inline"/>
  <circle cx="97.718" cy="68.736" r="4.0952" display="inline"/>
  <path d="m75.855 7.4884c-0.65236 0-5.6171 0.10728-8.9995 0.36137-2.7666 0.55486-5.3996 1.3064-5.4934 1.3315l-5.331 1.5803c-2.8293 0.7586-5.0812 5.7897-3.6525 8.0622 1.2737 2.0259 3.7326 1.9398 6.5619 1.1812l6.5342-1.9144c2.0648-0.4219 7.5858-1.4063 9.8169-1.3418h14.159c2.9316 0 5.2917-2.0651 5.2917-4.6302 0-2.5651-2.3601-4.6302-5.2917-4.6302z" display="inline"/>
  <path d="m209.89 7.8279c0.65236 0 5.6171 0.10728 8.9995 0.36137 2.7666 0.55486 5.3996 1.3064 5.4934 1.3315l5.331 1.5803c2.8293 0.7586 5.0812 5.7897 3.6525 8.0622-1.2737 2.0259-3.7326 1.9398-6.5619 1.1812l-6.5342-1.9144c-2.0648-0.4219-7.5858-1.4063-9.8169-1.3418h-14.159c-2.9316 0-5.2917-2.0651-5.2917-4.6302 0-2.5651 2.3601-4.6302 5.2917-4.6302z" display="inline"/>
  <circle cx="97.718" cy="83.666" r="4.0952" display="inline"/>
 </g>
 <g display="none" fill="#fff">
  <circle cx="193.86" cy="67.657" r="7.3499" display="inline"/>
  <path d="m69.939 27.292c-0.29316 0-0.52917 0.23601-0.52917 0.52917v11.298h-11.298c-0.29315 0-0.52916 0.23601-0.52916 0.52916v9.0976c0 0.29316 0.23601 0.52917 0.52916 0.52917h11.298v11.298c0 0.29316 0.23601 0.52917 0.52917 0.52917h9.0982c0.29316 0 0.52917-0.23601 0.52917-0.52917v-11.298h11.298c0.29315 0 0.52915-0.23601 0.52915-0.52917v-9.0976c0-0.29316-0.236-0.52916-0.52915-0.52916h-11.298v-11.298c0-0.29316-0.23601-0.52917-0.52917-0.52917z" display="inline"/>
  <circle cx="210.22" cy="50.714" r="6.027" display="inline"/>
  <circle cx="179.35" cy="51.078" r="7.3499" display="inline"/>
  <path d="m85.173 4.5339c-0.65236 0-5.6171 0.10728-8.9995 0.36137-2.7666 0.55486-5.3996 1.3064-5.4934 1.3315l-5.331 1.5803c-2.8293 0.7586-5.0812 5.7897-3.6525 8.0622 1.2737 2.0259 3.7326 1.9398 6.5619 1.1812l6.5342-1.9144c2.0648-0.4219 7.5858-1.4063 9.8169-1.3418h14.159c2.9316 0 5.2917-2.0651 5.2917-4.6302 0-2.5651-2.3601-4.6302-5.2917-4.6302z" display="inline"/>
  <path d="m199.68 4.8734c0.65236 0 5.6171 0.10728 8.9995 0.36137 2.7666 0.55486 5.3996 1.3064 5.4934 1.3315l5.331 1.5803c2.8293 0.7586 5.0812 5.7897 3.6525 8.0622-1.2737 2.0259-3.7326 1.9398-6.5619 1.1812l-6.5342-1.9144c-2.0648-0.4219-7.5858-1.4063-9.8169-1.3418h-14.159c-2.9316 0-5.2917-2.0651-5.2917-4.6302 0-2.5651 2.3601-4.6302 5.2917-4.6302z" display="inline"/>
  <circle cx="139.84" cy="47.134" r="7.3499" display="inline"/>
  <circle cx="210.06" cy="27.819" r="6.027" display="inline"/>
  <circle cx="197.57" cy="38.497" r="6.027" display="inline"/>
  <circle cx="222.14" cy="39.253" r="6.027" display="inline"/>
  <g transform="translate(-3.4171 22.301)">
   <path d="m142.88 40.064-10.024 4.1517-4.1517 10.024 4.1517 10.024 10.024 4.1517 10.024-4.1517 4.1517-10.024-4.1517-10.024zm0 3.9905a10.185 10.185 0 0 1 10.185 10.185 10.185 10.185 0 0 1-10.185 10.185 10.185 10.185 0 0 1-10.185-10.185 10.185 10.185 0 0 1 10.185-10.185z"/>
   <circle cx="142.88" cy="54.24" r="8.5783" display="inline"/>
  </g>
 </g>
 <g display="none" fill="#fff">
  <rect transform="rotate(-35.097)" x="54.242" y="118.18" width="16.181" height="5.7429" rx="2.6458" ry="2.6458"/>
  <circle cx="194.67" cy="71.7" r="7.3499"/>
  <path d="m76.8 40.028c-0.29316 0-0.52917 0.23601-0.52917 0.52917v11.298h-11.298c-0.29315 0-0.52916 0.23601-0.52916 0.52917v9.0976c0 0.29316 0.23601 0.52917 0.52916 0.52917h11.298v11.298c0 0.29316 0.23601 0.52917 0.52917 0.52917h9.0982c0.29316 0 0.52917-0.23601 0.52917-0.52917v-11.298h11.298c0.29315 0 0.52915-0.23601 0.52915-0.52917v-9.0976c0-0.29316-0.236-0.52917-0.52915-0.52917h-11.298v-11.298c0-0.29316-0.23601-0.52917-0.52917-0.52917z"/>
  <circle cx="213.96" cy="57.591" r="7.3499"/>
  <circle cx="176.76" cy="57.388" r="7.3499"/>
  <circle cx="196.03" cy="43.227" r="7.3499"/>
  <rect transform="rotate(-35.097)" x="71.823" y="130.71" width="16.181" height="5.7429" rx="2.6458" ry="2.6458"/>
  <path d="m85.62 16.201c-0.65236 0-5.6171 0.10728-8.9995 0.36137-2.7666 0.55486-5.3996 1.3064-5.4934 1.3315l-5.331 1.5803c-2.8293 0.7586-5.0812 5.7897-3.6525 8.0622 1.2737 2.0259 3.7326 1.9398 6.5619 1.1812l6.5342-1.9144c2.0648-0.4219 7.5858-1.4063 9.8169-1.3418h14.159c2.9316 0 5.2917-2.0651 5.2917-4.6302s-2.3601-4.6302-5.2917-4.6302z"/>
  <path d="m200.13 16.54c0.65236 0 5.6171 0.10728 8.9995 0.36137 2.7666 0.55486 5.3996 1.3064 5.4934 1.3315l5.331 1.5803c2.8293 0.7586 5.0812 5.7897 3.6525 8.0622-1.2737 2.0259-3.7326 1.9398-6.5619 1.1812l-6.5342-1.9144c-2.0648-0.4219-7.5858-1.4063-9.8169-1.3418h-14.159c-2.9316 0-5.2917-2.0651-5.2917-4.6302 0-2.5651 2.3601-4.6302 5.2917-4.6302z"/>
 </g>
 <g display="none" fill="#fff">
  <rect x="145.19" y="54.297" width="14.818" height="5.2594" rx="2.6458" ry="2.6458"/>
  <rect x="119.69" y="54.297" width="14.818" height="5.2594" rx="2.6458" ry="2.6458"/>
  <circle cx="185.07" cy="56.244" r="8.8199"/>
  <circle cx="209.12" cy="56.244" r="8.8199"/>
  <path d="m80.162 30.186c-0.29316 0-0.52917 0.23601-0.52917 0.52917v11.298h-11.298c-0.29316 0-0.52917 0.23601-0.52917 0.52917v9.0976c0 0.29316 0.23601 0.52917 0.52917 0.52917h11.298v11.298c0 0.29316 0.23601 0.52917 0.52917 0.52917h9.0982c0.29316 0 0.52917-0.23601 0.52917-0.52917v-11.298h11.298c0.29316 0 0.52916-0.23601 0.52916-0.52917v-9.0976c0-0.29316-0.236-0.52917-0.52916-0.52917h-11.298v-11.298c0-0.29316-0.23601-0.52917-0.52917-0.52917z"/>
 </g>
 <g display="none" fill="#fff">
  <circle cx="119.29" cy="20.194" r="8.8199" display="inline"/>
  <path d="m149.45 32.218a25.829 25.829 0 0 0-25.829 25.829 25.829 25.829 0 0 0 25.829 25.829 25.829 25.829 0 0 0 25.829-25.829 25.829 25.829 0 0 0-25.829-25.829zm0 10.206a15.623 15.623 0 0 1 15.623 15.623 15.623 15.623 0 0 1-15.623 15.623 15.623 15.623 0 0 1-15.624-15.623 15.623 15.623 0 0 1 15.624-15.623z" display="inline"/>
  <path d="m161.31 54.868-1.2272 9.3215-7.4591 5.7235-9.3215-1.2272-5.7235-7.4591 1.2272-9.3215 7.4591-5.7235 9.3215 1.2272z"/>
 </g>
 <g display="none" fill="#fff">
  <path d="m142.87 36.118a20.58 20.58 0 0 0-20.58 20.58 20.58 20.58 0 0 0 20.58 20.58 20.58 20.58 0 0 0 20.58-20.58 20.58 20.58 0 0 0-20.58-20.58zm0 6.9489a13.631 13.631 0 0 1 13.631 13.631 13.631 13.631 0 0 1-13.631 13.631 13.631 13.631 0 0 1-13.631-13.631 13.631 13.631 0 0 1 13.631-13.631z" display="inline"/>
  <path d="m176.85 48.174-2.5391-2.9287-1.1198-11.667c-0.61591-6.4171-1.1271-12.108-1.1359-12.647-0.0153-0.93426 0.0652-1.0247 1.7531-1.9686l1.7692-0.98939 2.1141 2.1141 1.7744 14.872c1.7532 14.695 1.7681 14.877 1.2496 15.282-1.2449 0.9721-1.2184 0.98629-3.8656-2.0672z"/>
  <path d="m108.9 48.174 2.5391-2.9287 1.1198-11.667c0.61591-6.4171 1.1271-12.108 1.1359-12.647 0.0153-0.93426-0.0652-1.0247-1.7531-1.9686l-1.7692-0.98939-2.1141 2.1141-1.7744 14.872c-1.7532 14.695-1.7681 14.877-1.2496 15.282 1.2449 0.9721 1.2184 0.98629 3.8656-2.0672z"/>
  <circle cx="142.88" cy="56.697" r="10.205"/>
 </g>
</svg>
