<?xml version="1.0" encoding="UTF-8" standalone="no"?>
<svg
   xmlns:ns4="&amp;#38;#38;#38;#38;#38;ns_sfw;"
   xmlns:dc="http://purl.org/dc/elements/1.1/"
   xmlns:cc="http://creativecommons.org/ns#"
   xmlns:rdf="http://www.w3.org/1999/02/22-rdf-syntax-ns#"
   xmlns:svg="http://www.w3.org/2000/svg"
   xmlns="http://www.w3.org/2000/svg"
   xml:space="preserve"
   enable-background="new 23.577 0 290.5 85.789"
   viewBox="23.577 0 290 59.999999"
   height="60"
   width="290"
   y="0px"
   x="0px"
   id="Ebene_1"
   version="1.1"><defs
     id="defs7420" /><metadata
     id="metadata7351"><ns4:sfw><ns4:slices /><ns4:sliceSourceBounds
         bottomLeftOrigin="true"
         height="85.789"
         width="285.603"
         y="517.325"
         x="816.781" /></ns4:sfw><rdf:RDF><cc:Work
         rdf:about=""><dc:format>image/svg+xml</dc:format><dc:type
           rdf:resource="http://purl.org/dc/dcmitype/StillImage" /><dc:title></dc:title></cc:Work></rdf:RDF></metadata><g
     transform="translate(-0.249997,-12.894502)"
     id="text9109"
     style="font-style:normal;font-variant:normal;font-weight:normal;font-stretch:normal;font-size:29.33333397px;line-height:1.25;font-family:Erbaum;-inkscape-font-specification:Erbaum;letter-spacing:5.67000008px;word-spacing:0px;fill:#ffffff;fill-opacity:1;stroke:none"
     aria-label="CUSTOM"><path
       id="path9133"
       style="stroke:none"
       d="m 96.096016,35.635878 h 5.016004 c 3.93066,0 5.632,-1.613333 5.632,-5.250667 v -0.234667 l -2.78667,-0.352 v 0.205334 c 0,2.376 -0.88,3.226667 -3.54933,3.226667 h -3.608004 c -2.669333,0 -3.549333,-0.850667 -3.549333,-3.285334 v -9.914667 c 0,-2.464 0.88,-3.285333 3.549333,-3.285333 h 3.608004 c 2.66933,0 3.54933,0.821333 3.54933,3.226667 v 0.205333 l 2.78667,-0.352 v -0.234667 c 0,-3.637333 -1.70134,-5.250667 -5.632,-5.250667 h -5.016004 c -3.930666,0 -5.632,1.613334 -5.632,5.309334 v 10.677333 c 0,3.696001 1.701334,5.309334 5.632,5.309334 z" /><path
       id="path9135"
       style="stroke:none"
       d="m 134.43923,14.633211 h -2.78667 v 15.312 c 0,2.434667 -0.90933,3.285334 -3.57867,3.285334 h -3.13867 c -2.66933,0 -3.54933,-0.850667 -3.54933,-3.285334 v -15.312 h -2.78667 v 15.693333 c 0,3.696001 1.70134,5.309334 5.632,5.309334 h 4.54667 c 3.93067,0 5.66134,-1.613333 5.66134,-5.309334 z" /><path
       id="path9137"
       style="stroke:none"
       d="m 151.94614,35.635878 h 5.07467 c 3.90133,0 5.632,-1.613333 5.632,-5.309334 v -1.437333 c 0,-3.109333 -1.26133,-4.341333 -4.928,-4.869333 l -5.25067,-0.762667 c -2.64,-0.410667 -3.256,-0.938667 -3.256,-2.933333 v -0.293334 c 0,-2.434666 0.90934,-3.285333 3.57867,-3.285333 h 3.37333 c 2.66934,0 3.57867,0.821333 3.57867,3.226667 v 0.205333 l 2.75733,-0.352 c 0.0293,-0.05867 0.0293,-0.088 0.0293,-0.234667 0,-3.637333 -1.73067,-5.250667 -5.66134,-5.250667 h -4.81066 c -3.93067,0 -5.632,1.613334 -5.632,5.309334 v 1.32 c 0,3.08 1.29066,4.312 4.95733,4.84 l 5.22133,0.762667 c 2.58134,0.381333 3.256,0.968 3.256,2.933333 v 0.44 c 0,2.434667 -0.90933,3.285334 -3.57866,3.285334 h -3.63734 c -2.66933,0 -3.54933,-0.850667 -3.54933,-3.226667 v -0.205334 l -2.78667,0.352 v 0.234667 c 0,3.637334 1.70134,5.250667 5.632,5.250667 z" /><path
       id="path9139"
       style="stroke:none"
       d="m 188.95102,14.633211 h -16.66133 v 2.405333 h 6.92266 v 18.304001 h 2.78667 V 17.038544 h 6.952 z" /><path
       id="path9141"
       style="stroke:none"
       d="m 209.50035,14.339877 h -5.016 c -3.93066,0 -5.632,1.613334 -5.632,5.309334 v 10.677333 c 0,3.696001 1.70134,5.309334 5.632,5.309334 h 5.016 c 3.93067,0 5.632,-1.613333 5.632,-5.309334 V 19.649211 c 0,-3.696 -1.70133,-5.309334 -5.632,-5.309334 z m 2.84534,5.690667 v 9.914667 c 0,2.434667 -0.88,3.285334 -3.54934,3.285334 h -3.608 c -2.66933,0 -3.54933,-0.850667 -3.54933,-3.285334 v -9.914667 c 0,-2.464 0.88,-3.285333 3.54933,-3.285333 h 3.608 c 2.66934,0 3.54934,0.821333 3.54934,3.285333 z" /><path
       id="path9143"
       style="stroke:none"
       d="m 244.37398,14.633211 -7.15734,10.970667 -7.15733,-10.970667 h -2.78667 v 20.709334 h 2.78667 V 19.091878 l 6.57067,10.090666 h 1.17333 l 6.6,-10.090666 v 16.250667 h 2.78667 V 14.633211 Z" /></g><g
     transform="translate(-0.249997,-12.894502)"
     id="text9131"
     style="font-style:normal;font-variant:normal;font-weight:bold;font-stretch:normal;font-size:40px;line-height:1.25;font-family:Erbaum;-inkscape-font-specification:'Erbaum Bold';letter-spacing:0px;word-spacing:0px;fill:#ffffff;fill-opacity:1;stroke:none"
     aria-label="COLLECTIONS"><path
       id="path9146"
       style="stroke:none"
       d="m 32.277624,71.449126 h 9 c 4.8,0 7.24,-2.4 7.24,-7.08 0,-0.32 0,-0.4 -0.04,-0.56 l -7.16,-0.88 v 0.28 c 0,1.56 -0.56,2.12 -2.2,2.12 h -4.68 c -1.64,0 -2.2,-0.56 -2.2,-2.12 v -12.84 c 0,-1.6 0.56,-2.12 2.2,-2.12 h 4.68 c 1.64,0 2.2,0.52 2.2,2.12 v 0.24 l 7.16,-0.84 c 0.04,-0.16 0.04,-0.28 0.04,-0.6 0,-4.64 -2.44,-7.04 -7.24,-7.04 h -9 c -4.8,0 -7.24,2.4 -7.24,7.08 v 15.16 c 0,4.68 2.44,7.08 7.24,7.08 z" /><path
       id="path9148"
       style="stroke:none"
       d="m 70.340124,42.129126 h -9 c -4.8,0 -7.24,2.4 -7.24,7.08 v 15.16 c 0,4.68 2.44,7.08 7.24,7.08 h 9 c 4.8,0 7.24,-2.4 7.24,-7.08 v -15.16 c 0,-4.68 -2.44,-7.08 -7.24,-7.08 z m 0.04,8.24 v 12.84 c 0,1.56 -0.56,2.12 -2.2,2.12 h -4.68 c -1.64,0 -2.2,-0.56 -2.2,-2.12 v -12.84 c 0,-1.6 0.56,-2.12 2.2,-2.12 h 4.68 c 1.64,0 2.2,0.52 2.2,2.12 z" /><path
       id="path9150"
       style="stroke:none"
       d="m 91.309499,64.929126 v -22.4 h -7.2 v 28.52 H 103.9095 v -6.12 z" /><path
       id="path9152"
       style="stroke:none"
       d="m 116.07512,64.929126 v -22.4 h -7.2 v 28.52 h 19.8 v -6.12 z" /><path
       id="path9154"
       style="stroke:none"
       d="m 153.88075,48.649126 v -6.12 h -20.24 v 28.52 h 20.24 v -6.12 h -13.04 v -5.4 h 11.36 v -6.12 h -11.36 v -4.76 z" /><path
       id="path9156"
       style="stroke:none"
       d="m 166.18387,71.449126 h 9 c 4.8,0 7.24,-2.4 7.24,-7.08 0,-0.32 0,-0.4 -0.04,-0.56 l -7.16,-0.88 v 0.28 c 0,1.56 -0.56,2.12 -2.2,2.12 h -4.68 c -1.64,0 -2.2,-0.56 -2.2,-2.12 v -12.84 c 0,-1.6 0.56,-2.12 2.2,-2.12 h 4.68 c 1.64,0 2.2,0.52 2.2,2.12 v 0.24 l 7.16,-0.84 c 0.04,-0.16 0.04,-0.28 0.04,-0.6 0,-4.64 -2.44,-7.04 -7.24,-7.04 h -9 c -4.8,0 -7.24,2.4 -7.24,7.08 v 15.16 c 0,4.68 2.44,7.08 7.24,7.08 z" /><path
       id="path9158"
       style="stroke:none"
       d="m 209.80825,42.529126 h -23.44 v 6.12 h 8.12 v 22.4 h 7.2 v -22.4 h 8.12 z" /><path
       id="path9160"
       style="stroke:none"
       d="m 214.7345,71.049126 h 7.2 v -28.52 h -7.2 z" /><path
       id="path9162"
       style="stroke:none"
       d="m 244.71512,42.129126 h -9 c -4.8,0 -7.24,2.4 -7.24,7.08 v 15.16 c 0,4.68 2.44,7.08 7.24,7.08 h 9 c 4.8,0 7.24,-2.4 7.24,-7.08 v -15.16 c 0,-4.68 -2.44,-7.08 -7.24,-7.08 z m 0.04,8.24 v 12.84 c 0,1.56 -0.56,2.12 -2.2,2.12 h -4.68 c -1.64,0 -2.2,-0.56 -2.2,-2.12 v -12.84 c 0,-1.6 0.56,-2.12 2.2,-2.12 h 4.68 c 1.64,0 2.2,0.52 2.2,2.12 z" /><path
       id="path9164"
       style="stroke:none"
       d="m 275.6045,42.529126 v 16.6 l -10.24,-16.6 h -6.96 v 28.52 h 7.2 v -16.6 l 10.2,16.6 h 7 v -28.52 z" /><path
       id="path9166"
       style="stroke:none"
       d="m 296.29637,71.449126 h 9.08 c 4.8,0 7.24,-2.4 7.24,-7.08 v -3.8 c 0,-4.16 -1.8,-5.92 -6.8,-6.64 l -6.56,-0.96 c -2.52,-0.36 -2.92,-0.6 -2.92,-1.96 v -0.64 c 0,-1.56 0.6,-2.12 2.32,-2.12 h 4.44 c 1.64,0 2.2,0.52 2.2,2.12 v 0.24 l 7.16,-0.84 c 0.04,-0.16 0.04,-0.2 0.04,-0.6 0,-4.64 -2.44,-7.04 -7.24,-7.04 h -8.84 c -4.8,0 -7.28,2.4 -7.28,7.08 v 3.72 c 0,4.08 1.92,5.84 6.88,6.56 l 6.52,0.96 c 2.4,0.36 2.88,0.68 2.88,2 v 0.76 c 0,1.56 -0.56,2.12 -2.2,2.12 h -4.76 c -1.68,0 -2.24,-0.56 -2.24,-2.12 v -0.28 l -7.16,0.88 c -0.04,0.12 -0.04,0.16 -0.04,0.56 0,4.68 2.48,7.08 7.28,7.08 z" /></g></svg>