<svg xmlns="http://www.w3.org/2000/svg" viewBox="0 0 285.75 95.25" height="360" width="1080">
  <g fill="#fff">
    <rect transform="rotate(-35.1)" ry="2.65" rx="2.65" y="118.18" x="54.24" height="5.74" width="16.18"/>
    <circle r="7.35" cy="71.7" cx="194.67"/>
    <path d="M76.8 40.03c-.3 0-.53.23-.53.53v11.3h-11.3c-.29 0-.53.23-.53.52v9.1c0 .3.24.53.53.53h11.3v11.3c0 .3.24.53.53.53h9.1c.3 0 .53-.24.53-.53V62h11.3c.29 0 .52-.24.52-.53v-9.1c0-.29-.23-.53-.53-.53h-11.3v-11.3c0-.29-.23-.52-.52-.52z"/>
    <circle r="7.35" cy="57.59" cx="213.96"/>
    <circle r="7.35" cy="57.39" cx="176.76"/>
    <circle r="7.35" cy="43.23" cx="196.03"/>
    <rect transform="rotate(-35.1)" ry="2.65" rx="2.65" y="130.71" x="71.82" height="5.74" width="16.18"/>
    <path d="M85.62 16.2c-.65 0-5.62.1-9 .36-2.77.56-5.4 1.3-5.5 1.33l-5.32 1.58c-2.83.76-5.09 5.8-3.66 8.07 1.28 2.02 3.74 1.94 6.57 1.18l6.53-1.92c2.06-.42 7.59-1.4 9.82-1.34h14.16c2.93 0 5.29-2.06 5.29-4.63 0-2.56-2.36-4.63-5.3-4.63zM200.13 16.54c.65 0 5.62.1 9 .36 2.77.56 5.4 1.3 5.5 1.33l5.32 1.58c2.83.76 5.09 5.8 3.66 8.07-1.28 2.02-3.74 1.94-6.57 1.18l-6.53-1.92c-2.06-.42-7.59-1.4-9.82-1.34h-14.16c-2.93 0-5.29-2.06-5.29-4.63 0-2.56 2.36-4.63 5.3-4.63z"/>
  </g>
</svg>
