<?xml version="1.0" encoding="UTF-8" standalone="no"?>
<svg
   xmlns:dc="http://purl.org/dc/elements/1.1/"
   xmlns:cc="http://creativecommons.org/ns#"
   xmlns:rdf="http://www.w3.org/1999/02/22-rdf-syntax-ns#"
   xmlns:svg="http://www.w3.org/2000/svg"
   xmlns="http://www.w3.org/2000/svg"
   xml:space="preserve"
   enable-background="new 169.102 12.001 246.295 124.395"
   viewBox="169.102 12.001 246.295 124.395"
   height="124.395px"
   width="246.295px"
   y="0px"
   x="0px"
   id="Layer_1"
   version="1.1"><metadata
     id="metadata1791"><rdf:RDF><cc:Work
         rdf:about=""><dc:format>image/svg+xml</dc:format><dc:type
           rdf:resource="http://purl.org/dc/dcmitype/StillImage" /><dc:title></dc:title></cc:Work></rdf:RDF></metadata><defs
     id="defs1789" /><linearGradient
     gradientTransform="matrix(0.91633977,0,0,-0.91633977,623.73633,231.47979)"
     y2="230.7196"
     x2="-458.3301"
     y1="157.1563"
     x1="-458.3301"
     gradientUnits="userSpaceOnUse"
     id="SVGID_1_"><stop
       id="stop1692"
       style="stop-color:#9B9B9B"
       offset="0" /><stop
       id="stop1694"
       style="stop-color:#5B5C60"
       offset="1" /></linearGradient><path
     style="fill:url(#SVGID_1_);stroke-width:0.91633976"
     id="path1697"
     d="m 184.10675,123.37478 1.07211,-2.5465 V 22.540759 l -2.68121,-3.352887 h 33.38959 l 9.11758,5.498039 v 45.723522 l -24.80623,13.810156 v 23.331841 h 3.35289 z m 15.82243,-55.915045 10.72759,-6.435454 v -26.01397 h -10.72759 z" /><linearGradient
     gradientTransform="matrix(0.91633977,0,0,-0.91633977,623.73633,231.47979)"
     y2="230.7195"
     x2="-408.3584"
     y1="157.1563"
     x1="-408.3584"
     gradientUnits="userSpaceOnUse"
     id="SVGID_2_"><stop
       id="stop1699"
       style="stop-color:#9B9B9B"
       offset="0" /><stop
       id="stop1701"
       style="stop-color:#5B5C60"
       offset="1" /></linearGradient><path
     style="fill:url(#SVGID_2_);stroke-width:0.91633976"
     id="path1704"
     d="m 263.75408,19.187872 5.90031,6.838644 v 78.040994 l -21.85653,18.50273 -18.36987,-17.03018 V 26.562575 l 5.63183,-7.374703 z m -19.17441,14.481834 v 60.339141 l 8.98471,7.911683 V 33.66879 Z" /><linearGradient
     gradientTransform="matrix(0.91633977,0,0,-0.91633977,623.73633,231.47979)"
     y2="230.7198"
     x2="-360.3633"
     y1="157.1563"
     x1="-360.3633"
     gradientUnits="userSpaceOnUse"
     id="SVGID_3_"><stop
       id="stop1706"
       style="stop-color:#9B9B9B"
       offset="0" /><stop
       id="stop1708"
       style="stop-color:#5B5C60"
       offset="1" /></linearGradient><path
     style="fill:url(#SVGID_3_);stroke-width:0.91633976"
     id="path1711"
     d="M 274.47984,121.09585 V 22.540759 l -2.68121,-3.352887 h 33.38776 l 9.11758,5.498039 v 28.292907 l -14.07865,8.045463 14.07865,7.507571 V 94.41112 l 0.93924,0.805463 -15.55486,11.396517 V 74.834437 l -10.1897,-5.364253 v 40.361096 l 2.01136,2.95062 -18.50639,13.67728 z m 14.7494,-68.38552 10.72668,-6.436371 V 35.010311 h -10.72668 z" /><linearGradient
     gradientTransform="matrix(0.91633977,0,0,-0.91633977,623.73633,231.47979)"
     y2="230.7196"
     x2="-310.6855"
     y1="157.1563"
     x1="-310.6855"
     gradientUnits="userSpaceOnUse"
     id="SVGID_4_"><stop
       id="stop1713"
       style="stop-color:#9B9B9B"
       offset="0" /><stop
       id="stop1715"
       style="stop-color:#5B5C60"
       offset="1" /></linearGradient><path
     style="fill:url(#SVGID_4_);stroke-width:0.91633976"
     id="path1718"
     d="M 331.06474,35.010311 H 319.13033 V 22.539843 l -2.68121,-3.352887 h 45.18746 l -2.68121,3.352887 v 12.470468 h -13.00836 v 76.562929 l 2.14607,3.21911 -18.63927,13.4088 1.60909,-7.24092 V 35.010311 Z" /><linearGradient
     gradientTransform="matrix(0.91633977,0,0,-0.91633977,623.73633,231.47979)"
     y2="230.7195"
     x2="-263.4224"
     y1="157.1563"
     x1="-263.4224"
     gradientUnits="userSpaceOnUse"
     id="SVGID_5_"><stop
       id="stop1720"
       style="stop-color:#9B9B9B"
       offset="0" /><stop
       id="stop1722"
       style="stop-color:#5B5C60"
       offset="1" /></linearGradient><path
     style="fill:url(#SVGID_5_);stroke-width:0.91633976"
     id="path1725"
     d="m 394.48644,19.187872 9.1185,5.498039 v 13.543502 h -16.09092 v -3.218186 h -8.98472 v 19.978956 l 25.07473,13.541669 v 22.12594 l -40.89808,32.716988 1.07395,-2.5465 V 76.845803 h 14.7494 v 9.52077 l 8.98472,-6.570156 V 74.298379 L 363.78173,60.888662 V 22.540759 l -2.68304,-3.352887 z" /><linearGradient
     gradientTransform="matrix(0.91633977,0,0,-0.91633977,623.73633,231.47979)"
     y2="189.3957"
     x2="-457.4707"
     y1="112.8584"
     x1="-457.4707"
     gradientUnits="userSpaceOnUse"
     id="SVGID_6_"><stop
       id="stop1727"
       style="stop-color:#F9DA55"
       offset="0" /><stop
       id="stop1729"
       style="stop-color:#E04305"
       offset="1" /></linearGradient><path
     style="fill:url(#SVGID_6_);stroke-width:0.91633976"
     id="path1732"
     d="m 224.9865,61.480618 v 8.8775 L 200.17935,84.168274 V 107.4992 h 3.35288 l -19.44289,15.82335 1.07303,-2.54651 V 84.280068" /><linearGradient
     gradientTransform="matrix(0.91633977,0,0,-0.91633977,623.73633,231.47979)"
     y2="189.3956"
     x2="-408.3779"
     y1="112.8594"
     x1="-408.3779"
     gradientUnits="userSpaceOnUse"
     id="SVGID_7_"><stop
       id="stop1734"
       style="stop-color:#F9DA55"
       offset="0" /><stop
       id="stop1736"
       style="stop-color:#E04305"
       offset="1" /></linearGradient><path
     style="fill:url(#SVGID_7_);stroke-width:0.91633976"
     id="path1739"
     d="M 269.63698,83.288588 V 104.01253 L 247.78045,122.51617 229.41058,105.486 V 61.067349 l 15.15168,8.259886 v 24.628464 l 8.9838,7.911681 V 74.451407 Z" /><linearGradient
     gradientTransform="matrix(0.91633977,0,0,-0.91633977,623.73633,231.47979)"
     y2="189.3984"
     x2="-359.7236"
     y1="112.8584"
     x1="-359.7236"
     gradientUnits="userSpaceOnUse"
     id="SVGID_8_"><stop
       id="stop1741"
       style="stop-color:#F9DA55"
       offset="0" /><stop
       id="stop1743"
       style="stop-color:#E04305"
       offset="1" /></linearGradient><path
     style="fill:url(#SVGID_8_);stroke-width:0.91633976"
     id="path1746"
     d="m 289.48032,76.679946 v 33.099104 l 2.01137,2.9497 -18.50365,13.6782 1.47439,-5.36333 V 83.784328 m 35.94984,-17.371053 3.8752,2.067262 v 25.878352 l 0.93925,0.804546 -15.55578,11.397435 V 74.782206 l -3.01659,-1.587101" /><linearGradient
     gradientTransform="matrix(0.91633977,0,0,-0.91633977,623.73633,231.47979)"
     y2="189.396"
     x2="-310.9966"
     y1="112.8594"
     x1="-310.9966"
     gradientUnits="userSpaceOnUse"
     id="SVGID_9_"><stop
       id="stop1748"
       style="stop-color:#F9DA55"
       offset="0" /><stop
       id="stop1750"
       style="stop-color:#E04305"
       offset="1" /></linearGradient><path
     style="fill:url(#SVGID_9_);stroke-width:0.91633976"
     id="path1753"
     d="m 345.93235,74.202163 v 37.319767 l 2.14515,3.21818 -18.63835,13.4088 1.60909,-7.24091 V 64.868326" /><linearGradient
     gradientTransform="matrix(0.91633977,0,0,-0.91633977,623.73633,231.47979)"
     y2="189.397"
     x2="-262.5625"
     y1="112.8584"
     x1="-262.5625"
     gradientUnits="userSpaceOnUse"
     id="SVGID_10_"><stop
       id="stop1755"
       style="stop-color:#F9DA55"
       offset="0" /><stop
       id="stop1757"
       style="stop-color:#E04305"
       offset="1" /></linearGradient><path
     style="fill:url(#SVGID_10_);stroke-width:0.91633976"
     id="path1760"
     d="m 394.55425,63.600112 9.0342,4.880425 v 22.125024 l -40.89808,32.716989 1.07303,-2.54651 V 76.793572 h 14.74941 v 9.521686 l 8.98471,-6.571072 v -5.497122 l -7.63219,-4.314128" /><polygon
     style="fill:#542209"
     transform="matrix(0.91633977,0,0,0.91633977,24.450118,6.2070034)"
     id="polygon1762"
     points="176.986,85.834 175.901,83.96 217.281,60.023 218.364,61.898 " /><polygon
     style="fill:#542209"
     transform="matrix(0.91633977,0,0,0.91633977,24.450118,6.2070034)"
     id="polygon1764"
     points="239.693,69.834 224.338,61.506 225.372,59.604 240.721,67.934 " /><polygon
     style="fill:#542209"
     transform="matrix(0.91633977,0,0,0.91633977,24.450118,6.2070034)"
     id="polygon1766"
     points="266.36,85.018 250.54,75.686 251.64,73.821 267.461,83.153 " /><polygon
     style="fill:#542209"
     transform="matrix(0.91633977,0,0,0.91633977,24.450118,6.2070034)"
     id="polygon1768"
     points="273.89,85.727 272.914,83.797 288.465,75.953 289.441,77.885 " /><polygon
     style="fill:#542209"
     transform="matrix(0.91633977,0,0,0.91633977,24.450118,6.2070034)"
     id="polygon1770"
     points="298.246,73.549 297.238,71.634 309.542,65.143 310.551,67.059 " /><polygon
     style="fill:#542209"
     transform="matrix(0.91633977,0,0,0.91633977,24.450118,6.2070034)"
     id="polygon1772"
     points="348.532,74.035 335.008,65.109 336.201,63.305 349.724,72.229 " /><polygon
     style="fill:#542209"
     transform="matrix(0.91633977,0,0,0.91633977,24.450118,6.2070034)"
     id="polygon1774"
     points="388.793,70.195 387.895,68.225 401.821,61.869 402.721,63.839 " /><path
     style="stroke-width:0.91633976"
     id="path1776"
     d="M 183.68981,120.03198 V 22.565501 l -4.28572,-5.359672 h 36.89459 l 10.1897,6.144058 v 47.43891 l -24.80624,13.809241 v 20.971352 h 6.04693 l -22.68491,18.46058 -4.62568,3.7634 z m 1.78595,3.42253 -1.37085,-0.57638 z m 1.18941,-101.933637 v 97.355597 l 12.69772,-10.33356 h -0.65427 V 82.850578 L 223.51211,69.039505 V 25.027706 l -8.04089,-4.848354 -29.88367,-0.0018 1.07762,1.343354 z m 11.77496,11.507395 h 13.70203 v 28.341473 l -11.45058,6.867966 -0.76514,-1.274628 0.76514,1.274628 -2.25236,1.355267 V 33.028268 Z m 2.97353,31.308581 7.75223,-4.650424 V 36.001791 l -7.75223,-0.0018 v 28.336891 z" /><path
     style="stroke-width:0.91633976"
     id="path1778"
     d="M 227.93894,105.69126 V 25.563764 l 6.38231,-8.357935 h 29.431 v 1.486303 -1.486303 h 0.67901 l 6.70852,7.770562 v 79.281719 l -23.38957,19.8021 z m 2.97353,-79.120438 v 77.826568 l 16.92846,15.6914 20.32441,-17.20519 V 26.081496 l -5.09485,-5.90306 h -27.27668 z m 12.17907,67.613046 V 33.173966 31.686747 h 11.95731 v 73.032283 z m 2.97352,-1.342438 6.00936,5.291862 V 34.661186 h -6.00936 z m -1.4863,-58.180244 v -1.48722 z" /><path
     style="stroke-width:0.91633976"
     id="path1780"
     d="m 272.99079,120.39393 -0.002,-97.828429 -4.28663,-5.360588 h 36.89459 l 10.19244,6.145891 V 53.34627 l -12.49154,7.136454 12.49154,6.662706 -0.002,26.087277 1.84551,1.57977 -19.43374,14.234423 V 75.235794 l -7.21617,-3.798228 v 37.438894 l 2.56025,3.75241 -23.11558,17.08424 2.563,-9.31918 z m 2.97444,0.40594 -0.38945,1.41208 13.89813,-10.27125 -1.46431,-2.14974 V 66.513156 l 13.16322,6.927529 -0.002,29.742555 11.67784,-8.555864 -0.0357,-0.02841 V 68.928628 l -15.66758,-8.355186 15.66758,-8.953556 V 25.028622 l -8.04455,-4.850186 h -29.87817 l 1.07578,1.343354 v 99.07649 l -9.1e-4,0.20159 z m 11.77588,-87.771602 h 13.70111 v 13.589319 l -11.44875,6.871632 -0.76606,-1.275545 0.76606,1.275545 -2.25236,1.351601 z m 2.97352,16.559176 7.75315,-4.653173 v -8.934313 h -7.75315 z" /><path
     style="stroke-width:0.91633976"
     id="path1782"
     d="M 329.57477,120.3023 V 36.000874 H 317.64219 V 22.565501 l -4.28572,-5.359672 h 51.37367 l -4.28938,5.361504 v 13.433541 h -13.00745 v 74.628536 l 2.69221,4.03465 -22.97081,16.52802 z m 2.97627,-87.274032 V 120.6276 l -0.80088,3.59572 14.30681,-10.29417 -1.59718,-2.39989 V 33.028268 h 13.00653 V 21.52179 l 1.07486,-1.342438 h -39.00125 l 1.07578,1.342438 v 11.506478 h 10.44628 v 1.48722 -1.48722 z" /><path
     style="stroke-width:0.91633976"
     id="path1784"
     d="M 362.29268,120.03106 V 74.861928 h 17.72293 v 8.075702 l 6.01027,-4.392933 v -3.87795 L 362.29451,61.260696 V 22.566417 l -4.28664,-5.361504 h 36.47949 v 1.487219 -1.487219 h 0.4151 l 10.19245,6.144974 v 15.870089 h -19.06628 v -3.218185 h -6.01211 V 53.60651 l 25.07747,13.544418 v 23.72587 l -46.03141,36.817612 z m 2.97444,-1.10511 36.84785,-29.478642 V 68.922213 L 377.04117,55.379628 V 33.027352 h 11.95915 l -0.002,3.217269 h 13.1174 V 25.027706 l -8.04088,-4.848354 -29.88459,-0.0018 1.07761,1.345187 -0.003,38.001527 23.73503,13.408799 v 7.119044 l -11.95915,8.747379 V 77.836366 h -11.77405 v 41.089584 z" /></svg>