<?xml version="1.0" encoding="UTF-8" standalone="no"?>
<svg
   xmlns:ns1="&amp;#38;#38;#38;ns_sfw;"
   xmlns:dc="http://purl.org/dc/elements/1.1/"
   xmlns:cc="http://creativecommons.org/ns#"
   xmlns:rdf="http://www.w3.org/1999/02/22-rdf-syntax-ns#"
   xmlns:svg="http://www.w3.org/2000/svg"
   xmlns="http://www.w3.org/2000/svg"
   xml:space="preserve"
   enable-background="new 23.577 0 290.5 85.789"
   viewBox="23.577 0 290 59.999999"
   height="60"
   width="290"
   y="0px"
   x="0px"
   id="Ebene_1"
   version="1.1"><defs
     id="defs7420" /><metadata
     id="metadata7351"><ns1:sfw><ns1:slices /><ns1:sliceSourceBounds
         bottomLeftOrigin="true"
         height="85.789"
         width="285.603"
         y="517.325"
         x="816.781" /></ns1:sfw><rdf:RDF><cc:Work
         rdf:about=""><dc:format>image/svg+xml</dc:format><dc:type
           rdf:resource="http://purl.org/dc/dcmitype/StillImage" /><dc:title></dc:title></cc:Work></rdf:RDF></metadata><g
     transform="translate(-0.2500025,-12.8945)"
     aria-label="LAST"
     style="font-style:normal;font-variant:normal;font-weight:normal;font-stretch:normal;font-size:29.33333397px;line-height:3.25;font-family:Erbaum;-inkscape-font-specification:Erbaum;letter-spacing:7.44000006px;word-spacing:0px;fill:#ffffff;fill-opacity:1;stroke:#000000;stroke-width:5;stroke-linecap:butt;stroke-linejoin:round;stroke-miterlimit:4;stroke-dasharray:none;stroke-opacity:0"
     id="text7967"><path
       d="m 125.97214,35.265546 v -18.304 h -2.78667 v 20.709333 h 13.96267 v -2.405333 z"
       style="font-style:normal;font-variant:normal;font-weight:normal;font-stretch:normal;font-size:29.33333397px;line-height:2.25;font-family:Erbaum;-inkscape-font-specification:Erbaum;text-align:center;letter-spacing:7.44000006px;word-spacing:0px;text-anchor:middle;fill:#ffffff;fill-opacity:1;stroke:#000000;stroke-width:5;stroke-linecap:butt;stroke-linejoin:round;stroke-miterlimit:4;stroke-dasharray:none;stroke-opacity:0"
       id="path8475" /><path
       d="m 163.55443,37.670879 h 2.84533 l -7.42133,-20.709333 h -4.01867 l -7.42133,20.709333 h 2.84533 l 2.14134,-6.042666 h 8.888 z m -10.14933,-8.448 3.57866,-10.032 3.54934,10.032 z"
       style="font-style:normal;font-variant:normal;font-weight:normal;font-stretch:normal;font-size:29.33333397px;line-height:2.25;font-family:Erbaum;-inkscape-font-specification:Erbaum;text-align:center;letter-spacing:7.44000006px;word-spacing:0px;text-anchor:middle;fill:#ffffff;fill-opacity:1;stroke:#000000;stroke-width:5;stroke-linecap:butt;stroke-linejoin:round;stroke-miterlimit:4;stroke-dasharray:none;stroke-opacity:0"
       id="path8477" /><path
       d="m 183.21635,37.964213 h 5.07466 c 3.90134,0 5.632,-1.613334 5.632,-5.309334 v -1.437333 c 0,-3.109334 -1.26133,-4.341334 -4.928,-4.869334 l -5.25066,-0.762666 c -2.64,-0.410667 -3.256,-0.938667 -3.256,-2.933334 v -0.293333 c 0,-2.434667 0.90933,-3.285333 3.57866,-3.285333 h 3.37334 c 2.66933,0 3.57866,0.821333 3.57866,3.226666 v 0.205334 l 2.75734,-0.352 c 0.0293,-0.05867 0.0293,-0.088 0.0293,-0.234667 0,-3.637333 -1.73067,-5.250667 -5.66133,-5.250667 h -4.81067 c -3.93067,0 -5.632,1.613334 -5.632,5.309334 v 1.32 c 0,3.08 1.29067,4.312 4.95733,4.84 l 5.22134,0.762667 c 2.58133,0.381333 3.256,0.968 3.256,2.933333 v 0.44 c 0,2.434667 -0.90934,3.285333 -3.57867,3.285333 h -3.63733 c -2.66934,0 -3.54934,-0.850666 -3.54934,-3.226666 v -0.205334 l -2.78666,0.352 v 0.234667 c 0,3.637333 1.70133,5.250667 5.632,5.250667 z"
       style="font-style:normal;font-variant:normal;font-weight:normal;font-stretch:normal;font-size:29.33333397px;line-height:2.25;font-family:Erbaum;-inkscape-font-specification:Erbaum;text-align:center;letter-spacing:7.44000006px;word-spacing:0px;text-anchor:middle;fill:#ffffff;fill-opacity:1;stroke:#000000;stroke-width:5;stroke-linecap:butt;stroke-linejoin:round;stroke-miterlimit:4;stroke-dasharray:none;stroke-opacity:0"
       id="path8479" /><path
       d="m 221.99123,16.961546 h -16.66134 v 2.405333 h 6.92267 v 18.304 h 2.78667 v -18.304 h 6.952 z"
       style="font-style:normal;font-variant:normal;font-weight:normal;font-stretch:normal;font-size:29.33333397px;line-height:2.25;font-family:Erbaum;-inkscape-font-specification:Erbaum;text-align:center;letter-spacing:7.44000006px;word-spacing:0px;text-anchor:middle;fill:#ffffff;fill-opacity:1;stroke:#000000;stroke-width:5;stroke-linecap:butt;stroke-linejoin:round;stroke-miterlimit:4;stroke-dasharray:none;stroke-opacity:0"
       id="path8481" /></g><g
     transform="translate(-0.2500025,-12.8945)"
     aria-label="PLAYED"
     style="font-style:normal;font-variant:normal;font-weight:bold;font-stretch:normal;font-size:40px;line-height:1.25;font-family:Erbaum;-inkscape-font-specification:'Erbaum Bold';letter-spacing:0px;word-spacing:0px;fill:#ffffff;fill-opacity:1;stroke:none"
     id="text6054"><path
       d="M 104.13607,43.100789 H 88.736065 v 28.52 h 7.2 v -9.92 h 8.200005 c 4.8,0 7.24,-2.4 7.24,-7.08 v -4.44 c 0,-4.68 -2.44,-7.08 -7.24,-7.08 z m 0.04,10.36 c 0,1.56 -0.56,2.12 -2.2,2.12 h -6.040005 v -6.36 h 6.040005 c 1.64,0 2.2,0.52 2.2,2.12 z"
       id="path8462" /><path
       d="m 123.82669,65.500789 v -22.4 h -7.2 v 28.52 h 19.8 v -6.12 z"
       id="path8464" /><path
       d="m 160.55232,71.620789 h 7.4 l -9,-28.52 h -10.52 l -9,28.52 h 7.36 l 1.84,-6.12 h 10.08 z m -10.04,-12.28 3.2,-10.56 3.16,10.56 z"
       id="path8466" /><path
       d="m 194.72857,43.100789 h -8 l -5.8,10.96 -5.84,-10.96 h -8 l 10.2,18.8 v 9.72 h 7.24 v -9.72 z"
       id="path8468" /><path
       d="m 219.99169,49.220789 v -6.12 h -20.24 v 28.52 h 20.24 v -6.12 h -13.04 v -5.4 h 11.36 v -6.12 h -11.36 v -4.76 z"
       id="path8470" /><path
       d="m 241.63794,43.100789 h -15.48 v 28.52 h 15.48 c 4.84,0 7.28,-2.4 7.28,-7.08 v -14.36 c 0,-4.68 -2.44,-7.08 -7.28,-7.08 z m 0.08,20.28 c 0,1.56 -0.56,2.12 -2.24,2.12 h -6.12 v -16.28 h 6.12 c 1.68,0 2.24,0.52 2.24,2.12 z"
       id="path8472" /></g></svg>