<svg xmlns="http://www.w3.org/2000/svg" height="458.93" width="566.93">
  <path d="M506.57 192.39c.08-1.07 0-2.18 0-3.07V127.9c0-1.07-.06-2.17-.34-3.19-5.9-22.18-16.6-41.5-34.32-56.45-14.55-12.28-31.26-19.12-50.52-19.12H269.13l-204.92.01c-1.26 0-2.53-.06-3.89 0V95.7c.96.37 1.79.75 2.65 1.02 6.28 2 12.56 4 18.85 5.98l189.83 60.11c29.89 9.47 59.76 18.96 89.66 28.4a19.9 19.9 0 0 0 5.8 1.15c45.47.06 90.93.05 136.4.04.9 0 1.99.08 3.06 0zm-176.18-2.95l-122.1-38.7v179.7l-52.22 26.34v53.02h213.66V306.75H330.4V189.44zm13.83 14.04v90.39h162.15v-90.39H344.22z" clip-rule="evenodd" fill="#cf8a61" fill-rule="evenodd"/>
  <path d="M371.3 411.37H154.5v-55.56l52.21-26.34V148.58l125.25 39.7v116.9h39.35v106.2zm-213.66-3.15h210.52v-99.9H328.8V190.6l-118.95-37.7V331.4l-52.22 26.34zm350.3-112.78h-165.3v-93.53h165.3v93.53zm-162.14-3.15h159v-87.23h-159zM505.5 194l-1.12-.02-.87-.02h-6.4l-47.32.01c-33.03 0-58.53-.01-82.67-.05-2.15 0-4.29-.59-6.29-1.22-19.27-6.08-38.53-12.19-57.79-18.3l-31.86-10.1-133.91-42.4-58.85-18.63c-5.31-1.68-10.62-3.36-15.93-5.06-.64-.2-1.23-.45-1.86-.7-.28-.12-.57-.24-.88-.35l-1-.4v-49.1l1.5-.07c.94-.04 1.84-.03 2.72-.02l1.23.02 172.84-.01h184.35c18.87 0 36.2 6.55 51.54 19.48 16.99 14.34 28.38 33.07 34.82 57.26.34 1.27.39 2.59.39 3.59.02 20.47.02 40.94 0 61.4l.02.88c.02.7.04 1.5-.02 2.32l-.1 1.34-1.35.1c-.4.04-.8.05-1.19.05zm-2-3.19l.96.02.57.02-.02-.58-.01-.95-.01-61.41c0-.81-.03-1.86-.28-2.78-6.27-23.55-17.33-41.75-33.81-55.66-14.75-12.44-31.4-18.74-49.5-18.74H62.91l-1.01-.02v43.91c.54.22 1.05.43 1.55.6l15.92 5.05 58.85 18.63a1311854.78 1311854.78 0 0 1 165.77 52.5c19.26 6.1 38.52 12.22 57.79 18.3a18.6 18.6 0 0 0 5.34 1.07c24.14.04 49.64.05 82.67.05h47.32z"/>
  <path d="M506.57 192.39l-141.72-.04L60.32 95.84V49.16c1.36-.06 140.5 0 208.81 0H421.4c19.26-.01 35.97 6.83 50.52 19.1 17.72 14.96 28.42 34.28 34.32 56.46.28 1.02.33 2.12.33 3.19.02 20.47.01 64.48.01 64.48z" clip-rule="evenodd" fill="#cf8a61" fill-rule="evenodd"/>
  <path d="M508.14 193.96l-143.53-.04-.24-.07L58.75 96.99V47.66l1.5-.07c.32-.02 5.83-.03 45.97-.03h84.5l78.41.02H421.4c18.87 0 36.2 6.55 51.54 19.48 16.99 14.34 28.38 33.07 34.82 57.26.34 1.27.39 2.58.39 3.59.02 20.47 0 64.48 0 64.48zm-143.05-3.19l139.9.04c0-8.03.02-44.73 0-62.9 0-.81-.03-1.86-.28-2.78-6.27-23.55-17.33-41.75-33.81-55.66-14.75-12.44-31.4-18.74-49.5-18.74H269.13l-78.41-.01-84.5-.01c-9.84 0-37.5 0-44.32.02v43.96z"/>
  <g>
    <path d="M330.39 189.44v117.31h39.34V409.8H156.07v-53.02l52.21-26.34v-179.7l122.1 38.7z" clip-rule="evenodd" fill="#cf8a61" fill-rule="evenodd"/>
    <path d="M371.3 411.37H154.5v-55.56l52.21-26.34V148.58l125.25 39.7v116.9h39.35v106.2zm-213.66-3.15h210.52v-99.9H328.8V190.6l-118.95-37.7V331.4l-52.22 26.34z"/>
  </g>
  <g>
    <path d="M344.22 203.48h162.15v90.39H344.22v-90.39z" clip-rule="evenodd" fill="#cf8a61" fill-rule="evenodd"/>
    <path d="M507.95 295.44h-165.3v-93.53h165.3v93.53zm-162.15-3.15h159v-87.23h-159z"/>
  </g>
</svg>
