<svg xmlns="http://www.w3.org/2000/svg" viewBox="0 0 285.75 95.25" height="360" width="1080">
  <g fill="#fff">
    <circle r="7.35" cy="67.66" cx="193.86"/>
    <path d="M69.94 27.3c-.3 0-.53.23-.53.52v11.3H58.1c-.3 0-.53.24-.53.53v9.1c0 .29.24.53.53.53h11.3v11.3c0 .29.24.52.53.52h9.1c.29 0 .53-.23.53-.53v-11.3h11.3c.29 0 .52-.23.52-.52v-9.1c0-.3-.23-.53-.53-.53h-11.3v-11.3c0-.3-.23-.53-.52-.53z"/>
    <circle r="6.03" cy="50.71" cx="210.22"/>
    <circle r="7.35" cy="51.08" cx="179.35"/>
    <path d="M85.17 4.53c-.65 0-5.61.11-9 .37-2.76.55-5.4 1.3-5.49 1.33L65.35 7.8c-2.83.76-5.08 5.79-3.65 8.06 1.27 2.03 3.73 1.94 6.56 1.18l6.53-1.91c2.07-.43 7.59-1.41 9.82-1.35h14.16c2.93 0 5.29-2.06 5.29-4.63 0-2.56-2.36-4.63-5.3-4.63zM199.68 4.87c.66 0 5.62.11 9 .36 2.77.56 5.4 1.31 5.5 1.34l5.33 1.58c2.83.76 5.08 5.79 3.65 8.06-1.27 2.02-3.73 1.94-6.56 1.18l-6.54-1.91c-2.06-.43-7.58-1.41-9.81-1.35h-14.16c-2.93 0-5.3-2.06-5.3-4.63 0-2.56 2.37-4.63 5.3-4.63z"/>
    <circle r="7.35" cy="47.13" cx="139.84"/>
    <circle r="6.03" cy="27.82" cx="210.06"/>
    <circle r="6.03" cy="38.5" cx="197.57"/>
    <circle r="6.03" cy="39.25" cx="222.14"/>
    <g transform="translate(-3.42 22.3)">
      <path d="M142.88 40.06l-10.03 4.16-4.15 10.02 4.15 10.02 10.02 4.15 10.03-4.15 4.15-10.02-4.15-10.02zm0 4a10.18 10.18 0 0 1 10.18 10.18 10.18 10.18 0 0 1-10.19 10.18 10.18 10.18 0 0 1-10.18-10.18 10.18 10.18 0 0 1 10.19-10.19z"/>
      <circle cx="142.88" cy="54.24" r="8.58"/>
    </g>
  </g>
</svg>
