<?xml version="1.0" encoding="UTF-8" standalone="no"?>
<svg
   xmlns:dc="http://purl.org/dc/elements/1.1/"
   xmlns:cc="http://creativecommons.org/ns#"
   xmlns:rdf="http://www.w3.org/1999/02/22-rdf-syntax-ns#"
   xmlns:svg="http://www.w3.org/2000/svg"
   xmlns="http://www.w3.org/2000/svg"
   xmlns:sodipodi="http://sodipodi.sourceforge.net/DTD/sodipodi-0.dtd"
   xmlns:inkscape="http://www.inkscape.org/namespaces/inkscape"
   inkscape:version="1.0 (4035a4fb49, 2020-05-01)"
   sodipodi:docname="system.svg"
   id="svg867"
   version="1.1"
   width="290"
   height="60"
   viewBox="23.58 0 290 60">
  <metadata
     id="metadata873">
    <rdf:RDF>
      <cc:Work
         rdf:about="">
        <dc:format>image/svg+xml</dc:format>
        <dc:type
           rdf:resource="http://purl.org/dc/dcmitype/StillImage" />
        <dc:title></dc:title>
      </cc:Work>
    </rdf:RDF>
  </metadata>
  <defs
     id="defs871" />
  <sodipodi:namedview
     inkscape:current-layer="svg867"
     inkscape:window-maximized="1"
     inkscape:window-y="-8"
     inkscape:window-x="-8"
     inkscape:cy="50.983526"
     inkscape:cx="165.35218"
     inkscape:zoom="3.6793103"
     showgrid="false"
     id="namedview869"
     inkscape:window-height="1017"
     inkscape:window-width="1920"
     inkscape:pageshadow="2"
     inkscape:pageopacity="0"
     guidetolerance="10"
     gridtolerance="10"
     objecttolerance="10"
     borderopacity="1"
     bordercolor="#666666"
     pagecolor="#ffffff" />
  <g
     transform="translate(54.999998)"
     style="font-style:normal;font-weight:normal;font-size:50.6667px;line-height:1.25;font-family:sans-serif;letter-spacing:-2.22px;fill:#ffffff;fill-opacity:1;stroke:none"
     id="text1438"
     aria-label="TOOLS">
    <path
       id="path1440"
       style="font-style:normal;font-variant:normal;font-weight:bold;font-stretch:normal;font-size:50.6667px;font-family:Erbaum;-inkscape-font-specification:'Erbaum Bold';fill:#ffffff;fill-opacity:1"
       d="M 62.063379,11.934817 H 32.372694 v 7.752005 h 10.285339 v 28.373351 h 9.120006 V 19.686822 h 10.28534 z" />
    <path
       id="path1442"
       style="font-style:normal;font-variant:normal;font-weight:bold;font-stretch:normal;font-size:50.6667px;font-family:Erbaum;-inkscape-font-specification:'Erbaum Bold';fill:#ffffff;fill-opacity:1"
       d="M 86.048355,11.42815 H 74.648348 c -6.080004,0 -9.170672,3.040002 -9.170672,8.968006 v 19.202678 c 0,5.928004 3.090668,8.968006 9.170672,8.968006 h 11.400007 c 6.080004,0 9.170672,-3.040002 9.170672,-8.968006 V 20.396156 c 0,-5.928004 -3.090668,-8.968006 -9.170672,-8.968006 z m 0.05067,10.43734 V 38.1295 c 0,1.976001 -0.709334,2.685335 -2.786669,2.685335 H 77.38435 c -2.077335,0 -2.786669,-0.709334 -2.786669,-2.685335 V 21.86549 c 0,-2.026668 0.709334,-2.685335 2.786669,-2.685335 h 5.928003 c 2.077335,0 2.786669,0.658667 2.786669,2.685335 z" />
    <path
       id="path1444"
       style="font-style:normal;font-variant:normal;font-weight:bold;font-stretch:normal;font-size:50.6667px;font-family:Erbaum;-inkscape-font-specification:'Erbaum Bold';fill:#ffffff;fill-opacity:1"
       d="m 121.33359,11.42815 h -11.40001 c -6.08,0 -9.17067,3.040002 -9.17067,8.968006 v 19.202678 c 0,5.928004 3.09067,8.968006 9.17067,8.968006 h 11.40001 c 6.08,0 9.17067,-3.040002 9.17067,-8.968006 V 20.396156 c 0,-5.928004 -3.09067,-8.968006 -9.17067,-8.968006 z m 0.0507,10.43734 V 38.1295 c 0,1.976001 -0.70934,2.685335 -2.78667,2.685335 h -5.92801 c -2.07733,0 -2.78666,-0.709334 -2.78666,-2.685335 V 21.86549 c 0,-2.026668 0.70933,-2.685335 2.78666,-2.685335 h 5.92801 c 2.07733,0 2.78667,0.658667 2.78667,2.685335 z" />
    <path
       id="path1446"
       style="font-style:normal;font-variant:normal;font-weight:bold;font-stretch:normal;font-size:50.6667px;font-family:Erbaum;-inkscape-font-specification:'Erbaum Bold';fill:#ffffff;fill-opacity:1"
       d="M 145.67482,40.308168 V 11.934817 h -9.12001 v 36.125356 h 25.08002 v -7.752005 z" />
    <path
       id="path1448"
       style="font-style:normal;font-variant:normal;font-weight:bold;font-stretch:normal;font-size:50.6667px;font-family:Erbaum;-inkscape-font-specification:'Erbaum Bold';fill:#ffffff;fill-opacity:1"
       d="m 174.11529,48.56684 h 11.50134 c 6.08001,0 9.17068,-3.040002 9.17068,-8.968006 v -4.813336 c 0,-5.269337 -2.28001,-7.498671 -8.61334,-8.410672 l -8.30934,-1.216001 c -3.192,-0.456 -3.69867,-0.76 -3.69867,-2.482668 V 21.86549 c 0,-1.976001 0.76,-2.685335 2.93867,-2.685335 h 5.624 c 2.07734,0 2.78667,0.658667 2.78667,2.685335 v 0.304 l 9.06934,-1.064001 c 0.0507,-0.202666 0.0507,-0.253333 0.0507,-0.76 0,-5.877337 -3.09067,-8.917339 -9.17068,-8.917339 h -11.19734 c -6.08,0 -9.22134,3.040002 -9.22134,8.968006 v 4.712003 c 0,5.168003 2.432,7.397338 8.71468,8.309338 l 8.25867,1.216001 c 3.04,0.456 3.648,0.861334 3.648,2.533335 V 38.1295 c 0,1.976001 -0.70933,2.685335 -2.78667,2.685335 h -6.02934 c -2.128,0 -2.83733,-0.709334 -2.83733,-2.685335 v -0.354667 l -9.06934,1.114668 c -0.0507,0.152 -0.0507,0.202666 -0.0507,0.709333 0,5.928004 3.14134,8.968006 9.22134,8.968006 z" />
  </g>
</svg>
