<?xml version="1.0" encoding="UTF-8" standalone="no"?>
<svg
   xmlns:ns1="&amp;#38;#38;#38;ns_sfw;"
   xmlns:dc="http://purl.org/dc/elements/1.1/"
   xmlns:cc="http://creativecommons.org/ns#"
   xmlns:rdf="http://www.w3.org/1999/02/22-rdf-syntax-ns#"
   xmlns:svg="http://www.w3.org/2000/svg"
   xmlns="http://www.w3.org/2000/svg"
   xmlns:xlink="http://www.w3.org/1999/xlink"
   xml:space="preserve"
   enable-background="new 23.577 0 290.5 85.789"
   viewBox="23.577 0 290 59.999999"
   height="60"
   width="290"
   y="0px"
   x="0px"
   id="Ebene_1"
   version="1.1"><defs
     id="defs7420"><linearGradient
       id="linearGradient6044"><stop
         id="stop6040"
         offset="0"
         style="stop-color:#f9f9f9;stop-opacity:1;" /><stop
         id="stop6042"
         offset="1"
         style="stop-color:#f9f9f9;stop-opacity:0;" /></linearGradient><linearGradient
       y2="89.897743"
       x2="242.19211"
       y1="0.78935552"
       x1="61.017727"
       gradientUnits="userSpaceOnUse"
       id="linearGradient6048"
       xlink:href="#linearGradient6044" /></defs><metadata
     id="metadata7351"><ns1:sfw><ns1:slices /><ns1:sliceSourceBounds
         bottomLeftOrigin="true"
         height="85.789"
         width="285.603"
         y="517.325"
         x="816.781" /></ns1:sfw><rdf:RDF><cc:Work
         rdf:about=""><dc:format>image/svg+xml</dc:format><dc:type
           rdf:resource="http://purl.org/dc/dcmitype/StillImage" /><dc:title></dc:title></cc:Work></rdf:RDF></metadata><g
     transform="translate(-0.20547701,-11.943833)"
     aria-label="ALL GAMES"
     style="font-style:normal;font-variant:normal;font-weight:bold;font-stretch:normal;font-size:40px;line-height:3.25;font-family:Erbaum;-inkscape-font-specification:'Erbaum Bold';letter-spacing:0px;word-spacing:0px;fill:#ffffff;fill-opacity:1;stroke:#000000;stroke-width:5;stroke-linecap:butt;stroke-linejoin:round;stroke-miterlimit:4;stroke-dasharray:none;stroke-opacity:0"
     id="text7967"><path
       d="m 53.414684,60.0065 h 9.373334 L 51.388017,23.881166 H 38.062684 L 26.662683,60.0065 h 9.322667 l 2.330667,-7.752 h 12.768 z m -12.717333,-15.554667 4.053333,-13.376 4.002667,13.376 z"
       style="font-style:normal;font-variant:normal;font-weight:bold;font-stretch:normal;font-size:50.66666794px;line-height:2.25;font-family:Erbaum;-inkscape-font-specification:'Erbaum Bold';text-align:center;letter-spacing:-2.21000123px;word-spacing:0px;text-anchor:middle;fill:#ffffff;fill-opacity:1;stroke:#000000;stroke-width:5;stroke-linecap:butt;stroke-linejoin:round;stroke-miterlimit:4;stroke-dasharray:none;stroke-opacity:0"
       id="path8445" /><path
       d="M 75.935558,52.2545 V 23.881166 h -9.12 V 60.0065 h 25.080001 v -7.752 z"
       style="font-style:normal;font-variant:normal;font-weight:bold;font-stretch:normal;font-size:50.66666794px;line-height:2.25;font-family:Erbaum;-inkscape-font-specification:'Erbaum Bold';text-align:center;letter-spacing:-2.21000123px;word-spacing:0px;text-anchor:middle;fill:#ffffff;fill-opacity:1;stroke:#000000;stroke-width:5;stroke-linecap:butt;stroke-linejoin:round;stroke-miterlimit:4;stroke-dasharray:none;stroke-opacity:0"
       id="path8447" /><path
       d="M 105.09535,52.2545 V 23.881166 H 95.975352 V 60.0065 h 25.079998 v -7.752 z"
       style="font-style:normal;font-variant:normal;font-weight:bold;font-stretch:normal;font-size:50.66666794px;line-height:2.25;font-family:Erbaum;-inkscape-font-specification:'Erbaum Bold';text-align:center;letter-spacing:-2.21000123px;word-spacing:0px;text-anchor:middle;fill:#ffffff;fill-opacity:1;stroke:#000000;stroke-width:5;stroke-linecap:butt;stroke-linejoin:round;stroke-miterlimit:4;stroke-dasharray:none;stroke-opacity:0"
       id="path8449" /><path
       d="m 148.60602,46.7825 h 7.39733 v 3.293333 c 0,1.976 -0.70933,2.685334 -2.78667,2.685334 h -5.928 c -2.07733,0 -2.78666,-0.709334 -2.78666,-2.685334 v -16.264 c 0,-2.026667 0.70933,-2.685333 2.78666,-2.685333 h 5.928 c 2.07734,0 2.78667,0.658666 2.78667,2.685333 v 0.304 l 9.06933,-1.064 c 0.0507,-0.202667 0.0507,-0.354667 0.0507,-0.76 0,-5.877334 -3.09067,-8.917334 -9.17067,-8.917334 h -11.4 c -6.08,0 -9.17066,3.04 -9.17066,8.968001 v 19.202667 c 0,5.928 3.09066,8.968 9.17066,8.968 h 11.4 c 6.08,0 9.17067,-3.04 9.17067,-8.968 V 38.979833 h -16.51733 z"
       style="font-style:normal;font-variant:normal;font-weight:bold;font-stretch:normal;font-size:50.66666794px;line-height:2.25;font-family:Erbaum;-inkscape-font-specification:'Erbaum Bold';text-align:center;letter-spacing:-2.21000123px;word-spacing:0px;text-anchor:middle;fill:#ffffff;fill-opacity:1;stroke:#000000;stroke-width:5;stroke-linecap:butt;stroke-linejoin:round;stroke-miterlimit:4;stroke-dasharray:none;stroke-opacity:0"
       id="path8451" /><path
       d="m 194.36468,60.0065 h 9.37333 l -11.4,-36.125334 h -13.32533 l -11.4,36.125334 h 9.32267 l 2.33066,-7.752 h 12.768 z m -12.71733,-15.554667 4.05333,-13.376 4.00267,13.376 z"
       style="font-style:normal;font-variant:normal;font-weight:bold;font-stretch:normal;font-size:50.66666794px;line-height:2.25;font-family:Erbaum;-inkscape-font-specification:'Erbaum Bold';text-align:center;letter-spacing:-2.21000123px;word-spacing:0px;text-anchor:middle;fill:#ffffff;fill-opacity:1;stroke:#000000;stroke-width:5;stroke-linecap:butt;stroke-linejoin:round;stroke-miterlimit:4;stroke-dasharray:none;stroke-opacity:0"
       id="path8453" /><path
       d="m 236.08823,23.881166 -9.77867,15.504 -9.82933,-15.504 h -8.816 V 60.0065 h 9.12 V 38.929166 l 7.904,12.514667 h 3.192 l 7.904,-12.464 V 60.0065 h 9.12 V 23.881166 Z"
       style="font-style:normal;font-variant:normal;font-weight:bold;font-stretch:normal;font-size:50.66666794px;line-height:2.25;font-family:Erbaum;-inkscape-font-specification:'Erbaum Bold';text-align:center;letter-spacing:-2.21000123px;word-spacing:0px;text-anchor:middle;fill:#ffffff;fill-opacity:1;stroke:#000000;stroke-width:5;stroke-linecap:butt;stroke-linejoin:round;stroke-miterlimit:4;stroke-dasharray:none;stroke-opacity:0"
       id="path8455" /><path
       d="m 277.10956,31.633166 v -7.752 H 251.47222 V 60.0065 h 25.63734 v -7.752 h -16.51734 v -6.84 h 14.38934 v -7.752 h -14.38934 v -6.029334 z"
       style="font-style:normal;font-variant:normal;font-weight:bold;font-stretch:normal;font-size:50.66666794px;line-height:2.25;font-family:Erbaum;-inkscape-font-specification:'Erbaum Bold';text-align:center;letter-spacing:-2.21000123px;word-spacing:0px;text-anchor:middle;fill:#ffffff;fill-opacity:1;stroke:#000000;stroke-width:5;stroke-linecap:butt;stroke-linejoin:round;stroke-miterlimit:4;stroke-dasharray:none;stroke-opacity:0"
       id="path8457" /><path
       d="m 290.23018,60.513167 h 11.50133 c 6.08,0 9.17067,-3.04 9.17067,-8.968 v -4.813334 c 0,-5.269333 -2.28,-7.498667 -8.61333,-8.410667 l -8.30934,-1.216 c -3.192,-0.456 -3.69866,-0.76 -3.69866,-2.482666 v -0.810667 c 0,-1.976 0.76,-2.685333 2.93866,-2.685333 h 5.624 c 2.07734,0 2.78667,0.658666 2.78667,2.685333 v 0.304 l 9.06933,-1.064 c 0.0507,-0.202667 0.0507,-0.253333 0.0507,-0.76 0,-5.877334 -3.09067,-8.917334 -9.17067,-8.917334 h -11.19733 c -6.08,0 -9.22133,3.04 -9.22133,8.968001 v 4.712 c 0,5.168 2.432,7.397333 8.71466,8.309333 l 8.25867,1.216 c 3.04,0.456 3.648,0.861334 3.648,2.533334 v 0.962666 c 0,1.976 -0.70933,2.685334 -2.78667,2.685334 h -6.02933 c -2.128,0 -2.83733,-0.709334 -2.83733,-2.685334 v -0.354666 l -9.06934,1.114666 c -0.0507,0.152 -0.0507,0.202667 -0.0507,0.709334 0,5.928 3.14133,8.968 9.22133,8.968 z"
       style="font-style:normal;font-variant:normal;font-weight:bold;font-stretch:normal;font-size:50.66666794px;line-height:2.25;font-family:Erbaum;-inkscape-font-specification:'Erbaum Bold';text-align:center;letter-spacing:-2.21000123px;word-spacing:0px;text-anchor:middle;fill:#ffffff;fill-opacity:1;stroke:#000000;stroke-width:5;stroke-linecap:butt;stroke-linejoin:round;stroke-miterlimit:4;stroke-dasharray:none;stroke-opacity:0"
       id="path8459" /></g></svg>